<?xml version="1.0" encoding="UTF-8"?>
<svg version="1.1" viewBox="0 0 1557 2048" width="534" height="702" xmlns="http://www.w3.org/2000/svg">
<path transform="translate(0)" d="m0 0h1557v2048h-1557z" fill="#FCFCFC"/>
<path transform="translate(853,436)" d="m0 0 8 2 9 5 13 11 16 8 14 6 9 7 5 8 4 14 2 9 6 10v14l-5 10-9 11-8 9-5 9 1 3v13l-6 9-5 3-4 1-4-1-3 3-14 26-13 25-3 5 1 4 22 12 24 14 14 12 6 8 18 40 16 36 10 22v3l-29 10-10 6-10 9-8 7-9 9 2 1 12 27 13 29 18 41 12 27 3 7 1 5 3 3 13 29 18 41 3 9 1 6v11l-1 11 5-1 4-12 2-14 4-1 8 7 22 22 6 4h2v-6l-11-13-7-11v-3l6 1 17 17 9 11h3l-1-6-5-8-9-10-9-11 2-4 5 3 7 8 4 5 9 7 6 2-2-5-6-7-8-7-8-10 1-4 5 2 15 12 4 1-3-6-7-7-14-11-18-13-4-5-14-42-15-42-14-40v-6l6-7 8-7 9-8 16-10 17-8 16-5 21-3h33l24 3 21 6 20 8 17 9 10 7 12 9 12 11 11 11 10 13 8 13 8 16 6 19 2 13v27l-3 15-6 15-9 14-14 15-14 13-30 23-26 17-26 16-27 16-18 11-11 9-20 20-9 11-10 14-8 16-16 28-2 3 1 5 5 13 3 15v27l-6 33-9 35-11 33-10 20-11 16-11 13-14 14-10 8-17 12-24 14-25 13-33 15-28 13-14 8-8 2 2 9 2 4 8-4 7-1h9l5 2 5 4 12-6 5-1v2l8-1 7 3 6 1h18l6 4 8-2h13l6 3 5-1 6-2h12l9 3h17l6 3 5 4 6 10 3 9 1 2-1 5 4 2 5 10-1 4-12 20-16 26-15 24-16 26-14 23-15 24-48 78-2 2-52-1-196-6v-4l10-14 2-3h13l73 4 106 6 15 1h22l10-16 16-25 13-20 16-25 11-17 16-25 13-20 12-18-4 2-11 10-16 10-21 11-48 18-20 8-14 9-10 10-10 15-7 16-2 10v15l1 9h-59l-71-2-53-1-22-1v-1h52l149 2-1-5v-18l5-17 8-15 10-13 9-8 11-7 15-7 51-19 16-7 17-10 12-9 13-11 10-11 9-14 5-11 3-12 1-7-48-1-3-1 3 12 5 10-3-1-6-10-2-11h-21l2 10 6 9h-3l-7-10-2-10h-26l3 12 4 6-1 2-6-7-2-5v-8l-27-1 2 9 4 7-1 2-6-8-2-10-24-1 3 9 2 5-6-5-3-9-14-1-3-1v-2l17-1 3-11 5-8-4-2-5-2h-13l-8 4h-2l4 9v6l-10 28-21 63-5 1-6-4-3-15-5-30h-3l-10 9-14 8-18 8-17 5-55 11-18 6-15 8-13 11-10 13-8 14-6 15-4 13h-1l1-10 7-19 8-14 8-11 10-10 14-9 16-7 18-5 45-9 21-6 18-8 12-7 4-2v-2l6-4 3-4-1-7-4-18-9-19-3-9-29 13-4-1-26-56-12-28-16-41-12-36-11-41-3-17-5-2-19-12-14-9-15-10-16-11-18-13-13-10-10-8-10-9-8-7-8-9-5-7-2-5-1-9v-27l3-26 6-27 9-29 21-58 24-68 18-43 14-31-2-5-9-13-6-15-1-4v-20l6-12 6-7 10-7 14-7 7-3 13-31 24-56 16-36 2-6-28-2-29-3-1-5 1-4 1-17v-33l-3-36 1-1 100-10h31l26 1h19l6-13v-5l-5-4-7-11-3-12v-7l5-13 11-23 12-22 12-23 10-18 4-6 1-2-2-5v-7l4-5 4-1 4 1 2-5 2-2z" fill="#FDFCFB"/>
<path transform="translate(595,895)" d="m0 0h13l5 2-2 10-7 17v2l18 5 9 3 19 4 7 9 12 17 9 10 13 10 17 11 27 14 21 9 19 7 8 3-1 19-12 115-16 160v9l8 6 12 8 77 52 2 2-1 5-4 6-3 7-12 23-10 19-4 6-8 16h-4l-24-14 1 6 5 16 11 41 8 27v5l-1 5 7 19h3l9-4h13l5 2 5 4 12-6 5-1v2l8-1 7 3 6 1h18l6 4 8-2h13l6 3 5-1 6-2h12l9 3h17l6 3 5 4 6 10 3 9 1 2-1 5 4 2 5 10-1 4-12 20-16 26-15 24-16 26-14 23-15 24-48 78-2 2-52-1-196-6v-4l10-14 2-3h13l73 4 106 6 15 1h22l10-16 16-25 13-20 16-25 11-17 16-25 13-20 12-18-4 2-11 10-16 10-21 11-48 18-20 8-14 9-10 10-10 15-7 16-2 10v15l1 9h-59l-71-2-53-1-22-1v-1h52l149 2-1-5v-18l5-17 8-15 10-13 9-8 11-7 15-7 51-19 16-7 17-10 12-9 13-11 10-11 9-14 5-11 3-12 1-7-48-1-3-1 3 12 5 10-3-1-6-10-2-11h-21l2 10 6 9h-3l-7-10-2-10h-26l3 12 4 6-1 2-6-7-2-5v-8l-27-1 2 9 4 7-1 2-6-8-2-10-24-1 3 9 2 5-6-5-3-9-14-1-3-1v-2l17-1 3-11 5-8-4-2-5-2h-13l-8 4h-2l4 9v6l-10 28-21 63-5 1-6-4-3-15-5-30h-3l-10 9-14 8-18 8-17 5-55 11-18 6-15 8-13 11-10 13-8 14-6 15-4 13h-1l1-10 7-19 8-14 8-11 10-10 14-9 16-7 18-5 45-9 21-6 18-8 12-7 4-2v-2l6-4 3-4-1-7-4-18-9-19-3-9-29 13-4-1-26-56-12-28-16-41-12-36-11-41-3-17-5-2-19-12-14-9-15-10-16-11-18-13-13-10-10-8-10-9-8-7-8-9-5-7-2-5-1-9v-27l3-26 6-27 9-29 21-58 24-68 18-43 14-31-2-5-5-17-1-5v-16l3-6 8-7z" fill="#1B2E35"/>
<path transform="translate(853,436)" d="m0 0 8 2 9 5 13 11 16 8 14 6 9 7 5 8 4 14 2 9 6 10v14l-5 10-9 11-8 9-5 9 1 3v13l-6 9-5 3-4 1-4-1-3 3-14 26-13 25-3 5 1 4 22 12 24 14 14 12 6 8 18 40 16 36 10 22v3l-29 10-10 6-10 9-8 7-14 14-4 5h-2l-5-11-17-41-2-5-2-1-2 8-9 20-30 70-23 53-5 16-3 19-4 28-3 10-3 5-4 1v-2l-11-3-24-9-35-17-19-12-13-10-10-9-14-19-7-10-23-5-9-3-14-4-1-3 8-20 1-6-4-2h-13l-6 4-5 6-1 3v16l4 14v5l-5-5-7-14-3-10v-20l6-12 6-7 10-7 14-7 7-3 13-31 24-56 16-36 2-6-28-2-29-3-1-5 1-4 1-17v-33l-3-36 1-1 100-10h31l26 1h19l6-13v-5l-5-4-7-11-3-12v-7l5-13 11-23 12-22 12-23 10-18 4-6 1-2-2-5v-7l4-5 4-1 4 1 2-5 2-2z" fill="#FC515B"/>
<path transform="translate(1088,844)" d="m0 0h33l24 3 21 6 20 8 17 9 10 7 12 9 12 11 11 11 10 13 8 13 8 16 6 19 2 13v27l-3 15-6 15-9 14-14 15-14 13-30 23-26 17-26 16-27 16-18 11-11 9-20 20-9 11-10 14-8 16-16 28-10 15-3 3 1-5 10-19 12-20 10-14 1-4-5-1-19-10-16-9-18-10-2-2v-19l-2-28-6-42-7-33-11-44-4-29v-5h3l18 40 15 35 3 12v11l-1 11 5-1 4-12 2-14 4-1 8 7 22 22 6 4h2v-6l-11-13-7-11v-3l6 1 17 17 9 11h3l-1-6-5-8-9-10-9-11 2-4 5 3 7 8 4 5 9 7 6 2-2-5-6-7-8-7-8-10 1-4 5 2 15 12 4 1-3-6-7-7-14-11-18-13-4-5-14-42-15-42-14-40v-6l6-7 8-7 9-8 16-10 17-8 16-5z" fill="#9E2F36"/>
<path transform="translate(794,1006)" d="m0 0 5 1 23 10 21 10 20 12 14 10 13 11 10 9 7 8 9 12 8 13 6 14 5 17 2 14v35l2 9 4 7 10 8 8 3 12 1 15-7-1 6-17 47h-3l-2 9-6 19-7 25-1 6 3 2-1 7-1 34-2 19-4 17-6 15-7 11-11 12-10 7-11 5-18 6h-4v-6l5-11-1-6-24-10-11-5 1-5 3-5-1-4-43-29-34-23-15-10-6-5v-9l15-151 10-94 4-41 2-7 3-1 4-9z" fill="#FCFCFC"/>
<path transform="translate(826,1585)" d="m0 0h13l6 3 3 2-2 5-3 5-2 9-1 1h-17v2l17 1 3 7 3 5h1l-3-7v-4h21l3 1 3 10 5 7-5-11v-6h23l4 1 2 11 6 8-5-10-1-9h26l4 12 6 8-6-12v-7h21l4 13 5 8-1-4-4-8-1-9 47 1 4 1-1 13-5 13-8 14-11 13-7 7-10 8-14 10-14 8-21 9-51 19-17 9-11 9-9 11-8 14-5 13-2 8v23h-77l-72-1h-30l53 1 71 2 59 1-2-9v-15l3-13 8-16 9-13 11-11 15-9 29-11 37-14 25-13 14-10 10-9 4-2-2 5-10 15-16 25-13 20-16 25-22 34-16 25-11 17-2 3h-22l-228-13 1-5 4-8h-25l-18-2-4-7-3-21v-14l2-14 2 3 7-21 8-15 9-12 8-9 11-8 16-8 15-5 55-11 17-5 18-8 11-6 15-12 2 2 7 42 1 3 5 3h4l12-36 18-53 1-2v-6l-3-6v-3z" fill="#FCFCFC"/>
<path transform="translate(399,492)" d="m0 0 5 3 4 4 10 3 9 2 10 6 8 11 7 13 18 22 22 26 9 11 13 15 8 10 11 13 3 3 75 2v-5h1l3 35v33l-1 17-1 8 40 4 14 1 3 1-1 6-17 38-23 54-13 31-4 3-10 4-11 6-9 7-6 9-3 7v20l5 15 1 4-11-4-14-9-14-10-13-11-16-16-11-14-10-15-9-17-8-20-4-13-4-25v-25l3-17 6-18 7-11 6-7 5-4 1-3-7-1-6-8-12-23-16-32-11-23-16-33-11-23-3-5-24 7h-12l-22-12-13-8v-6l4-4h11l-5-6v-5l5-1 8 5-2-6-1-5 1-1 8 1 10 7 9 8 3 3 16-4h3l-7-8-4-5-4-7v-6z" fill="#FDDBD9"/>
<path transform="translate(994,1188)" d="m0 0h1l-1 9-12 35-5 13 12-5h16l11 6 10 10 4 6-2 6-5 9v2l7-11 2-1 6 12 3 12 1 7v27l-6 33-9 35-11 33-10 20-11 16-11 13-14 14-10 8-17 12-24 14-25 13-33 15-28 13-14 8-10 3-3-8 1-10-15-52-8-30-2-5 1-4 24 14 3 1 8-16 6-10 13-25 9-16 2-4 1 2 26 11 8 3 2 3-1 7-4 8-1 6 27-9 11-6 10-9 8-10 8-16 5-17 2-12 1-13 1-34 2-7-4-2 2-9 10-36 5-14h3l1-5 12-34 9-24z" fill="#FDDBD9"/>
<path transform="translate(799,223)" d="m0 0h14l12 3 12 6 9 7 10 9 8 10 11 18 8 17 7 20h2l4-6 6-4h10l8 4 10 9 9 12 9 15 8 16 8 21 5 19 3 17 1 12v21l-3 24-6 23-10 25-10 19-10 13-9 11-8 7-2 5-1 8h-1l-1-12-1-3 5-9 11-12 9-13 2-5v-14l-7-12-3-15-4-9-2-5-4-2-9-6-19-8-11-7-9-8-9-5-8-2-2-1-1-8-6-21-9-24-10-19-10-16-11-14-11-12-13-14-10-13-8-14-2-8v-17l4-10 6-8 8-7 13-6z" fill="#FDDBD9"/>
<path transform="translate(645,332)" d="m0 0h21l18 4 16 7 12 8 10 9 9 11 8 14 5 13 3 14v25l-4 17-7 16-9 13-9 10-11 8-3 2-1 25-1 1-66 4h-13l-1-2-1-21-6-2-11-6-11-9-9-9-9-13-7-15-4-15-1-6v-22l3-14 6-15 6-11 7-9 12-12 15-10 14-6 12-3z" fill="#FC515B"/>
<path transform="translate(332,790)" d="m0 0 18 1 17 4v2l7 1 6 4 7 8 9 16 14 26 10 18 32 58 13 24 6 10v2h-9l-21-2h-26l-19 3-14 4-16 8-9 6-10 9-8 11-3 5-3-1-11-21-9-15-75-130 2-4 16-15 18-13 12-7 15-6 15-4z" fill="#FCFCFC"/>
<path transform="translate(345,1124)" d="m0 0h17l5 5 1 6-4 12-10 16-11 13-22 24-5 5h-2l-1 5 1 6v15l-3 15-5 12-7 12-9 10-14 10-15 6-6 2-8 1h-20l-13-4-6-3-5 1-22 12-20 9-18 6-9 2h-11l-6-3-2-3v-9l7-14 14-19 13-14 7-8 8-9-1-12v-16l3-14 5-12 8-12 10-11 10-7 14-7 17-4h17l17 4 9 4 4-1 24-13 16-8 20-8z" fill="#FC525B"/>
<path transform="translate(853,436)" d="m0 0 8 2 9 5 13 11 16 8 14 6 9 7 5 8 4 14 2 9 6 10v14l-5 10-9 11-8 9-5 9 1 3v13l-6 9-5 3-4 1-4-1-3 3-14 26-13 25-3 5v4l-3 1-6 8-7 7-10 5-7 2h-11l-13-4-10-7-6-7-5-12-1-5v-10l3-11 2-5-4-1 5-1 6-13v-5l-5-4-7-11-3-12v-7l5-13 11-23 12-22 12-23 10-18 4-6 1-2-2-5v-7l4-5 4-1 4 1 2-5 2-2z" fill="#FDBE9A"/>
<path transform="translate(109,769)" d="m0 0h12l16 3 21 7 22 11 19 13 10 8 12 11 6 5 7 8 3 2 14-14 17-13 14-8 18-8 16-4 7-1h23l21 5-4 1-13-3-18-1-16 2-15 4-17 7-17 11-13 10-15 14 2 6 14 24 45 78 14 24 15 26 5 10h2l6-10 10-11 10-8 15-8 14-5 15-3 9-1h26l30 3-32-58-13-24-25-45-9-17 1-2 8 14 28 50 10 18 14 25 15 27 8 14v2l-10-1 3 10-16-3-19-2h-13l-18 3-17 5-25 12-11 8-10 8-4 6-11-3h-24l-15 2-17 5-18 8-15 8-15 10-13 10-3-1-10-16-3-4-6 4-7 6-4-1-12-22-15-29-12-22-15-29-12-22-17-33-12-22-3-7 20-8 15-5 21-5 6-1-2-5-18-36-10-19 1-2 12 22 12 24 10 18 8 16 15 29 12 22 8 16 10 19 15 29 1 1 36 2 22 4 21 6 15 6 11 6 9 6-13-22-14-24-14-25-10-17-13-23-14-24-9-16-8-12-14-15-8-7-16-13-15-10-16-9-20-8-17-4-17-2z" fill="#FCFCFC"/>
<path transform="translate(1203,871)" d="m0 0 12 7 11 9 10 9 12 12 10 13 8 13 8 16 6 19 2 13v27l-3 15-6 15-9 14-14 15-14 13-30 23-26 17-26 16-27 16-18 11-11 9-20 20-9 11-10 14-8 16-16 28-10 15-3 3 1-5 10-19 12-20 10-14 1-4-5-1-8-4 1-3 8-7 12-15 26-38 13-18 14-19 3-4h6l9 4 10 8 6 7-4-8-8-7-9-5-6-2 2-6 11-15 10-14 14-22 10-18 10-19 8-15 3-1 20 6 16 8 8 6 10 9 11 13 4 5-9-14-13-14-10-7-16-8-18-6-3-2 2-6 9-20 6-18 3-14 1-7v-18l-4-21-5-13z" fill="#FC515B"/>
<path transform="translate(472,202)" d="m0 0h14l12 5 10 9 7 14 1 3v14l-4 10-11 17-8 14-2 7-1 17-1 23-6 18-9 13-9 9-9 6-7 3-7 1v22l-4 8-6 5-4 2h-18l-7-4-6-7-3-12v-14l-5-2-7-7-6-8-8-14-4-12-2-18 1-15 3-12 7-14 10-13 11-10 18-11 12-8 10-9 15-15 4-5 11-7z" fill="#FDDBD9"/>
<path transform="translate(399,492)" d="m0 0 5 3 4 4 10 3 9 2 10 6 8 11 7 13 18 22 22 26 9 11 13 15 8 10 11 13 3 3 75 2v-5h1l3 35v33l-1 10-71-6-42-5-12-3-5-3-8-13-24-48-11-23-16-33-11-23-3-5-24 7h-12l-22-12-13-8v-6l4-4h11l-5-6v-5l5-1 8 5-2-6-1-5 1-1 8 1 10 7 9 8 3 3 16-4h3l-7-8-4-5-4-7v-6z" fill="#FEC09C"/>
<path transform="translate(805,1563)" d="m0 0 2 4 7 19h3l9-4h13l5 2 5 4 12-6 5-1v2l8-1 7 3 6 1h18l6 4 8-2h13l6 3 5-1 6-2h12l9 3h17l6 3 5 4 6 10 3 9 1 2-1 5 4 2 5 10-1 4-12 20-16 26-15 24-16 26-14 23-15 24-48 78-2 2-52-1-196-6v-4l10-14 2-3h13l73 4 106 6 15 1h22l10-16 16-25 13-20 16-25 11-17 16-25 13-20 12-18-4 2-11 10-16 10-21 11-48 18-20 8-14 9-10 10-10 15-7 16-2 10v15l1 9h-59l-71-2-53-1-22-1v-1h52l149 2-1-5v-18l5-17 8-15 10-13 9-8 11-7 15-7 51-19 16-7 17-10 12-9 13-11 10-11 9-14 5-11 3-12 1-7-48-1-3-1 3 12 5 10-3-1-6-10-2-11h-21l2 10 6 9h-3l-7-10-2-10h-26l3 12 4 6-1 2-6-7-2-5v-8l-27-1 2 9 4 7-1 2-6-8-2-10-24-1 3 9 2 5-6-5-3-9-14-1-3-1v-2l17-1 3-11 5-8-4-2-5-2h-13l-8 4h-2l4 9v6l-10 28-21 63-5 1-6-4-3-15-5-30h-3l-10 9-14 8-18 8-17 5-55 11-18 6-15 8-13 11-10 13-8 14-6 15-4 13h-1l1-10 7-19 8-14 8-11 10-10 14-9 16-7 18-5 45-9 21-6 18-8 12-7 4-2v-2l6-4 3-4-1-7-4-18-9-19-3-9 7-2-1 8 12-4 2-2-7-3 2-4 8-5 29-13z" fill="#283037"/>
<path transform="translate(108,770)" d="m0 0h12l16 3 20 7 16 8 15 9 13 10 13 11 13 12 10 12 13 22 14 25 10 17 13 23 14 24 13 23 12 20 3 6-5-2-8-6-15-7-21-7-18-4-12-2-36-2-5-8-16-31-10-19-13-25-10-18-8-16-14-27-10-19-17-33z" fill="#FCFCFC"/>
<path transform="translate(800,963)" d="m0 0h1v7l-2 8 12 3 36 11 25 10 25 12 21 13 14 10 13 12 8 7 7 8 11 13 10 16 6 10 1-6h1l6 42 2 28v19l10 6 11 6 10 6 28 14-1 5-9 13-15 25-2 1-7-9-9-8-8-4h-16l-10 4h-2l1-5 14-40 2-10-5 14-6 2-10 5-12-1-9-4-9-7-4-5-2-5-1-7v-35l-2-14-6-20-8-16-7-11-9-11-7-8-8-7-13-11-18-12-17-10-23-11-19-8-5-2 1-11 3-23z" fill="#FDDBD9"/>
<path transform="translate(964,809)" d="m0 0 3 4 12 36 15 43 3 9 17 49 13 36 13 38 10 8 14 10 14 12 6 7v3l-5-1-14-11-5-2 1 5 12 13 5 4 6 8-1 3-6-2-11-9-9-10-4-4-2 1 2 5 12 13 7 9 3 6-1 5-4-1-12-14-13-13-6-2 4 8 10 13 5 6v6l-3 1-9-7-25-25-5-1-3 18-4 9-5 1-1-1 1-11v-11l-3-12-13-30-20-45h-2l-2-8-13-30-13-29-12-27-13-29-5-11v-3l-3-1 16-16 8-7 10-7 12-5z" fill="#FEC09C"/>
<path transform="translate(532,702)" d="m0 0h11l70 6 1 1v7l-1 8 40 4 14 1 3 1-1 6-17 38-23 54-13 31-4 3-10 4-11 6-9 7-5 6h-2l-6-21-3-26-2-21-3-9-7-7-16-10-7-7-2-5v-15l7-32 1-7v-11l-3-7z" fill="#FCFCFC"/>
<path transform="translate(977,1678)" d="m0 0v3l-11 17-16 25-13 20-16 25-22 34-16 25-11 17-2 3h-22l-228-13 1-5 4-8h-25l-18-2-4-7-3-21v-14l2-14 2 3 2-7 1 4-2 17v16l2 15 1 5h21v-2l2-1h8l-4 4h50v1l-28 1 53 1 71 2 59 1-2-9v-15l3-13 8-16 9-13 11-11 15-9 29-11 37-14 25-13 14-10 10-9z" fill="#E1E0E0"/>
<path transform="translate(1058,455)" d="m0 0h24l15 5 11 7 8 7 9 13 5 12 2 9v18l-5 17-6 10-9 10-9 7-10 5-16 4h-16l-12-3-14-7-11-9-8-11-5-10-3-11-1-7v-10l2-10 6-15 8-11 7-7 13-8 10-4z" fill="#FC515B"/>
<path transform="translate(1084,361)" d="m0 0h12l12 3 32 15 15 4 8 1h53l16 3 13 5 12 7 12 9 8 8-1 2-49 1h-197l-1-3 4-10 6-12 9-12 10-10 15-8z" fill="#E1E1E1"/>
<path transform="translate(109,769)" d="m0 0h12l16 3 21 7 22 11 19 13 10 8 12 11 6 5 7 8 3 2 14-14 17-13 14-8 18-8 16-4 7-1h23l21 5-4 1-13-3-18-1-16 2-15 4-17 7-17 11-13 10-15 14 2 6 14 24 45 78 14 24 15 26 5 10h2l6-10 10-11 10-8 15-8 14-5 15-3 9-1h26l30 3-32-58-13-24-25-45-9-17 1-2 8 14 28 50 10 18 14 25 15 27 8 14v2l-10-1 3 10-16-3-19-2h-13l-18 3-17 5-25 12-11 8-10 8-4 6-11-3h-24l-15 2-17 5-18 8-15 8-15 10-13 10-3-1-10-16-3-4-6 4-7 6-4-1-12-22-15-29-12-22-15-29-12-22-17-33-12-22-3-7 20-8 15-5 21-5 6-1-2-5-18-36-10-19 1-2 12 22 12 24 10 18 8 16 15 29 12 22 8 16 10 19 15 29 1 1 36 2 22 4 21 6 15 6 11 6 9 6-13-22-14-24-14-25-10-17-13-23-14-24-9-16-8-12-14-15-8-7-16-13-15-10-16-9-20-8-17-4-17-2zm26 71-25 6-25 9-4 3 8 16 15 29 12 22 12 23 12 22 13 25 12 22 11 21h4l13-10 21-13 19-9 15-5 14-3 8-1h19l18 3 15 5 3-1-5-5-17-9-27-9-21-4-18-2-27-1-2-6-10-19-15-30-10-19-18-35-13-25z" fill="#373239"/>
<path transform="translate(1088,844)" d="m0 0h33l10 1-12 12-8 10-12 16-10 15-12 22-9 19-5 5h-7l-15-8-13-4-17-2-3-1-1 3-12-34v-6l6-7 8-7 9-8 16-10 17-8 16-5z" fill="#FD525C"/>
<path transform="translate(418,264)" d="m0 0h2l8 15 4 7 9 16 2 3v80l-1 22-4 8-6 5-4 2h-18l-7-4-6-7-2-8v-98l8-16 6-8 8-16z" fill="#FD525C"/>
<path transform="translate(258,1447)" d="m0 0h14l20 8 17 7 7 2 11 1h42l14 4 12 6 13 9 5 6-2 2-116 1h-36l-42-1 1-7 6-12 8-10 7-7 16-8z" fill="#E1E1E1"/>
<path transform="translate(853,436)" d="m0 0 8 2 9 5 13 11 16 8 14 6 9 7 5 8 4 14 2 9 6 10v14l-5 10-9 11-8 9-6 8-3 1-5-1-6 4-5 6-4 2h-4v-2h-3l-1-5 5-11 3-5h2l1-5 3-4h2l1-5 5-11 2-7v-12l-2-9-1-6h-2l-1-4-15-6-10-1-10-3-16-8v-2l-5-2-4-5-5-8-1-3v-7l4-5 4-1 4 1 2-5 2-2z" fill="#1E2E35"/>
<path transform="translate(805,1563)" d="m0 0 2 4 7 19 4 9 2 4v6l-10 28-21 63-5 1-6-4-3-15-5-30h-3l-10 9-14 8-18 8-17 5-55 11-18 6-15 8-13 11-10 13-8 14-6 15-4 13h-1l1-10 7-19 8-14 8-11 10-10 14-9 16-7 18-5 45-9 21-6 18-8 12-7 4-2v-2l6-4 3-4-1-7-4-18-9-19-3-9 7-2-1 8 12-4 2-2-7-3 2-4 8-5 29-13z" fill="#FC515B"/>
<path transform="translate(967,985)" d="m0 0 3 3 13 29 18 41 3 9 1 6v11l-1 11 5-1 4-12 2-14 4-1 8 7 8 8-2 7-6 49-5 32-5 28-16-8-5-4v-19l-2-28-6-42-7-33-11-44-4-29v-5z" fill="#FD525C"/>
<path transform="translate(749,1589)" d="m0 0h3l4 9 9 19 5 21-1 5-5 5-4 2v2l-14 9-15 7-11 4-4-2-6-9-6-13-2-7-1-14 3-14 6-14 3-3h4l2 2 1 3 5-1z" fill="#FDDBD9"/>
<path transform="translate(967,1257)" d="m0 0 5 2 23 12 22 12 5 3-4 7-13 16-10 13-8 10-6-2-29-13-2-2 2-9 10-36z" fill="#1C2E35"/>
<path transform="translate(847,1410)" d="m0 0 5 3 25 11 1 3-6 14-16 41-17 43-3 8-2-2-2-12-1-26v-21l-2-5-10-3 8-15 17-32z" fill="#FC515B"/>
<path transform="translate(996,1187)" d="m0 0 5 2 17 9 10 6 28 14-1 5-9 13-15 25-2 1-7-9-9-8-8-4h-16l-10 4h-2l1-5 14-40 3-12z" fill="#FCFBFB"/>
<path transform="translate(496,1521)" d="m0 0 4 2 2 3 8 1-2 4-1 6 2 4-8-1-11 7-15 14-27 27-1 2h-2v7l-3 1 1 26 2 38 2 32 1 27 2 26v9h3l2 10 6 4-4 4-6 1-1 8h-4l-2-3v-3l-12-1 2-4v-3l-5-2-5-5-12-7-43-29-32-21-5-3-7-1-4-4-5-1 1-7v-5h5l-8-21-14-43-17-51-4-16h2l17 48 15 44 13 37 3 3 4 7-1 6 5 1 39 26 43 29 4 3v2l5 2 5 4 4 1-1-8 10 3-2-20-5-111-1-29-4-6v-4l4-2 1-2 6-2 8-7 8-8h2v-2l8-7 10-10 8-7 4-3v-5l-5-3v-2l7-2z" fill="#FEC09C"/>
<path transform="translate(266,999)" d="m0 0h28l16 3 13 5 3 3-3 1h-22l-15 2-17 5-18 8-15 8-15 10-13 10-3-1-10-16-5-6 5-2 15-10 16-8 12-5 13-4z" fill="#FC515B"/>
<path transform="translate(1008,932)" d="m0 0h8l18 4 11 5 11 7h8l-10 30-8 30-4 16h-3l-14-41-16-45z" fill="#FD525C"/>
<path transform="translate(333,1142)" d="m0 0 7 1 5 4 1 2-1 9-8 14-11 13-3 4h-2l-2 4-6 6-4-1-8-16-8-10-9-9 3-3 17-9 18-7z" fill="#FCF9F7"/>
<path transform="translate(693,548)" d="m0 0h10l1 8-1 2-9 2-8 19-5 4-6 1h-25l-7-11-5-9-12-1-2-3 1-7 3-1z" fill="#1E2E35"/>
<path transform="translate(994,1188)" d="m0 0h1l-1 9-12 35-5 13 12-5h16l11 6 10 10 4 6-2 6-5 9-1 5-5 2-28-15-17-9-5-4h3l1-5 12-34 9-24z" fill="#FDD8D7"/>
<path transform="translate(977,1678)" d="m0 0v3l-11 17-16 25-13 20-16 25-22 34-16 25-11 17-2 3h-22l-172-10-22-1-12-2v-1l7-1 1-1h11l18 2 18 1 31 1 26 2 29 1 41 3 9 2 14 1h18l6-4 5-10 9-15 11-17 12-19 9-14 5-9h2l2-5 2-4h2l2-5 8-13 4-8 5-8 3-7v-5l-6 3-5 2v-2l15-9 13-10z" fill="#F9F9F9"/>
<path transform="translate(392,818)" d="m0 0 3 3 16 29 13 23 14 25 30 54 8 14v2l-10-1 3 10-16-3-19-2h-13l-18 3-17 5-25 12-11 8-9 6 1-5 7-8 7-7 11-8 17-8 15-4h6l1-4 9-1h26l30 3-32-58-13-24-25-45-9-17z" fill="#FC515B"/>
<path transform="translate(168,1253)" d="m0 0 3 3 7 12 9 10 6 5v3l-23 12-16 6-4 1h-11l-3-3-1-5 7-14 11-14z" fill="#FDF9F7"/>
<path transform="translate(653,210)" d="m0 0h9l8 4 7 8 2 5v9l-6 10-8 6-2 1h-9l-8-4-5-4-4-7v-13l4-7 7-6z" fill="#FEDCDA"/>
<path transform="translate(517,1380)" d="m0 0 9 1 2 1v2l4 1 4-1 5 5 5 1 4 3v2l6 2 10 11 3 7 2 2-1 9-10 8 2 3 5-5 6 3 7 1 5 1 3 1 1 6-5-1-11 1-15 4-5 2-2 2 1 2-1 9-3 4-3 1h-8l-1-3 7-4h6l1-4h-3l-2-6 5-3 7-3-1-2 1-6-5-2 4-4-1-4-6-2 4-7 3 2 5-1v-6l-3-1v-3l-7-1v-2l-7-2-3-1-4-3 1-2 3 1v-2h-5v3l-3 1-7-2 3-4-1-5-5-1-4-5v-2h-2z" fill="#E1E1E1"/>
<path transform="translate(496,1521)" d="m0 0 4 2 2 3 8 1-2 4-1 6 2 4-8-1-11 7-15 14-27 27-1 2h-2v7l-3 1 1 26 2 38 2 32 1 27 2 26v9l3 1-5 1-2 2-2-19-5-111-1-29-4-6v-4l4-2 1-2 6-2 8-7 8-8h2v-2l8-7 10-10 8-7 4-3v-5l-5-3v-2l7-2z" fill="#FEC09C"/>
<path transform="translate(109,769)" d="m0 0h12l16 3 21 7 22 11 19 13 10 8 12 11 6 5 7 8 3 2 14-14 17-13 14-8 18-8 16-4 7-1h23l21 5-4 1-13-3-18-1-16 2-15 4-17 7-17 11-13 10-15 14 2 6 14 24 45 78 28 48-4 1-17-29-12-21-15-26-13-23-15-26-12-21-8-12-14-15-8-7-16-13-15-10-16-9-20-8-17-4-17-2z" fill="#3A323A"/>
<path transform="translate(418,264)" d="m0 0h2l8 15 4 7 9 16 2 3v80h-1v-79h-47l4-10 7-11 4-7z" fill="#FEC09C"/>
<path transform="translate(826,1585)" d="m0 0h13l6 3 3 2-2 5-3 5-2 9-1 1h-17l-2 10-13 37-14 35-5 4 3-12 15-45 12-34v-6l-3-6v-3z" fill="#FBFAF9"/>
<path transform="translate(595,895)" d="m0 0h13l5 2-2 10-7 17v3l-3 3-9 20-3-1-2-4-5-20v-16l3-6 8-7z" fill="#A02F37"/>
<path transform="translate(641,425)" d="m0 0 4 1 3 3 2 4v12l-2 6h16l5-1-2-6v-11l6-5h5l3 4 1 5-2 5-7 7 2 4 9 5 5 1h9l8-4 1-7-8-1-5 3-4 6-1-2 4-6 4-3 7-1 5 3 1 8-3 1v2l-9 4h-12l-4 16-2 4 1-9 2-8v-5l-10-5-3-3-8 2h-12l-4-1-2 4-7 6-6 3h-2l3 9 9 19-1 3-15-30h-7l-8-4-3-3v-5l4-4h2l-1 3-2 1 1 5 7 4h6l-6-9-3-3v-2l4 2 7 9 1 2 6-1 9-7 2-4v-2l-4-2-5-5-2-5v-6l5-5z" fill="#9D2E35"/>
<path transform="translate(109,775)" d="m0 0 3 3 22 43 10 18 7 15h-3l-6-12v-2l-21 4-26 8-12 5v4l13 25 12 22 12 23 12 22 13 25 12 22 15 29 5 9 5-2 8-7 9-5-1 4-7 4-5 5-7 6-4-1-12-22-15-29-12-22-15-29-12-22-17-33-12-22-3-7 20-8 15-5 21-5 6-1-2-5-18-36-10-19z" fill="#383239"/>
<path transform="translate(877,1424)" d="m0 0 6 2 2 3-1 7-5 11-6 16-13 30-11 26-9 20h-3l1-6h-2l1-5 12-31 18-46 9-22z" fill="#FEC09C"/>
<path transform="translate(819,1464)" d="m0 0 7 1 4 2v6l-6 3-9 11-9 14-5 10-3 7-3-3-11-40-2-5 1-4 24 14 3 1z" fill="#FBFAFA"/>
<path transform="translate(312,1200)" d="m0 0 4 3-12 11-8 7-9 8h-2v2l-11 9-11 10-12 9-13 10-24 16-12 5-5 2-9 1-2 2h-4l-2-1v-2l10-2 5-4 15-9 19-12 14-10 17-12 19-14 14-12 11-9z" fill="#9E2F36"/>
<path transform="translate(690,533)" d="m0 0h12l1 1v8l-4 2-63 4h-11l-2-3 1-7 18-2z" fill="#202E35"/>
<path transform="translate(613,899)" d="m0 0 4 1 13 12 9 10 9 13v2h-7l-14-3-9-3-14-4-1-3z" fill="#FDBB99"/>
<path transform="translate(619,1455)" d="m0 0 11 1h4v5l-1 1 3 1v3l4 2h4l5 1 8 11-1 2-4-3-8 2-4-4v-3h-8l-7-1-4 2-4-3-8 1-2-2-15-1-6-3 2-4-1-4 3-2h13l6 1h7v2h-2v3l5-2v-2h-2v-3z" fill="#E1E1E1"/>
<path transform="translate(973,1593)" d="m0 0h12l8 4 7 8 4 8v2h-24l-24-1 1-7 7-9 3-2h3l6 10 2 4-3-9-4-7z" fill="#F9F9F9"/>
<path transform="translate(279,1553)" d="m0 0h2l17 48 15 44 13 37 3 3 4 7v3l-4 2-2 3-5-2-6-2 1-7v-5h5l-8-21-14-43-17-51z" fill="#FEC09D"/>
<path transform="translate(941,1677)" d="m0 0 9 1-1 5-5 5h-2v-2h-11l-3 1-9-1-9 5-12 2-2 5-8 4-7 4-13 7-7 3-7 8 2 1-8 4-5-1 2-4 13-9 5-2 1-3 8-5 3-3 3-1 1-2 12-6 3-5 5-3h4l6-1 3 1v-2l-3-1 6-3h3v3l11-1 1-2 7-1z" fill="#E1E1E1"/>
<path transform="translate(444,1267)" d="m0 0 6 5 5-1 3-3 9-1 10 3 2 4v4l4-2 1 4 2 11 10 12h-3l-6-5-5-4-2-3-3-1-2-5-8-2v5l-5 1-8-4 1-4-4-2h-4l-2-1z" fill="#E1E1E1"/>
<path transform="translate(358,1140)" d="m0 0 3 1 1 3-1 2h2l-2 6-10 15-10 11-7 8-14 15-4 4-2-1v-2l-1-4 7-7 7-8 10-12 8-16 1-8 6 2 4-7z" fill="#F44E58"/>
<path transform="translate(767,1645)" d="m0 0v3l-10 9-14 8-18 8-17 5-55 11-18 6-15 8-13 11-10 13-8 14-6 15-4 13h-1l1-10 7-19 8-14 8-11 10-10 14-9 16-7 18-5 45-9 21-6 18-8 12-7 4-2v-2z" fill="#3F333B"/>
<path transform="translate(392,818)" d="m0 0 3 3 16 29 13 23 14 25 30 54 8 14v2l-7-1-35-3h-11l-17 1 2-3 7-1h26l30 3-32-58-13-24-25-45-9-17z" fill="#44323A"/>
<path transform="translate(790,599)" d="m0 0 5 3-1 7-6 12h-19l-52-2v-1l39-1 8-5 12-5z" fill="#FED9D4"/>
<path transform="translate(496,1521)" d="m0 0 4 2 2 3 8 1-2 4-1 6 2 4-8-1-11 7-15 14-27 27-1 2h-2v7l-3 1v2l-4-2-3-4 1-4 3-3 6-2 8-7 8-8h2v-2l8-7 10-10 8-7 4-3v-5l-5-3v-2l7-2z" fill="#FEC09C"/>
<path transform="translate(820,1601)" d="m0 0 2 4 2 5-2 4-3 12-11 31-14 35-5 4 3-12 15-45 12-34z" fill="#FDC09E"/>
<path transform="translate(646,1145)" d="m0 0h1v12l-3 47-2 28h-2l-4-16v-28l8-36z" fill="#F7F7F7"/>
<path transform="translate(699,670)" d="m0 0 1 4-16 35-12 28-8 16-14 32-13 30-9 19-1 3h-2l3-9 24-56 16-36 10-24 8-17 10-19z" fill="#502E35"/>
<path transform="translate(650,1831)" d="m0 0h11l18 2 18 1 31 1 26 2 18 1v2l2 2h-12l-86-5-22-1-12-2v-1l7-1z" fill="#F6F6F6"/>
<path transform="translate(863,1585)" d="m0 0h11l7 2-2 4-6 7-6 13h-9l-2-1-1-12-2-4 1-5 5-3z" fill="#F9F9F9"/>
<path transform="translate(422,1130)" d="m0 0 3 1v2l10 1 1-4 4 2v5h-6l-1-1-1 2h-2l-1-2-4 4-1 7 5 5 2 9-4 3h-2l-2-2h-2l-1-3-2-2v-3h-5l-5-7-3-7 2-2 5 3 2-2 1-7 5-1z" fill="#E1E1E1"/>
<path transform="translate(448,1757)" d="m0 0h5l1 5 1 4 6 4-4 4-6 1-1 8h-4l-2-3v-3l-12-1 2-4v-3l-5-2-5-5-3-2v-2l5 2 7 5 4 1-1-8 10 2z" fill="#FD565F"/>
<path transform="translate(1197,705)" d="m0 0 4 2 7 8 7 3-5 5-7 8-4 4-4-4v-2h-2l-4-4-5-3 2-4 8-7z" fill="#FD525C"/>
<path transform="translate(437,1350)" d="m0 0 4 4 5 6 8 5-4 4-6 5-4 7h-2v-2l-3-1-4-5-2-1v-2l-6-2 2-4 6-4 4-6z" fill="#FD525C"/>
<path transform="translate(227,571)" d="m0 0 3 1 2 5 4 2 8 5-5 5-4 2-2 5-2 4-4-1-7-8-7-4v-2l9-7z" fill="#FD525C"/>
<path transform="translate(1083,1399)" d="m0 0 3 3 2 5 4 2 8 5-5 5-6 5-3 6-4-2-3-4v-2l-10-5 2-4 6-4z" fill="#FD525C"/>
<path transform="translate(544,1423)" d="m0 0h5l-3 3-10 3-1 2 12-1 1 4-2 3-6 1 1 6-5 2-13 5-4 2-1-2h-2v-5l5-2 1-4 5-2-7 1v2l-6-1-4-2 9-1 4-2 7-1 2-5h-2v-2l9-2z" fill="#E1E1E1"/>
<path transform="translate(540,1369)" d="m0 0 8 1 4 2-2 6 2-1 5 2 1 4 9 4v2l4 2 9 9 5 1 2 5-5-1-4-3-1 3-6-5-1-4-12-6-5-1-3-4v-2l-6-1-6-5-1-7z" fill="#E1E1E1"/>
<path transform="translate(432,1168)" d="m0 0h6l3 7 5 4v8l4 5 1 10 7 2 1 5v2l6 1 3 6v3l4 1-2 1-1 3-3 1-2-1 1 5-3 2 1-13-3-5h-2l-1 6-5-1 1-2 3 1v-7l-3-1v-4l-5-4v-5l-2-2-1-6-6-1-1-8 1-2-4-1 3-2-5-1-1-3 1-2-2-1z" fill="#E1E1E1"/>
<path transform="translate(270,996)" d="m0 0h19l18 3 15 5v2l6 2 4 4-6-1v-2l-5-2-15-5-12-2h-28l-22 5-16 6-16 8-11 7h-2l2-4 15-9 17-8 15-5 14-3z" fill="#2F2E35"/>
<path transform="translate(1098,483)" d="m0 0 7 1 4 4 1 9-4 5-2 1-9-1-4-5-1-6 3-5z" fill="#9E2F36"/>
<path transform="translate(882,1591)" d="m0 0h3l6 12 2 8-1 1h-20l-1-1 1-7z" fill="#F7F7F7"/>
<path transform="translate(700,863)" d="m0 0 9 5 11 7 15 5 4 1h23l16-5 6-1-4 4-13 5-10 2h-16l-15-4-10-4-13-10-3-3z" fill="#9E2F36"/>
<path transform="translate(917,1591)" d="m0 0h16l3 2-1 4-5 8-4 9-5-1-5-16-1-5z" fill="#F8F8F8"/>
<path transform="translate(887,1589)" d="m0 0h16l5 2v3l-6 8-5 10h-3l-3-12-4-9z" fill="#F8F8F8"/>
<path transform="translate(948,1591)" d="m0 0h15l2 1-2 4-6 7-4 10-3-1-5-12-3-4 2-4z" fill="#F8F8F8"/>
<path transform="translate(408,309)" d="m0 0 2 1 1 18v56l-1 2h-2l-1-21v-48z" fill="#FEC09C"/>
<path transform="translate(274,1528)" d="m0 0 4 1 2 4h8l1 2h-2l-2 4 1 10-6-2-6 3h-3l1-8-6-2 1-3 6-2z" fill="#FD525C"/>
<path transform="translate(345,1124)" d="m0 0h17l1 5h-4l-3-2-5 2-5 3h-9l-3-2-1 3-5 2-4 1-5 2-5 1-11 4 1-3 27-12z" fill="#AC343B"/>
<path transform="translate(496,1521)" d="m0 0 4 2 2 3 8 1-2 4-1 6 2 4-8-1-7 4h-2l1-8-5-3v-2l7-2z" fill="#FD525C"/>
<path transform="translate(796,606)" d="m0 0 7 1 13 3 21 1-3 3-9 3h-15l-13-4-2-1z" fill="#FD525C"/>
<path transform="translate(418,264)" d="m0 0h2l8 15 1 4-7 2h-7l-6-3 3-8z" fill="#FD525C"/>
<path transform="translate(1200,1309)" d="m0 0 1 4-3 16v2l26-4 90-15h3l1-3 1 4-1 1-109 18-8 2h-8z" fill="#E1E1E1"/>
<path transform="translate(428,308)" d="m0 0 2 2v76h-3v-73z" fill="#FEC09C"/>
<path transform="translate(910,1595)" d="m0 0h3l5 10 2 7-1 1h-16l-3-3 6-10z" fill="#F8F8F8"/>
<path transform="translate(401,963)" d="m0 0h5l-1 3-21 5-19 9-13 11-8 8-4 9h-3l1-5 10-13 11-10 16-9 16-6z" fill="#3B2E35"/>
<path transform="translate(274,994)" d="m0 0h19l16 1 2-1 13 8 1 3-9-2-14-4-13-2h-19l-18 3-7 2-4-1 18-5z" fill="#E1E1E1"/>
<path transform="translate(896,699)" d="m0 0 2 1-15 15-6 9-5 12-4 14-1 12h-2l-1-8 2-14 5-13 6-10 9-10z" fill="#9E2F36"/>
<path transform="translate(331,1695)" d="m0 0 2 1-1 2 5 1 34 23-1 3-4-1-29-19-5-3-7-1 4-5z" fill="#FDBF9F"/>
<path transform="translate(772,1838)" d="m0 0h11l41 3 2 2-1 1h-29l-16-1-9-2z" fill="#F9F9F9"/>
<path transform="translate(148,1261)" d="m0 0 2 1-9 11h2l-2 5h-2l-1 4-3 5-5 3v3h-2l-1 3-3 1-5 7-1-3 4-8 14-19z" fill="#A9333A"/>
<path transform="translate(939,1596)" d="m0 0 5 5 5 10v2h-19l1-6 6-9z" fill="#FAFAFA"/>
<path transform="translate(1055,1222)" d="m0 0 1 3-14 25-12 20-7 10-1-3 11-21 12-20z" fill="#37323A"/>
<path transform="translate(626,1696)" d="m0 0m-2 1 2 1-4 4-8 6-8 7-11 15-8 15-8 24h-1l1-10 7-19 8-14 8-11 10-10z" fill="#3A333A"/>
<path transform="translate(994,1188)" d="m0 0h1l-1 9-12 35-10 24h-2l1-5 12-34 9-24z" fill="#333139"/>
<path transform="translate(699,446)" d="m0 0 6 1 3 3-1 5-6 4-3 1h-9l-1-2 7-10z" fill="#FD525C"/>
<path transform="translate(639,428)" d="m0 0 5 1 4 5v13l-4 1-7-7-2-5 1-5z" fill="#FD525C"/>
<path transform="translate(700,444)" d="m0 0 7 1 3 5v5l-3 1v2l-9 4h-12l-4 16-2 4 1-9 2-8v-5l-10-5-4-5 5 1 4 4 6 3 5 1h9l8-4 1-7-8-1-5 3-4 6-1-2 4-6 4-3z" fill="#9E2F36"/>
<path transform="translate(1057,787)" d="m0 0h2l-2 5-3 5h-2l-2 5-11 16-6 9-5 9-5 7-7 14-7 10-2 3h-2l2-4 9-15 1-4h2v-3h2l2-6 7-10 6-10 13-19 7-10z" fill="#E1E1E1"/>
<path transform="translate(109,775)" d="m0 0 3 3 22 43 10 18 7 15h-3l-6-12v-2l-12 2h-5l1-2 13-3-2-5-18-36-10-19z" fill="#53373E"/>
<path transform="translate(324,1683)" d="m0 0 5 2 4 7v3l-4 2-2 3-5-2-6-2 2-8 1-3z" fill="#FD525C"/>
<path transform="translate(392,818)" d="m0 0 3 3 16 29 26 46-2 3-14-26-13-23-16-30z" fill="#4F343B"/>
<path transform="translate(479,1195)" d="m0 0 2 1 1 4v3 5h2v7l-2 4-4 2-5-1-2-5 5 1v-9l-1-9z" fill="#E1E1E1"/>
<path transform="translate(699,670)" d="m0 0 1 4-16 35-7 16-2-1-2 2 1-5 12-26 10-19z" fill="#9A2E35"/>
<path transform="translate(426,1240)" d="m0 0 2 4h16l3 1v3l-2 1-2 4-10 1h-4l-4 1v-4l5-2 2-3-4 1-3-1v-5z" fill="#E1E1E1"/>
<path transform="translate(271,997)" d="m0 0h26l16 4 9 3v2l6 2 4 4-6-1v-2l-5-2-15-5-12-2h-28l-15 3-4-1 16-4z" fill="#952E35"/>
<path transform="translate(615,450)" d="m0 0 4 2 7 9 1 2 4 1v2h-2l3 9 9 19-1 3-15-30h-7l-8-4-3-3v-5l4-4h2l-1 3-2 1 1 5 7 4h6l-6-9-3-3z" fill="#9E2F36"/>
<path transform="translate(1052,1057)" d="m0 0 5 3 7 8 4 5 9 7 4 3-5-1-4-3h-4l-1 2-13-15-4-5z" fill="#F9505A"/>
<path transform="translate(777,1802)" d="m0 0h9l3 1 5-1 4 2-1 5-3 1h-9l-9-1-3-2v-2l4-1z" fill="#E1E1E1"/>
<path transform="translate(358,1140)" d="m0 0 3 1 1 3-1 2h2l-2 6-4-1-1 2-3 2-3 1-2-1-2 5-3 4 1-6 2-11 6 2 4-7z" fill="#A63239"/>
<path transform="translate(415,961)" d="m0 0h26l21 2v2l2 1-16-1-14-1h-11l-17 1 2-3z" fill="#6E3037"/>
<path transform="translate(849,1594)" d="m0 0 4 2 2 7v7h-11l1-9z" fill="#F7F7F7"/>
<path transform="translate(627,1435)" d="m0 0 3 3-3 1 8 3 6 2 2 1v5l-7 1 3-2h2l-2-3-13-2h-17l4-4h5l4 1 1-5z" fill="#E1E1E1"/>
<path transform="translate(675,722)" d="m0 0h1l-1 8-15 32-3 7-1-3 1-5 11-25 4-10h2z" fill="#642E35"/>
<path transform="translate(672,431)" d="m0 0h6l1 2v7l-4 5-4 1-2-2-1-9z" fill="#FD525C"/>
<path transform="translate(337,1126)" d="m0 0 3 1-5 2-2 4-5 2-4 1-5 2-5 1-11 4 1-3 27-12z" fill="#B93941"/>
<path transform="translate(394,1076)" d="m0 0 11 3 3 3h-6l6 8 3 7-1 2-6-11-6-4v-2h-6l-5 2v2h-7l1-2h4v-2l10-4z" fill="#E1E1E1"/>
<path transform="translate(863,527)" d="m0 0h6v2l4 1 3 5-5-1-6-4 1 7-3 3-5-2-1-4 1-2h2l2-4z" fill="#1E2E35"/>
<path transform="translate(673,428)" d="m0 0h5l3 4 1 5-2 5-9 9-2-1-2-6v-11zm-1 3-4 4 1 9 4 2 6-6v-7l-1-2z" fill="#992E35"/>
<path transform="translate(821,507)" d="m0 0 6 1 6 5-1 3-6-4h-2l1 6-1 1h-6l-1-1v-6l2-4z" fill="#232E35"/>
<path transform="translate(650,1831)" d="m0 0h11l12 2-1 3h-18l-12-2v-1l7-1z" fill="#F9F9F9"/>
<path transform="translate(904,1654)" d="m0 0h8l4 4-1 2h-5l-6-2-5 3-4 4-11 1-1 2v-3l5-3 5 1 4-4 2-4z" fill="#E1E1E1"/>
<path transform="translate(845,520)" d="m0 0 2 1-7 8-18 18 6 8-4-2-5-3 1-5 5-6 8-7z" fill="#2E2E35"/>
<path transform="translate(764,1583)" d="m0 0 2 1v2l7 3-3 3-8 3h-4l1-8-2-1z" fill="#9E2F36"/>
<path transform="translate(1200,1309)" d="m0 0 1 4-3 16v2l26-4h5l-2 2-23 4-3 1h-8z" fill="#E1E1E1"/>
<path transform="translate(869,510)" d="m0 0 8 2 6 4 3 6-3 1-3-1v-2l-4-1v-2l-4-1-6-3z" fill="#232E35"/>
<path transform="translate(972,1591)" d="m0 0h15l6 3 5 4 6 10 1 4-3-1-6-10-6-5-5-2h-14z" fill="#343239"/>
<path transform="translate(1181,645)" d="m0 0 2 1-5 5-5 4-5 5-6 5-15 15-4 2 2-4 10-9 2-3h2v-2l15-12 5-5z" fill="#E1E1E1"/>
<path transform="translate(797,1672)" d="m0 0h3l1 3-7 17-5 4 3-12 4-11z" fill="#FEC3A2"/>
<path transform="translate(587,1409)" d="m0 0 10 2-1 6 3 4-5-1-4-2-3-3-5-1-1-2z" fill="#E1E1E1"/>
<path transform="translate(439,1588)" d="m0 0h6l1 2-1 7-3 1v2l-4-2-3-4 1-4z" fill="#FD525C"/>
<path transform="translate(422,388)" d="m0 0h13l6 1v1l-15 2h-14l-9-2v-1z" fill="#9E2F36"/>
<path transform="translate(767,1645)" d="m0 0v3l-10 9-14 8-8 4-2-1 5-4 15-8 5-4h2v-2z" fill="#2C2F36"/>
<path transform="translate(359,982)" d="m0 0 2 1-13 12-5 6-3 7h-3l1-5 10-13 7-6z" fill="#7C2E35"/>
<path transform="translate(1225,609)" d="m0 0 2 1-11 9-14 11-10 9h-2v2l-5 4-2-1 5-5 9-8 14-11z" fill="#E1E1E1"/>
<path transform="translate(660,1684)" d="m0 0 2 1-1 2-21 6-13 6-2-1 5-4 15-6z" fill="#3A333A"/>
<path transform="translate(778,1632)" d="m0 0h14l2 3-1 1h-14l-9 1-1-3z" fill="#9C2E35"/>
<path transform="translate(733,1666)" d="m0 0 2 1-5 4-18 6-10 2 1-3 23-7z" fill="#3E3239"/>
<path transform="translate(392,818)" d="m0 0 3 3 16 29 6 11h-3l-15-28-7-13z" fill="#66363E"/>
<path transform="translate(1113,512)" d="m0 0h6l2 3v5l-3 2-5-1-2-2 1-6z" fill="#9E2F36"/>
<path transform="translate(826,1842)" d="m0 0 21 2 13 1-1 2h-11l-31-2v-1l8-1z" fill="#F1F1F1"/>
<path transform="translate(827,495)" d="m0 0 7 1 4 2 2 3v3l-6-1-10-5z" fill="#1E2E35"/>
<path transform="translate(465,952)" d="m0 0h3l8 14v2l-7-1-7-2v-1h9z" fill="#45333A"/>
<path transform="translate(413,1250)" d="m0 0h3v6l1 4-1 4-2 5h-1l-2-12z" fill="#E1E1E1"/>
<path transform="translate(1096,1073)" d="m0 0 6 4 2 4h2l7 12 1 6-3-3-8-13-7-8z" fill="#1B2E35"/>
<path transform="translate(298,998)" d="m0 0 9 1 15 5v2l6 2 4 4-6-1v-2l-5-2-15-5-5-1v-2z" fill="#823138"/>
<path transform="translate(840,563)" d="m0 0 2 1-2 4-5 4-2 1h-6l-4-2v-2l10-1 6-4z" fill="#2E2F36"/>
<path transform="translate(588,1736)" d="m0 0 3 1-7 16-5 16h-1l1-10 7-19z" fill="#A7444D"/>
<path transform="translate(1060,1049)" d="m0 0 5 2 10 8 5 5-4-2-13-7h-3l-1-5z" fill="#FB515B"/>
<path transform="translate(638,805)" d="m0 0h1v6l-11 23-1 3h-2l3-9z" fill="#5C2E35"/>
<path transform="translate(794,1582)" d="m0 0h5l3 4-2 4-5 1-3-5z" fill="#FDEDE9"/>
<path transform="translate(459,1163)" d="m0 0 3 1 3 4 2 7-5 1-1-4-1-3-4-2 1-3z" fill="#E1E1E1"/>
<path transform="translate(675,722)" d="m0 0h1l-1 8-4 8h-2l-2 6-3 3 3-9 5-12h2z" fill="#3D2E35"/>
<path transform="translate(1131,943)" d="m0 0 6 1 13 8 10 9 1 2-4-2-10-8-16-9z" fill="#1B2E35"/>
<path transform="translate(780,1610)" d="m0 0h5l-1 3-15 5h-3l1-3z" fill="#9E2F36"/>
<path transform="translate(124,840)" d="m0 0 2 1v2l-23 6 2-4z" fill="#40343B"/>
<path transform="translate(844,1430)" d="m0 0 5 1 1 3-3 5-5-1v-6z" fill="#FDE4D9"/>
<path transform="translate(401,963)" d="m0 0h5l-1 3-21 5-5 1 4-3 12-4z" fill="#8B2F36"/>
<path transform="translate(415,961)" d="m0 0 19 1v1l-22 2h-6l2-3z" fill="#9B3138"/>
<path transform="translate(781,1649)" d="m0 0 8 1 1 3h-18l-1-3z" fill="#9E2F36"/>
<path transform="translate(214,1014)" d="m0 0h5l-3 3-14 8-3 1 2-4z" fill="#532E35"/>
<path transform="translate(485,1345)" d="m0 0 9 2 1 3-3 2-1 3-1-3h-3l-3-3z" fill="#E1E1E1"/>
<path transform="translate(602,1717)" d="m0 0v3l-11 16h-2l2-5 7-11z" fill="#52363E"/>
<path transform="translate(298,795)" d="m0 0h2v2l-16 7-5 3-2-1 5-4z" fill="#242F36"/>
<path transform="translate(873,1838)" d="m0 0 1 3-4 6h-11l1-2 7-2z" fill="#FAFAFA"/>
<path transform="translate(751,1657)" d="m0 0m-1 1m-2 1h2l-1 3-14 7-2-1 5-4z" fill="#272E35"/>
<path transform="translate(457,1253)" d="m0 0h2v3h2l5 6h-6v-2l-5-1 1-4z" fill="#E1E1E1"/>
<path transform="translate(457,937)" d="m0 0 4 2 6 11v2h-3l-7-13z" fill="#55343C"/>
<path transform="translate(148,1261)" d="m0 0 2 1-9 11-6 4 2-4z" fill="#C03B43"/>
<path transform="translate(208,1209)" d="m0 0 2 4-2 3h-3l-1 2-5-2-2-3 1-3h2v4l3 1v-3h4z" fill="#FEC09C"/>
<path transform="translate(1318,1309)" d="m0 0 1 4-1 1-19 3-4-1 13-3 9-1z" fill="#DCD8D9"/>
<path transform="translate(816,1725)" d="m0 0h4l-1 5-5 1-3 1 2-5z" fill="#E1E1E1"/>
<path transform="translate(675,1681)" d="m0 0 2 1 1 2-17 3 1-3z" fill="#4F363E"/>
<path transform="translate(470,1180)" d="m0 0 6 1 2 5-1 2-4-1-3-5z" fill="#E1E1E1"/>
<path transform="translate(436,897)" d="m0 0 3 3 7 13-4-1-6-11z" fill="#4A343C"/>
<path transform="translate(171,1220)" d="m0 0 2 1 1 18-2-1-1-5z" fill="#FEC09C"/>
<path transform="translate(646,1145)" d="m0 0h1v12l-1 13h-1l-1-18z" fill="#E1E1E1"/>
<path transform="translate(656,764)" d="m0 0 1 2-2 8-2 4h-2l-1 3-1-2 6-14z" fill="#402E35"/>
<path transform="translate(774,1665)" d="m0 0h15l-1 2-14 2z" fill="#9E2F36"/>
<path transform="translate(837,1461)" d="m0 0h4l-2 4-7 4-1-3 4-4z" fill="#9E2F36"/>
<path transform="translate(536,1359)" d="m0 0h14l8 1-1 3-6 1 1-2-16-2z" fill="#E1E1E1"/>
<path transform="translate(1052,1059)" d="m0 0 4 2 4 9-4-2-5-6z" fill="#B73840"/>
<path transform="translate(1173,974)" d="m0 0 7 6 8 9-1 2-7-7-7-8z" fill="#1B2E35"/>
<path transform="translate(439,1256)" d="m0 0 3 1 1 4-1 2h-5l-1-3 1-3z" fill="#E1E1E1"/>
<path transform="translate(239 1e3)" d="m0 0h8l-3 2-12 4h-2l1-3z" fill="#652E35"/>
<path transform="translate(838,1477)" d="m0 0 3 1-1 3-9 1v-3z" fill="#A03037"/>
<path transform="translate(626,1696)" d="m0 0m-2 1 2 1-4 4-9 6 2-4 4-4z" fill="#46333B"/>
<path transform="translate(479,1257)" d="m0 0 2 4h-9l-2 1-2-2 1-2h9z" fill="#E1E1E1"/>
<path transform="translate(662,753)" d="m0 0 1 3-6 13-1-3 1-5 3-5z" fill="#6C2E35"/>
<path transform="translate(383,1236)" d="m0 0 4 1v5l-6-1v-4z" fill="#FD525C"/>
<path transform="translate(1173,557)" d="m0 0 4 1-1 6-4-1-1-5z" fill="#FD525C"/>
<path transform="translate(799,1583)" d="m0 0 3 3-2 4-5 1 2-6h2z" fill="#FEC6AA"/>
<path transform="translate(421,1758)" d="m0 0 5 2 7 5-3 1-9-6z" fill="#FD525C"/>
<path transform="translate(342,999)" d="m0 0 1 2-3 7h-3l1-5z" fill="#9D333B"/>
<path transform="translate(272,467)" d="m0 0 4 1-1 6-4-1-1-4z" fill="#FD525C"/>
<path transform="translate(793,1685)" d="m0 0 2 4-3 5-3 2 2-9h2z" fill="#F9D4C8"/>
<path transform="translate(660,1684)" d="m0 0 2 1-1 2-8 2-4-1 7-3z" fill="#343239"/>
<path transform="translate(749,1589)" d="m0 0h3l1 7-5-2-1-4z" fill="#FCF2EE"/>
<path transform="translate(1107,1545)" d="m0 0 4 1v4l-4 1-2-1z" fill="#F9505A"/>
<path transform="translate(644,794)" d="m0 0 1 3-5 11h-1v-6l2-4h2z" fill="#772E35"/>
<path transform="translate(431,887)" d="m0 0 4 5 2 5-2 2-5-9z" fill="#63363E"/>
<path transform="translate(102,846)" d="m0 0 2 1-3 3-9 2 2-3z" fill="#232F36"/>
<path transform="translate(112,843)" d="m0 0 2 1v2l-11 3 2-4z" fill="#46343C"/>
</svg>
