<?xml version="1.0" encoding="UTF-8"?>
<svg version="1.1" xmlns="http://www.w3.org/2000/svg" width="455" height="384">
<path d="M0 0 C150.15 0 300.3 0 455 0 C455 126.72 455 253.44 455 384 C304.85 384 154.7 384 0 384 C0 257.28 0 130.56 0 0 Z " fill="#EDF1FD" transform="translate(0,0)"/>
<path d="M0 0 C1.67542976 0.28604898 3.34385343 0.61781233 5 1 C5 2.98 5 4.96 5 7 C6.485 6.7525 6.485 6.7525 8 6.5 C12.02732942 5.91525483 15.93474623 5.92867976 20 6 C16.92590705 11.82163389 13.74297917 17.56735327 10.3125 23.1875 C9.75175781 24.10917969 9.19101562 25.03085938 8.61328125 25.98046875 C8.08089844 26.64691406 7.54851563 27.31335938 7 28 C6.01 28 5.02 28 4 28 C3.3291288 26.3767313 2.66342971 24.75132422 2 23.125 C1.62875 22.22007813 1.2575 21.31515625 0.875 20.3828125 C0 18 0 18 0 16 C-4.79795085 18.29539272 -6.44538491 20.99968384 -8.8125 25.6875 C-9.12380859 26.29400391 -9.43511719 26.90050781 -9.75585938 27.52539062 C-10.51608584 29.01075619 -11.25975462 30.50457634 -12 32 C-12.66 32 -13.32 32 -14 32 C-14.19916016 33.17369141 -14.19916016 33.17369141 -14.40234375 34.37109375 C-14.57894531 35.38300781 -14.75554688 36.39492187 -14.9375 37.4375 C-15.11152344 38.44683594 -15.28554688 39.45617187 -15.46484375 40.49609375 C-16 43 -16 43 -17 44 C-17.15980437 46.44608998 -17.25929447 48.86731058 -17.31640625 51.31640625 C-17.33718735 52.04746078 -17.35796844 52.77851532 -17.37937927 53.53172302 C-17.44495024 55.87521656 -17.50379432 58.21882539 -17.5625 60.5625 C-17.60567808 62.14779855 -17.64929213 63.73308529 -17.69335938 65.31835938 C-17.8006392 69.21212037 -17.9018849 73.10599772 -18 77 C-17.04915527 76.9788916 -16.09831055 76.9577832 -15.11865234 76.93603516 C-10.46262523 77.03153219 -9.21991612 78.78008388 -6 82 C-6 82.66 -6 83.32 -6 84 C35.25 83.67 76.5 83.34 119 83 C118.34 82.01 117.68 81.02 117 80 C117 79.01 117 78.02 117 77 C116.195625 77.020625 115.39125 77.04125 114.5625 77.0625 C112 77 112 77 111 76 C110.92794489 74.31391034 110.91613932 72.62499341 110.9375 70.9375 C110.94652344 70.01839844 110.95554688 69.09929687 110.96484375 68.15234375 C110.98224609 67.08693359 110.98224609 67.08693359 111 66 C113.475 65.505 113.475 65.505 116 65 C116 63.68 116 62.36 116 61 C122.27 61 128.54 61 135 61 C135.12375 63.660625 135.2475 66.32125 135.375 69.0625 C135.45693604 70.29818726 135.45693604 70.29818726 135.54052734 71.55883789 C135.69843269 78.6484484 134.25130434 78.87347827 129 85 C159.03 85 189.06 85 220 85 C219.01372677 89.93136614 218.54465758 91.64689566 215 95 C211.97558594 95.56762695 211.97558594 95.56762695 208.484375 95.48828125 C207.23398437 95.47216797 205.98359375 95.45605469 204.6953125 95.43945312 C203.39335937 95.39755859 202.09140625 95.35566406 200.75 95.3125 C199.43257812 95.28994141 198.11515625 95.26738281 196.7578125 95.24414062 C193.50406596 95.18519594 190.25260329 95.10295053 187 95 C186.67 96.65 186.34 98.3 186 100 C185.01 100 184.02 100 183 100 C183.19110352 100.78947021 183.38220703 101.57894043 183.57910156 102.39233398 C184.14842145 104.74514606 184.71713532 107.09810481 185.28540039 109.45117188 C185.92935758 112.11614049 186.57742017 114.78006657 187.22827148 117.44335938 C188.61273953 123.12510278 189.9923757 128.80048966 191.14453125 134.53515625 C191.30469727 135.30738525 191.46486328 136.07961426 191.62988281 136.87524414 C192.03214429 138.85091098 192.40967249 140.83156948 192.78515625 142.8125 C194.39105729 147.02605384 196.37269359 148.40133272 200 151 C200.04125 149.7625 200.0825 148.525 200.125 147.25 C201.07341959 139.01304086 204.99545615 131.44336787 211 125.75 C213.76015516 123.56730533 214.85357594 123.02129804 218.4375 122.5 C221 123 221 123 222 124 C222.55244368 131.33050271 222.58936163 137.5115386 219 144 C217.21712755 147.28423872 217 147.9923024 217 152 C217.44730469 151.60167969 217.89460938 151.20335937 218.35546875 150.79296875 C225.99637319 144.09699492 232.62484069 140.31966168 243 141 C246 143 246 143 246.625 145.625 C245.67128556 150.77505798 242.8596186 153.57882344 239 157 C236.23088858 158.87635938 233.40514512 160.60696269 230.53515625 162.32421875 C227.24116715 164.50160137 225.26600093 166.79634351 223 170 C224.32 170.33 225.64 170.66 227 171 C227.20288482 178.65702335 226.60152288 186.08883219 225.6875 193.6875 C225.56955078 194.77611328 225.45160156 195.86472656 225.33007812 196.98632812 C225.14155273 198.57670898 225.14155273 198.57670898 224.94921875 200.19921875 C224.83924561 201.14627686 224.72927246 202.09333496 224.6159668 203.0690918 C224 206 224 206 221 213 C211.76 213 202.52 213 193 213 C191.47293436 209.1823359 190.74059594 207.22068426 190.4375 203.3828125 C190.32535156 202.10083984 190.32535156 202.10083984 190.2109375 200.79296875 C190.10652344 199.47232422 190.10652344 199.47232422 190 198.125 C189.52202062 192.13255483 188.71558219 186.7892074 187 181 C186.76953125 178.1640625 186.76953125 178.1640625 186.8125 175.625 C186.82216797 174.34496094 186.82216797 174.34496094 186.83203125 173.0390625 C187 171 187 171 188 170 C189.66617115 169.95936168 191.33388095 169.957279 193 170 C192.34644531 169.27296875 192.34644531 169.27296875 191.6796875 168.53125 C178.35317073 153.53170732 178.35317073 153.53170732 177.6875 146.875 C177.790625 145.92625 177.89375 144.9775 178 144 C181 142 181 142 185 142 C182.50683753 132.61516891 179.76093265 123.30859901 177 114 C175.1253146 116.8120281 174.48630711 118.464468 173.7109375 121.66796875 C173.49179688 122.56064453 173.27265625 123.45332031 173.046875 124.37304688 C172.82515625 125.30181641 172.6034375 126.23058594 172.375 127.1875 C172.14554688 128.12787109 171.91609375 129.06824219 171.6796875 130.03710938 C171.11447431 132.35683851 170.55480075 134.67776258 170 137 C169.34 137 168.68 137 168 137 C167.93941406 137.63808594 167.87882813 138.27617187 167.81640625 138.93359375 C167.73261719 139.75988281 167.64882812 140.58617187 167.5625 141.4375 C167.44068359 142.67306641 167.44068359 142.67306641 167.31640625 143.93359375 C167 146 167 146 166 147 C165.69309451 148.36740071 165.43117601 149.74492837 165.1875 151.125 C164.05547579 157.05955114 162.48722992 162.85448322 160.90234375 168.6796875 C160.24055008 171.114859 159.59745717 173.54857781 159 176 C165.65551466 177.28134207 172.25390382 178.33644956 179 179 C179 179.66 179 180.32 179 181 C175.7 181.99 172.4 182.98 169 184 C169 184.66 169 185.32 169 186 C168.18015625 186.33773437 167.3603125 186.67546875 166.515625 187.0234375 C165.43796875 187.46945312 164.3603125 187.91546875 163.25 188.375 C162.18265625 188.81585938 161.1153125 189.25671875 160.015625 189.7109375 C158.23238281 190.47320424 156.46383841 191.27502589 154.73828125 192.16015625 C153 193 153 193 150.9375 193.0625 C147.71221606 191.2937959 147.19094793 188.34599657 146 185 C145.65298448 183.670162 145.31593637 182.33756237 145 181 C145.54269531 180.74089844 146.08539063 180.48179687 146.64453125 180.21484375 C150.71346498 177.81747198 152.658572 176.06681482 154.12890625 171.47265625 C154.66968358 168.87208226 155.04968164 166.28953001 155.4296875 163.65625 C156 160 156 160 156.953125 157.1484375 C158.37331161 152.87727927 159.08584994 148.54977685 159.875 144.125 C161.919502 133.04377986 164.38670244 122.15867359 167.6875 111.375 C169.32361458 106.27726342 169.32361458 106.27726342 170 101 C168.14567913 98.72855926 168.14567913 98.72855926 166 97 C166 96.34 166 95.68 166 95 C150.49 95 134.98 95 119 95 C121.475 101.435 121.475 101.435 124 108 C124.515625 109.44375 125.03125 110.8875 125.5625 112.375 C126.61693508 115.03401021 127.62837834 117.1996472 129.0625 119.625 C130.87185575 122.77678099 131.89839375 125.55748046 133 129 C133.9666095 131.26750479 134.97671457 133.51147215 136 135.75390625 C137.06521961 138.14648935 138.03498226 140.56535601 139 143 C143.65635355 154.71444571 143.65635355 154.71444571 149.11328125 166.0625 C150 168 150 168 150 171 C148.75823305 171.70226141 147.50614401 172.38629109 146.25 173.0625 C145.55390625 173.44535156 144.8578125 173.82820312 144.140625 174.22265625 C141.53399683 175.16922378 140.57437649 174.95425767 138 174 C136.51123047 172.53222656 136.51123047 172.53222656 135.1171875 170.640625 C134.59471436 169.94340332 134.07224121 169.24618164 133.53393555 168.52783203 C132.71276245 167.40030518 132.71276245 167.40030518 131.875 166.25 C130.71252467 164.6898917 129.54976142 163.1299979 128.38671875 161.5703125 C127.81356934 160.79461914 127.24041992 160.01892578 126.64990234 159.21972656 C124.37166458 156.15465734 122.03146797 153.13986451 119.6875 150.125 C115.93667355 145.25625622 112.2834588 140.32672255 108.69140625 135.33984375 C107.58471979 133.80888489 106.44737971 132.29951306 105.27734375 130.81640625 C104 129 104 129 104 127 C102.68 126.67 101.36 126.34 100 126 C99.90058105 126.62293945 99.80116211 127.24587891 99.69873047 127.88769531 C98.32510796 135.98251887 96.28479254 143.833437 94.125 151.75 C93.61646484 153.63332031 93.61646484 153.63332031 93.09765625 155.5546875 C92.413444 158.08861424 91.72806208 160.62222545 91.04150391 163.15551758 C89.97248757 167.1015561 88.90444659 171.04781133 87.84375 174.99609375 C87.52857422 176.1658374 87.21339844 177.33558105 86.88867188 178.54077148 C85.70098313 183.16394779 84.68778897 187.81663273 83.7109375 192.48828125 C83 195 83 195 81 197 C77.9609375 197.1953125 77.9609375 197.1953125 74.375 197.125 C73.18648438 197.10695313 71.99796875 197.08890625 70.7734375 197.0703125 C69.85820313 197.04710937 68.94296875 197.02390625 68 197 C67.94489266 194.87530607 67.90671898 192.75017176 67.875 190.625 C67.85179688 189.44164062 67.82859375 188.25828125 67.8046875 187.0390625 C67.87340932 183.12633672 68.67679778 179.48786172 69.49658203 175.67285156 C70.37547804 171.00643376 70.65822683 166.29352679 71 161.5625 C71.48213269 154.91531868 72.22513363 148.47925335 73.48730469 141.93481445 C74.47798027 136.26390437 75.02034747 130.53510426 75.625 124.8125 C75.7590625 123.57435547 75.893125 122.33621094 76.03125 121.06054688 C76.35771694 118.04072769 76.68056286 115.02056947 77 112 C75.78763672 112.23082275 75.78763672 112.23082275 74.55078125 112.46630859 C66.25909433 113.97879421 58.03762142 114.28062197 49.625 114.375 C48.50818848 114.40078125 47.39137695 114.4265625 46.24072266 114.453125 C38.71406547 114.47113944 33.03949562 113.56263471 27.28759766 108.48974609 C26 107 26 107 26 105 C24.515 104.505 24.515 104.505 23 104 C21.95888271 101.05480723 21.56463316 98.08376572 21 95 C17.04 95 13.08 95 9 95 C9 95.66 9 96.32 9 97 C8.34 97 7.68 97 7 97 C7 97.66 7 98.32 7 99 C4.41638482 99.05407567 1.83390745 99.093707 -0.75 99.125 C-1.47960938 99.14175781 -2.20921875 99.15851563 -2.9609375 99.17578125 C-6.8044624 99.21072239 -9.74606772 99.17499684 -13 97 C-13 96.34 -13 95.68 -13 95 C-13.76143311 95.02094727 -14.52286621 95.04189453 -15.30737305 95.06347656 C-18.76728032 95.14677795 -22.22697638 95.19870584 -25.6875 95.25 C-26.88568359 95.28351563 -28.08386719 95.31703125 -29.31835938 95.3515625 C-30.47529297 95.36445313 -31.63222656 95.37734375 -32.82421875 95.390625 C-33.88729248 95.41157227 -34.95036621 95.43251953 -36.0456543 95.45410156 C-39.7605674 94.883096 -41.38922017 93.66525082 -44 91 C-44.8125 87.25 -44.8125 87.25 -45 84 C-44.33613281 83.99742187 -43.67226563 83.99484375 -42.98828125 83.9921875 C-40.21296629 83.87064086 -37.70075302 83.66473643 -35 83 C-33.32932867 81.00334402 -31.66247014 79.00348966 -30 77 C-27.79321289 76.71313477 -27.79321289 76.71313477 -25.34765625 76.81640625 C-24.53433838 76.8429126 -23.72102051 76.86941895 -22.88305664 76.89672852 C-22.26164795 76.93080811 -21.64023926 76.9648877 -21 77 C-21.09344448 72.47895877 -21.1995163 67.95845887 -21.31738281 63.43798828 C-21.35570301 61.89965979 -21.39055056 60.36124075 -21.421875 58.82275391 C-21.46746059 56.61327724 -21.5254634 54.40442552 -21.5859375 52.1953125 C-21.59748871 51.50567413 -21.60903992 50.81603577 -21.62094116 50.10549927 C-21.64951022 46.1079846 -21.64951022 46.1079846 -24 43 C-23.625 40.375 -23.625 40.375 -23 38 C-22.38125 37.95875 -21.7625 37.9175 -21.125 37.875 C-20.073125 37.441875 -20.073125 37.441875 -19 37 C-18.32816762 35.00172932 -17.66237637 33.00142499 -17 31 C-15.88533591 29.17552623 -14.71672101 27.38305874 -13.5 25.625 C-10.915749 21.69566754 -9.48649811 18.68971946 -8.66015625 14.12109375 C-7.13276555 9.21356033 -3.64976801 3.64976801 0 0 Z " fill="#ABC2FA" transform="translate(53,85)"/>
<path d="M0 0 C12.46493354 -0.11571489 24.92973988 -0.2046246 37.39510059 -0.25906086 C43.18294522 -0.28518414 48.97042311 -0.32063262 54.75805664 -0.37719727 C60.34070642 -0.43141872 65.9230029 -0.46139994 71.50589561 -0.47438622 C73.6386541 -0.48364379 75.77139267 -0.50172124 77.90400124 -0.52865028 C80.88540458 -0.56480902 83.86533745 -0.56995082 86.84692383 -0.56762695 C87.7338089 -0.58560333 88.62069397 -0.60357971 89.53445435 -0.62210083 C91.80112331 -0.60291143 93.80152707 -0.55178607 96 0 C98.01933289 2.41316223 98.01933289 2.41316223 99 5 C99.2784375 5.64582031 99.556875 6.29164063 99.84375 6.95703125 C100.0603125 7.56933594 100.276875 8.18164062 100.5 8.8125 C100.74878906 9.49828125 100.99757813 10.1840625 101.25390625 10.890625 C101.74359529 12.27508616 102.23066306 13.66047783 102.71484375 15.046875 C103.9274478 18.42905712 105.22616222 21.53043078 107.0625 24.625 C108.87185575 27.77678099 109.89839375 30.55748046 111 34 C111.9666095 36.26750479 112.97671457 38.51147215 114 40.75390625 C115.06521961 43.14648935 116.03498226 45.56535601 117 48 C121.65635355 59.71444571 121.65635355 59.71444571 127.11328125 71.0625 C128 73 128 73 128 76 C126.75823305 76.70226141 125.50614401 77.38629109 124.25 78.0625 C123.55390625 78.44535156 122.8578125 78.82820313 122.140625 79.22265625 C119.53399683 80.16922378 118.57437649 79.95425767 116 79 C114.51123047 77.53222656 114.51123047 77.53222656 113.1171875 75.640625 C112.33347778 74.59479248 112.33347778 74.59479248 111.53393555 73.52783203 C110.98648682 72.77614746 110.43903809 72.02446289 109.875 71.25 C108.71252467 69.6898917 107.54976142 68.1299979 106.38671875 66.5703125 C105.81356934 65.79461914 105.24041992 65.01892578 104.64990234 64.21972656 C102.37166458 61.15465734 100.03146797 58.13986451 97.6875 55.125 C93.93667355 50.25625622 90.2834588 45.32672255 86.69140625 40.33984375 C85.58471979 38.80888489 84.44737971 37.29951306 83.27734375 35.81640625 C82 34 82 34 82 32 C80.68 31.67 79.36 31.34 78 31 C77.90058105 31.62293945 77.80116211 32.24587891 77.69873047 32.88769531 C76.32510796 40.98251887 74.28479254 48.833437 72.125 56.75 C71.61646484 58.63332031 71.61646484 58.63332031 71.09765625 60.5546875 C70.413444 63.08861424 69.72806208 65.62222545 69.04150391 68.15551758 C67.97248757 72.1015561 66.90444659 76.04781133 65.84375 79.99609375 C65.52857422 81.1658374 65.21339844 82.33558105 64.88867188 83.54077148 C63.70098313 88.16394779 62.68778897 92.81663273 61.7109375 97.48828125 C61 100 61 100 59 102 C55.9609375 102.1953125 55.9609375 102.1953125 52.375 102.125 C51.18648437 102.10695313 49.99796875 102.08890625 48.7734375 102.0703125 C47.85820313 102.04710937 46.94296875 102.02390625 46 102 C45.94489266 99.87530607 45.90671898 97.75017176 45.875 95.625 C45.85179687 94.44164062 45.82859375 93.25828125 45.8046875 92.0390625 C45.87340932 88.12633672 46.67679778 84.48786172 47.49658203 80.67285156 C48.37547804 76.00643376 48.65822683 71.29352679 49 66.5625 C49.48213269 59.91531868 50.22513363 53.47925335 51.48730469 46.93481445 C52.47798027 41.26390437 53.02034747 35.53510426 53.625 29.8125 C53.7590625 28.57435547 53.893125 27.33621094 54.03125 26.06054688 C54.35771694 23.04072769 54.68056286 20.02056947 55 17 C54.19175781 17.15388184 53.38351563 17.30776367 52.55078125 17.46630859 C44.25909433 18.97879421 36.03762142 19.28062197 27.625 19.375 C26.50818848 19.40078125 25.39137695 19.4265625 24.24072266 19.453125 C16.71406547 19.47113944 11.03949562 18.56263471 5.28759766 13.48974609 C4 12 4 12 4 10 C3.01 9.67 2.02 9.34 1 9 C0.67 6.03 0.34 3.06 0 0 Z " fill="#4F566C" transform="translate(75,180)"/>
<path d="M0 0 C1.83653611 1.83653611 1.21628138 4.65792133 1.25 7.125 C1.21366754 12.65358891 0.65825675 16.19468973 -2 21 C-3.78287245 24.28423872 -4 24.9923024 -4 29 C-3.55269531 28.60167969 -3.10539062 28.20335937 -2.64453125 27.79296875 C4.99637319 21.09699492 11.62484069 17.31966168 22 18 C25 20 25 20 25.625 22.625 C24.67128556 27.77505798 21.8596186 30.57882344 18 34 C15.23088858 35.87635938 12.40514512 37.60696269 9.53515625 39.32421875 C6.24116715 41.50160137 4.26600093 43.79634351 2 47 C3.32 47.33 4.64 47.66 6 48 C6.20288482 55.65702335 5.60152288 63.08883219 4.6875 70.6875 C4.56955078 71.77611328 4.45160156 72.86472656 4.33007812 73.98632812 C4.20439453 75.04658203 4.07871094 76.10683594 3.94921875 77.19921875 C3.83924561 78.14627686 3.72927246 79.09333496 3.6159668 80.0690918 C3 83 3 83 0 90 C-9.24 90 -18.48 90 -28 90 C-29.52706564 86.1823359 -30.25940406 84.22068426 -30.5625 80.3828125 C-30.63726562 79.52816406 -30.71203125 78.67351562 -30.7890625 77.79296875 C-30.85867187 76.91253906 -30.92828125 76.03210938 -31 75.125 C-31.47797938 69.13255483 -32.28441781 63.7892074 -34 58 C-34.23046875 55.1640625 -34.23046875 55.1640625 -34.1875 52.625 C-34.18105469 51.77164063 -34.17460937 50.91828125 -34.16796875 50.0390625 C-34 48 -34 48 -33 47 C-31.33382885 46.95936168 -29.66611905 46.957279 -28 47 C-28.43570313 46.5153125 -28.87140625 46.030625 -29.3203125 45.53125 C-42.8025634 30.35642214 -42.8025634 30.35642214 -43.1875 23.8125 C-43 21 -43 21 -42 20 C-39.8203125 19.796875 -39.8203125 19.796875 -37.125 19.75 C-36.24070313 19.72421875 -35.35640625 19.6984375 -34.4453125 19.671875 C-31.53090875 20.06294515 -30.85525614 20.80298615 -29 23 C-27.35178756 24.03013277 -25.68496298 25.03114628 -24 26 C-23.01 26.66 -22.02 27.32 -21 28 C-20.95875 26.7625 -20.9175 25.525 -20.875 24.25 C-19.92658041 16.01304086 -16.00454385 8.44336787 -10 2.75 C-6.66074621 0.10936169 -4.33184552 -0.84523815 0 0 Z " fill="#1DCDA4" transform="translate(274,208)"/>
<path d="M0 0 C2.86351489 0.59774359 5.72524124 1.19892775 8.58203125 1.828125 C9.34902344 1.96347656 10.11601562 2.09882812 10.90625 2.23828125 C15.9272327 3.22335024 18.28526144 4.99674387 21.58203125 8.828125 C22.51015625 9.715 23.43828125 10.601875 24.39453125 11.515625 C26.58203125 13.828125 26.58203125 13.828125 26.58203125 15.828125 C27.24203125 15.828125 27.90203125 15.828125 28.58203125 15.828125 C28.60887804 18.47402514 28.62879482 21.11965596 28.64453125 23.765625 C28.65291016 24.52037109 28.66128906 25.27511719 28.66992188 26.05273438 C28.67855566 27.97806813 28.63427458 29.90348081 28.58203125 31.828125 C27.58203125 32.828125 27.58203125 32.828125 23.88842773 32.94165039 C22.24331833 32.94149124 20.59820394 32.93579488 18.953125 32.92578125 C17.65677879 32.92365883 17.65677879 32.92365883 16.33424377 32.92149353 C13.56263833 32.91587739 10.79111245 32.90332219 8.01953125 32.890625 C6.14518345 32.88561208 4.2708344 32.88104881 2.39648438 32.87695312 C-2.20836419 32.86590272 -6.81315296 32.8486273 -11.41796875 32.828125 C-11.56234375 31.69375 -11.70671875 30.559375 -11.85546875 29.390625 C-12.02968353 26.02035299 -12.02968353 26.02035299 -13.41796875 24.828125 C-16.01156197 24.73960971 -18.57836566 24.71286555 -21.171875 24.73046875 C-21.94732162 24.7318837 -22.72276825 24.73329865 -23.52171326 24.73475647 C-26.00800369 24.74037155 -28.49420535 24.75292654 -30.98046875 24.765625 C-32.66210808 24.77063806 -34.34374881 24.7752013 -36.02539062 24.77929688 C-40.15631204 24.78949668 -44.28704057 24.80906895 -48.41796875 24.828125 C-48.74796875 30.108125 -49.07796875 35.388125 -49.41796875 40.828125 C-53.15444845 39.89400507 -56.0269646 38.60069535 -59.41796875 36.828125 C-58.54296875 30.078125 -58.54296875 30.078125 -57.41796875 27.828125 C-56.75796875 27.828125 -56.09796875 27.828125 -55.41796875 27.828125 C-55.37671875 26.879375 -55.33546875 25.930625 -55.29296875 24.953125 C-54.35426892 18.53867614 -50.49015764 12.11916861 -45.48046875 8.015625 C-37.9644658 3.31812316 -27.264966 -0.36281694 -18.41796875 0.828125 C-17.42796875 1.488125 -16.43796875 2.148125 -15.41796875 2.828125 C-12.90900189 3.28413761 -12.90900189 3.28413761 -10.23046875 3.453125 C-9.32941406 3.52789062 -8.42835937 3.60265625 -7.5 3.6796875 C-6.81292969 3.72867188 -6.12585938 3.77765625 -5.41796875 3.828125 C-5.41796875 3.168125 -5.41796875 2.508125 -5.41796875 1.828125 C-2.41796875 -0.171875 -2.41796875 -0.171875 0 0 Z " fill="#A85299" transform="translate(128.41796875,86.171875)"/>
<path d="M0 0 C6.60166847 -0.15225192 13.20288369 -0.257257 19.8059082 -0.32958984 C22.05152301 -0.35974538 24.29702021 -0.40067698 26.54223633 -0.45263672 C29.77194229 -0.52550334 33.00009025 -0.55946915 36.23046875 -0.5859375 C37.23272995 -0.61690521 38.23499115 -0.64787292 39.2676239 -0.67977905 C46.03411059 -0.68303919 46.03411059 -0.68303919 48.7796936 1.25852966 C51.23902291 4.02152198 52.00725441 5.61324921 51.9375 9.33203125 C51.628125 10.48058594 51.31875 11.62914062 51 12.8125 C50.67902344 14.05128906 50.35804688 15.29007813 50.02734375 16.56640625 C49.04580202 19.84692023 47.98601644 23.07181332 46.828125 26.29296875 C44.75732869 33.06212839 43.47051187 40.08038322 42 47 C27.12643678 48.49425287 27.12643678 48.49425287 20 47 C16.36035065 43.9878764 14.83754098 38.29680634 13 34 C12.31402564 32.47847792 11.62655517 30.95762935 10.9375 29.4375 C9.68640679 26.63349343 8.54330661 23.82492153 7.5 20.9375 C6.50152776 18.17669698 5.32317617 15.64977728 3.9375 13.0625 C2.42571104 10.15177069 1.54335689 7.45612862 0.87890625 4.24609375 C0.71076416 3.44743896 0.54262207 2.64878418 0.36938477 1.82592773 C0.24748779 1.22337158 0.12559082 0.62081543 0 0 Z " fill="#F3F5FC" transform="translate(172,180)"/>
<path d="M0 0 C6.22964615 -0.02529951 12.45927912 -0.04284549 18.68896484 -0.05493164 C20.80941259 -0.05996872 22.92985685 -0.06679859 25.05029297 -0.07543945 C28.09343322 -0.08753234 31.13652766 -0.09323447 34.1796875 -0.09765625 C35.13181122 -0.10281754 36.08393494 -0.10797882 37.06491089 -0.11329651 C37.94567291 -0.11337204 38.82643494 -0.11344757 39.73388672 -0.11352539 C40.89970779 -0.11685631 40.89970779 -0.11685631 42.08908081 -0.12025452 C44 0 44 0 46 1 C46.07415168 5.78715623 46.12860204 10.57397827 46.16479492 15.36157227 C46.17988243 16.99021223 46.20035506 18.61881156 46.22631836 20.24731445 C46.26270449 22.58815535 46.2797262 24.92845919 46.29296875 27.26953125 C46.30845261 27.99775589 46.32393646 28.72598053 46.33988953 29.47627258 C46.34157625 34.5416566 46.34157625 34.5416566 44.73898315 36.6920929 C42.60099435 38.30009625 41.49072151 38.37954343 38.83569336 38.38818359 C38.00150375 38.39764008 37.16731415 38.40709656 36.30784607 38.4168396 C35.4109053 38.41076691 34.51396454 38.40469421 33.58984375 38.3984375 C32.66659805 38.40130768 31.74335236 38.40417786 30.79212952 38.40713501 C28.84114976 38.40917612 26.89014957 38.40364299 24.93920898 38.39111328 C21.94533809 38.37504208 18.95281352 38.39096977 15.95898438 38.41015625 C14.06510118 38.40817418 12.17121882 38.40433127 10.27734375 38.3984375 C8.92889626 38.40754654 8.92889626 38.40754654 7.5532074 38.4168396 C6.72216995 38.40738312 5.89113251 38.39792664 5.03491211 38.38818359 C4.30227646 38.38579681 3.56964081 38.38341003 2.81480408 38.38095093 C1 38 1 38 -1 35 C-1.18329901 32.48115842 -1.25630624 30.07591097 -1.23046875 27.55859375 C-1.23001053 26.83511246 -1.22955231 26.11163116 -1.2290802 25.3662262 C-1.22606248 23.83894203 -1.21819051 22.3116608 -1.20581055 20.78442383 C-1.18754104 18.44276062 -1.18530102 16.10149271 -1.18554688 13.75976562 C-1.18063191 12.27603824 -1.17480369 10.79231353 -1.16796875 9.30859375 C-1.16685593 8.60649277 -1.1657431 7.90439178 -1.16459656 7.18101501 C-1.11608638 2.23217276 -1.11608638 2.23217276 0 0 Z " fill="#FAFDFD" transform="translate(158,94)"/>
<path d="M0 0 C0.82290527 0.00202423 1.64581055 0.00404846 2.49365234 0.00613403 C3.33331543 0.00517731 4.17297852 0.00422058 5.03808594 0.00323486 C6.81689529 0.00255306 8.59570712 0.00440737 10.37451172 0.00857544 C13.10699011 0.01392371 15.83930411 0.00863048 18.57177734 0.00222778 C20.29573604 0.00288856 22.01969464 0.00416973 23.74365234 0.00613403 C24.56655762 0.0041098 25.38946289 0.00208557 26.23730469 0 C32.0037018 0.02399599 32.0037018 0.02399599 33.11865234 1.13894653 C33.71089242 8.71338544 32.7093981 16.31737364 31.80615234 23.82644653 C31.68820312 24.91505981 31.57025391 26.0036731 31.44873047 27.12527466 C31.32304687 28.18552856 31.19736328 29.24578247 31.06787109 30.33816528 C30.95789795 31.28522339 30.8479248 32.23228149 30.73461914 33.20803833 C30.11865234 36.13894653 30.11865234 36.13894653 27.11865234 43.13894653 C17.87865234 43.13894653 8.63865234 43.13894653 -0.88134766 43.13894653 C-2.4084133 39.32128243 -3.14075171 37.35963079 -3.44384766 33.52175903 C-3.51861328 32.6671106 -3.59337891 31.81246216 -3.67041016 30.93191528 C-3.74001953 30.0514856 -3.80962891 29.17105591 -3.88134766 28.26394653 C-4.35932703 22.27150136 -5.16576546 16.92815393 -6.88134766 11.13894653 C-7.11181641 8.30300903 -7.11181641 8.30300903 -7.06884766 5.76394653 C-7.06240234 4.91058716 -7.05595703 4.05722778 -7.04931641 3.17800903 C-6.69317381 -1.14539642 -3.65356929 0.01520378 0 0 Z " fill="#4E556B" transform="translate(246.88134765625,254.86105346679688)"/>
<path d="M0 0 C5.28 0.33 10.56 0.66 16 1 C16 2.98 16 4.96 16 7 C16.6856578 9.74825136 17.42459864 12.42051247 18.25 15.125 C20.46673391 22.68663069 22.16614157 30.25702835 23.56738281 38.01025391 C24.46054135 42.81370409 25.7060472 47.299312 27.31298828 51.91186523 C28.26893578 54.81741569 28.83137403 57.742407 29.375 60.75 C32.29015732 75.96681596 36.20826989 90.98209953 40 106 C40.66790667 108.66635834 41.33402313 111.33315869 42 114 C40.02 114.99 40.02 114.99 38 116 C36.14845433 111.93126728 35.45353704 108.10917594 34.875 103.6875 C34.62363281 101.80611328 34.62363281 101.80611328 34.3671875 99.88671875 C34.24601562 98.93410156 34.12484375 97.98148437 34 97 C33.34 97 32.68 97 32 97 C31.67 93.37 31.34 89.74 31 86 C30.34 86 29.68 86 29 86 C23.52843679 70.4568868 19.03616415 54.61820232 15.7890625 38.4609375 C14.64275616 33.43307901 13.15157842 28.51858004 11.62475586 23.59448242 C10.71211419 20.61920757 10 18.13225656 10 15 C9.34 15 8.68 15 8 15 C7.82984375 16.03898437 7.6596875 17.07796875 7.484375 18.1484375 C7.24015637 19.55739111 6.99533167 20.96623977 6.75 22.375 C6.58564453 23.39400391 6.58564453 23.39400391 6.41796875 24.43359375 C5.7012848 28.46965601 4.64472341 32.05459201 3.05078125 35.8359375 C0.81041515 41.18992792 -0.40539431 46.57745492 -1.5625 52.25 C-2.80591884 58.32346494 -4.09157772 63.48025233 -7 69 C-7.62941911 71.27419743 -8.19307606 73.56768829 -8.6875 75.875 C-8.93886719 77.02742188 -9.19023438 78.17984375 -9.44921875 79.3671875 C-9.63097656 80.23601562 -9.81273437 81.10484375 -10 82 C-10.66 82 -11.32 82 -12 82 C-12.268125 83.258125 -12.53625 84.51625 -12.8125 85.8125 C-13.59768423 89.37088809 -14.50632971 92.86941192 -15.5 96.375 C-16.8270445 101.10968138 -17.73113227 105.82875242 -18.47265625 110.6875 C-19 113 -19 113 -21 116 C-22.32 115.67 -23.64 115.34 -25 115 C-25.042721 113.33388095 -25.04063832 111.66617115 -25 110 C-24.505 109.505 -24.505 109.505 -24 109 C-23.52490913 106.98767242 -23.09651416 104.96429082 -22.6875 102.9375 C-21.42562986 96.88052335 -20.00600627 90.88704102 -18.47900391 84.89208984 C-17.4387073 80.79511925 -16.4734244 76.68996536 -15.5625 72.5625 C-14.45874738 67.70836214 -13.12746416 62.95054467 -11.6875 58.1875 C-6.94977096 42.46069606 -3.27163652 26.4175323 0.43945312 10.42285156 C0.63087891 9.60526367 0.82230469 8.78767578 1.01953125 7.9453125 C1.18557861 7.22875488 1.35162598 6.51219727 1.52270508 5.77392578 C2 4 2 4 3 2 C2.01 1.67 1.02 1.34 0 1 C0 0.67 0 0.34 0 0 Z " fill="#BFD2FC" transform="translate(42,183)"/>
<path d="M0 0 C0.33 0.66 0.66 1.32 1 2 C2.98636298 2.70626239 4.98848259 3.36893571 7 4 C9.12109375 4.6796875 9.12109375 4.6796875 11 6 C12.16269422 9.95974164 12.4753551 13.89028158 13 18 C19.27 18.33 25.54 18.66 32 19 C32 28.57 32 38.14 32 48 C27.51492097 48.09194923 23.03312304 48.17153929 18.54785156 48.21972656 C17.02299915 48.23981599 15.49822352 48.26709316 13.97363281 48.30175781 C11.77910402 48.35039796 9.58559531 48.37299396 7.390625 48.390625 C5.4111084 48.4220459 5.4111084 48.4220459 3.39160156 48.45410156 C0 48 0 48 -2.41503906 46.17871094 C-4.37954442 43.47827258 -4.70075939 41.29164667 -5 38 C-5.66 38 -6.32 38 -7 38 C-7.36548223 14.73096447 -7.36548223 14.73096447 -2 4 C-1.34 4 -0.68 4 0 4 C0 2.68 0 1.36 0 0 Z " fill="#F2DDD7" transform="translate(68,121)"/>
<path d="M0 0 C5.94 0 11.88 0 18 0 C18 0.66 18 1.32 18 2 C17.01 2 16.02 2 15 2 C15.19110352 2.7842334 15.38220703 3.5684668 15.57910156 4.37646484 C19.19187227 19.22099624 22.78085501 34.06396704 26 49 C22.125 47.125 22.125 47.125 21 46 C19.65252916 45.76924918 18.29622435 45.58846937 16.9375 45.4375 C15.638125 45.293125 14.33875 45.14875 13 45 C14.98 44.505 14.98 44.505 17 44 C14.50683753 34.61516891 11.76093265 25.30859901 9 16 C7.1253146 18.8120281 6.48630711 20.464468 5.7109375 23.66796875 C5.49179688 24.56064453 5.27265625 25.45332031 5.046875 26.37304688 C4.71429688 27.76620117 4.71429688 27.76620117 4.375 29.1875 C4.14554688 30.12787109 3.91609375 31.06824219 3.6796875 32.03710938 C3.11447431 34.35683851 2.55480075 36.67776258 2 39 C1.34 39 0.68 39 0 39 C-0.09087891 39.95712891 -0.09087891 39.95712891 -0.18359375 40.93359375 C-0.26738281 41.75988281 -0.35117188 42.58617187 -0.4375 43.4375 C-0.51871094 44.26121094 -0.59992188 45.08492187 -0.68359375 45.93359375 C-1 48 -1 48 -2 49 C-2.30690549 50.36740071 -2.56882399 51.74492837 -2.8125 53.125 C-3.94452421 59.05955114 -5.51277008 64.85448322 -7.09765625 70.6796875 C-7.75944992 73.114859 -8.40254283 75.54857781 -9 78 C-2.34448534 79.28134207 4.25390382 80.33644956 11 81 C11 81.66 11 82.32 11 83 C7.7 83.99 4.4 84.98 1 86 C1 86.66 1 87.32 1 88 C-0.22976562 88.50660156 -0.22976562 88.50660156 -1.484375 89.0234375 C-2.56203125 89.46945312 -3.6396875 89.91546875 -4.75 90.375 C-5.81734375 90.81585938 -6.8846875 91.25671875 -7.984375 91.7109375 C-9.76761719 92.47320424 -11.53616159 93.27502589 -13.26171875 94.16015625 C-15 95 -15 95 -17.0625 95.0625 C-20.28778394 93.2937959 -20.80905207 90.34599657 -22 87 C-22.34701552 85.670162 -22.68406363 84.33756237 -23 83 C-22.45730469 82.74089844 -21.91460937 82.48179687 -21.35546875 82.21484375 C-17.28653502 79.81747198 -15.341428 78.06681482 -13.87109375 73.47265625 C-13.33031642 70.87208226 -12.95031836 68.28953001 -12.5703125 65.65625 C-12 62 -12 62 -11.046875 59.1484375 C-9.62668839 54.87727927 -8.91415006 50.54977685 -8.125 46.125 C-6.080498 35.04377986 -3.61329756 24.15867359 -0.3125 13.375 C0.74204024 9.92746459 1.73545768 6.61541166 2 3 C1.34 2.01 0.68 1.02 0 0 Z " fill="#B9CEFA" transform="translate(221,183)"/>
<path d="M0 0 C0.75728394 0.00202423 1.51456787 0.00404846 2.2947998 0.00613403 C3.06787476 0.00517731 3.84094971 0.00422058 4.63745117 0.00323486 C6.27502524 0.00255313 7.91260199 0.00440697 9.5501709 0.00857544 C12.06536901 0.01392382 14.58038854 0.00863027 17.09558105 0.00222778 C18.68282103 0.00288857 20.2700609 0.00416973 21.8572998 0.00613403 C22.99322571 0.00309769 22.99322571 0.00309769 24.15209961 0 C29.46109849 0.02399522 29.46109849 0.02399522 30.5760498 1.13894653 C31.62351302 7.73796478 31.56196425 14.05602721 31.2010498 20.70144653 C31.15802734 21.51154175 31.11500488 22.32163696 31.07067871 23.15628052 C30.7065082 29.00848813 30.7065082 29.00848813 29.5760498 30.13894653 C27.05510904 30.22742396 24.56174087 30.25421955 22.04089355 30.23660278 C20.91101768 30.23448036 20.91101768 30.23448036 19.75831604 30.23231506 C17.34335421 30.22670029 14.9284838 30.21414536 12.5135498 30.20144653 C10.8800876 30.19643343 9.24662394 30.1918702 7.61315918 30.18777466 C3.60075396 30.17672607 -0.4115826 30.1594516 -4.4239502 30.13894653 C-6.13494023 26.41774453 -6.67167017 23.52063986 -6.65441895 19.43582153 C-6.65248535 18.37363403 -6.65055176 17.31144653 -6.64855957 16.21707153 C-6.63631348 15.11879028 -6.62406738 14.02050903 -6.6114502 12.88894653 C-6.61080566 11.77519653 -6.61016113 10.66144653 -6.60949707 9.51394653 C-6.55744903 0.02963787 -6.55744903 0.02963787 0 0 Z " fill="#FBF8FA" transform="translate(85.4239501953125,109.86105346679688)"/>
<path d="M0 0 C3.27564279 1.17770563 5.66587333 0.92501721 9.12109375 0.65234375 C15.01222173 0.5521545 15.01222173 0.5521545 17.86328125 2.3046875 C20.51525232 5.20409127 21.57275202 7.32442489 22.24609375 11.21484375 C21.63883199 14.18367905 21.1550781 15.25381613 18.68359375 16.96484375 C18.02359375 16.96484375 17.36359375 16.96484375 16.68359375 16.96484375 C16.68359375 16.30484375 16.68359375 15.64484375 16.68359375 14.96484375 C16.00296875 15.68671875 15.32234375 16.40859375 14.62109375 17.15234375 C8.50863274 23.16149556 8.50863274 23.16149556 4.68359375 24.96484375 C0.74609375 24.77734375 0.74609375 24.77734375 -2.31640625 23.96484375 C-2.31640625 24.95484375 -2.31640625 25.94484375 -2.31640625 26.96484375 C-1.65640625 27.29484375 -0.99640625 27.62484375 -0.31640625 27.96484375 C-0.02758519 32.14514852 -0.89848277 34.82781357 -2.69140625 38.58984375 C-3.13226563 39.53085938 -3.573125 40.471875 -4.02734375 41.44140625 C-5.31640625 43.96484375 -5.31640625 43.96484375 -7.31640625 46.96484375 C-7.4865625 46.38476562 -7.65671875 45.8046875 -7.83203125 45.20703125 C-9.40586861 40.13391722 -11.25919089 36.28711374 -14.31640625 31.96484375 C-14.31640625 31.30484375 -14.31640625 30.64484375 -14.31640625 29.96484375 C-14.97640625 29.96484375 -15.63640625 29.96484375 -16.31640625 29.96484375 C-19.65289587 23.09822896 -21.83652859 16.63403238 -20.31640625 8.96484375 C-18.28831575 4.8210708 -15.80784538 1.88265245 -11.87890625 -0.53515625 C-7.71749484 -1.34713897 -3.94139012 -1.76132948 0 0 Z " fill="#444B5E" transform="translate(116.31640625,32.03515625)"/>
<path d="M0 0 C1.67542976 0.28604898 3.34385343 0.61781233 5 1 C5 2.98 5 4.96 5 7 C6.485 6.7525 6.485 6.7525 8 6.5 C12.02732942 5.91525483 15.93474623 5.92867976 20 6 C16.92590705 11.82163389 13.74297917 17.56735327 10.3125 23.1875 C9.75175781 24.10917969 9.19101562 25.03085938 8.61328125 25.98046875 C8.08089844 26.64691406 7.54851563 27.31335938 7 28 C6.01 28 5.02 28 4 28 C3.3291288 26.3767313 2.66342971 24.75132422 2 23.125 C1.62875 22.22007813 1.2575 21.31515625 0.875 20.3828125 C0 18 0 18 0 16 C-4.79795085 18.29539272 -6.44538491 20.99968384 -8.8125 25.6875 C-9.12380859 26.29400391 -9.43511719 26.90050781 -9.75585938 27.52539062 C-10.51608584 29.01075619 -11.25975462 30.50457634 -12 32 C-12.66 32 -13.32 32 -14 32 C-14.19916016 33.17369141 -14.19916016 33.17369141 -14.40234375 34.37109375 C-14.57894531 35.38300781 -14.75554688 36.39492187 -14.9375 37.4375 C-15.11152344 38.44683594 -15.28554688 39.45617187 -15.46484375 40.49609375 C-16 43 -16 43 -17 44 C-17.15980437 46.44608998 -17.25929447 48.86731058 -17.31640625 51.31640625 C-17.33718735 52.04746078 -17.35796844 52.77851532 -17.37937927 53.53172302 C-17.44495024 55.87521656 -17.50379432 58.21882539 -17.5625 60.5625 C-17.60567808 62.14779855 -17.64929213 63.73308529 -17.69335938 65.31835938 C-17.8006392 69.21212037 -17.9018849 73.10599772 -18 77 C-17.05769531 76.97679687 -16.11539063 76.95359375 -15.14453125 76.9296875 C-12 77 -12 77 -9.6875 78.125 C-8 80 -8 80 -7 86 C-16.24 86 -25.48 86 -35 86 C-33.69942197 79.49710983 -33.69942197 79.49710983 -30 77 C-27.78710938 76.83520508 -27.78710938 76.83520508 -25.34375 76.89453125 C-24.53099609 76.9097583 -23.71824219 76.92498535 -22.88085938 76.94067383 C-22.26017578 76.96025146 -21.63949219 76.9798291 -21 77 C-21.09344448 72.47895877 -21.1995163 67.95845887 -21.31738281 63.43798828 C-21.35570301 61.89965979 -21.39055056 60.36124075 -21.421875 58.82275391 C-21.46746059 56.61327724 -21.5254634 54.40442552 -21.5859375 52.1953125 C-21.59748871 51.50567413 -21.60903992 50.81603577 -21.62094116 50.10549927 C-21.64951022 46.1079846 -21.64951022 46.1079846 -24 43 C-23.625 40.375 -23.625 40.375 -23 38 C-22.38125 37.95875 -21.7625 37.9175 -21.125 37.875 C-20.42375 37.58625 -19.7225 37.2975 -19 37 C-18.32816762 35.00172932 -17.66237637 33.00142499 -17 31 C-15.88533591 29.17552623 -14.71672101 27.38305874 -13.5 25.625 C-10.915749 21.69566754 -9.48649811 18.68971946 -8.66015625 14.12109375 C-7.13276555 9.21356033 -3.64976801 3.64976801 0 0 Z " fill="#5D61FC" transform="translate(53,85)"/>
<path d="M0 0 C0.66 0 1.32 0 2 0 C2 0.66 2 1.32 2 2 C2.99 1.67 3.98 1.34 5 1 C4.79375 2.051875 4.5875 3.10375 4.375 4.1875 C3.98778251 8.12421113 4.43847455 9.50953136 6 13 C6.125 15.8125 6.125 15.8125 6 18 C5.34 18 4.68 18 4 18 C3.67 21.96 3.34 25.92 3 30 C1.02 30 -0.96 30 -3 30 C-3 32.97 -3 35.94 -3 39 C-4.65 39.66 -6.3 40.32 -8 41 C-8 41.66 -8 42.32 -8 43 C-14.51791392 43.3540919 -19.17521449 43.03901852 -25 40 C-25 39.34 -25 38.68 -25 38 C-24.34 38 -23.68 38 -23 38 C-23.2475 36.7625 -23.2475 36.7625 -23.5 35.5 C-24.05896045 31.58727683 -24.06807187 27.94816827 -24 24 C-23.67 24 -23.34 24 -23 24 C-22.67 25.65 -22.34 27.3 -22 29 C-18.09549911 24.35178465 -15.90633127 18.98178641 -15 13 C-15.99 12.67 -16.98 12.34 -18 12 C-17.67 10.68 -17.34 9.36 -17 8 C-16.01 8.28875 -15.02 8.5775 -14 8.875 C-11.3419776 9.27559808 -10.2258921 9.1208543 -7.82421875 7.8359375 C-4.57986885 5.42788255 -2.25795716 3.38693573 0 0 Z " fill="#EEDAD3" transform="translate(131,47)"/>
<path d="M0 0 C0.62261719 0.32742187 1.24523437 0.65484375 1.88671875 0.9921875 C6.23023307 2.39824358 10.2804469 2.21286978 14.8125 2.125 C16.13797852 2.11146484 16.13797852 2.11146484 17.49023438 2.09765625 C19.66027359 2.07419637 21.83017247 2.03832865 24 2 C22.52952739 10.31182035 21.06221462 18.56156268 18.66796875 26.66796875 C17.89568974 29.2354534 17.89568974 29.2354534 17.25 32.875 C15.73725357 36.65686607 14.03823939 37.85761835 10.65625 39.95703125 C8.83176547 41.02052779 8.83176547 41.02052779 7 43 C6.773125 42.236875 6.54625 41.47375 6.3125 40.6875 C4.73268318 37.45263699 3.16717283 36.58358642 0 35 C0.33 34.34 0.66 33.68 1 33 C1.556875 33.226875 2.11375 33.45375 2.6875 33.6875 C5.9184702 34.12411759 7.31731994 32.71966671 10 31 C10.99 31 11.98 31 13 31 C11.4066753 27.25568694 9.79148734 23.52483766 8.125 19.8125 C2.09598214 6.28794643 2.09598214 6.28794643 0 0 Z " fill="#E2E8F9" transform="translate(190,225)"/>
<path d="M0 0 C6.27 0 12.54 0 19 0 C19.103125 2.701875 19.20625 5.40375 19.3125 8.1875 C19.38078003 9.45049927 19.38078003 9.45049927 19.45043945 10.73901367 C19.52685773 14.88680032 19.31381477 16.57126714 16.78125 20.03125 C13.83816449 22.11455772 12.70947697 22.5753341 9.1875 22.3125 C8.39730469 22.26738281 7.60710937 22.22226563 6.79296875 22.17578125 C6.20128906 22.11777344 5.60960937 22.05976563 5 22 C4.34 20.68 3.68 19.36 3 18 C2.34 18 1.68 18 1 18 C1 17.34 1 16.68 1 16 C0.195625 16.020625 -0.60875 16.04125 -1.4375 16.0625 C-4 16 -4 16 -5 15 C-5.07205511 13.31391034 -5.08386068 11.62499341 -5.0625 9.9375 C-5.05347656 9.01839844 -5.04445312 8.09929687 -5.03515625 7.15234375 C-5.02355469 6.44207031 -5.01195312 5.73179687 -5 5 C-3.35 4.67 -1.7 4.34 0 4 C0 2.68 0 1.36 0 0 Z " fill="#7D99FD" transform="translate(169,146)"/>
<path d="M0 0 C2.68005742 2.18375049 3.55757109 4.10415315 4.6875 7.375 C4.89067619 11.8839485 4.54864932 15.26383959 1.75 18.875 C-1.83046608 21.47897533 -4.59332221 21.9598046 -8.9765625 21.91015625 C-12.76909794 21.0412978 -14.31183131 18.85695225 -16.34375 15.66796875 C-18.02170678 11.6963533 -17.53416188 9.51507636 -16.3125 5.375 C-12.13134372 -0.96417243 -7.198008 -1.94540757 0 0 Z " fill="#3BE6CD" transform="translate(186.3125,102.625)"/>
<path d="M0 0 C1.67542976 0.28604898 3.34385343 0.61781233 5 1 C5 2.98 5 4.96 5 7 C5.99 6.835 6.98 6.67 8 6.5 C12.02732942 5.91525483 15.93474623 5.92867976 20 6 C16.92590705 11.82163389 13.74297917 17.56735327 10.3125 23.1875 C9.47138672 24.57001953 9.47138672 24.57001953 8.61328125 25.98046875 C8.08089844 26.64691406 7.54851563 27.31335938 7 28 C6.01 28 5.02 28 4 28 C3.3291288 26.3767313 2.66342971 24.75132422 2 23.125 C1.62875 22.22007813 1.2575 21.31515625 0.875 20.3828125 C0 18 0 18 0 16 C-0.928125 16.495 -1.85625 16.99 -2.8125 17.5 C-6 19 -6 19 -9 19 C-8.84123736 11.85568114 -5.04843024 5.04843024 0 0 Z " fill="#7175F9" transform="translate(53,85)"/>
<path d="M0 0 C1.89382164 -0.13592021 3.79049704 -0.2324094 5.6875 -0.3125 C6.74324219 -0.37050781 7.79898438 -0.42851562 8.88671875 -0.48828125 C13.07583992 0.16873274 14.19951454 1.86226096 17 5 C18.16776044 6.04402645 19.35251045 7.06926289 20.55078125 8.078125 C21.16630859 8.59890625 21.78183594 9.1196875 22.41601562 9.65625 C23.69948152 10.7348372 24.98334726 11.81294875 26.26757812 12.890625 C27.86212408 14.24050518 29.43337749 15.61781072 31 17 C31 17.33 31 17.66 31 18 C20.26226713 17.27073945 9.63854386 15.57481857 -1 14 C-1.03998805 9.16144615 -0.95397287 4.76986433 0 0 Z " fill="#8A97A7" transform="translate(119,290)"/>
<path d="M0 0 C4.95 0 9.9 0 15 0 C15 6.6 15 13.2 15 20 C6 20 6 20 1 17.5 C0.05125 17.0359375 -0.8975 16.571875 -1.875 16.09375 C-2.57625 15.7328125 -3.2775 15.371875 -4 15 C-3.43179252 9.54520815 -2.05362055 5.08940744 0 0 Z " fill="#A64B93" transform="translate(84,141)"/>
<path d="M0 0 C1.95679688 0.26296875 1.95679688 0.26296875 3.953125 0.53125 C7.30704277 0.99292289 10.65418252 1.48332953 14 2 C14 2.66 14 3.32 14 4 C9.05 5.485 9.05 5.485 4 7 C4 7.66 4 8.32 4 9 C2.77023438 9.50660156 2.77023438 9.50660156 1.515625 10.0234375 C0.43796875 10.46945312 -0.6396875 10.91546875 -1.75 11.375 C-2.81734375 11.81585938 -3.8846875 12.25671875 -4.984375 12.7109375 C-6.76761719 13.47320424 -8.53616159 14.27502589 -10.26171875 15.16015625 C-12 16 -12 16 -14.0625 16.0625 C-17.28778394 14.2937959 -17.80905207 11.34599657 -19 8 C-19.34701552 6.670162 -19.68406363 5.33756237 -20 4 C-13.55460909 -2.14560529 -8.46177211 -1.25633298 0 0 Z " fill="#8A97A7" transform="translate(218,262)"/>
<path d="M0 0 C0.66 0.33 1.32 0.66 2 1 C1.67 1.66 1.34 2.32 1 3 C4.3 3 7.6 3 11 3 C10.67 3.66 10.34 4.32 10 5 C9.19175781 4.93039063 8.38351563 4.86078125 7.55078125 4.7890625 C1.55636984 4.27666604 1.55636984 4.27666604 -3.91015625 6.23046875 C-6.12538137 8.84611357 -7 10.55742752 -7 14 C0.64103501 15.15979996 8.28298282 15.33197206 16 15.5625 C17.36068789 15.60578135 18.72136515 15.64939839 20.08203125 15.69335938 C23.38793157 15.79886683 26.69389999 15.90098256 30 16 C30 16.33 30 16.66 30 17 C12.675 17.495 12.675 17.495 -5 18 C-5.33 23.28 -5.66 28.56 -6 34 C-9.7364797 33.06588007 -12.60899585 31.77257035 -16 30 C-15.125 23.25 -15.125 23.25 -14 21 C-13.34 21 -12.68 21 -12 21 C-11.95875 20.05125 -11.9175 19.1025 -11.875 18.125 C-10.93871979 11.5576631 -6.93163223 5.76366421 -2.125 1.375 C-1.42375 0.92125 -0.7225 0.4675 0 0 Z " fill="#C58CBB" transform="translate(85,93)"/>
<path d="M0 0 C0.66 0 1.32 0 2 0 C1.31113213 3.38891322 0.01283514 6.18011613 -1.5625 9.25 C-2.01753906 10.14203125 -2.47257812 11.0340625 -2.94140625 11.953125 C-3.29074219 12.62859375 -3.64007813 13.3040625 -4 14 C-4.66 14 -5.32 14 -6 14 C-6.13277344 14.78246094 -6.26554687 15.56492187 -6.40234375 16.37109375 C-6.57894531 17.38300781 -6.75554688 18.39492187 -6.9375 19.4375 C-7.11152344 20.44683594 -7.28554688 21.45617187 -7.46484375 22.49609375 C-8 25 -8 25 -9 26 C-9.15980437 28.44608998 -9.25929447 30.86731058 -9.31640625 33.31640625 C-9.33718735 34.04746078 -9.35796844 34.77851532 -9.37937927 35.53172302 C-9.44495024 37.87521656 -9.50379432 40.21882539 -9.5625 42.5625 C-9.60567808 44.14779855 -9.64929213 45.73308529 -9.69335938 47.31835938 C-9.8006392 51.21212037 -9.9018849 55.10599772 -10 59 C-10.99 59 -11.98 59 -13 59 C-13.01981934 58.04109863 -13.03963867 57.08219727 -13.06005859 56.09423828 C-13.13604145 52.54188447 -13.2247693 48.98994424 -13.31738281 45.43798828 C-13.35570301 43.89965979 -13.39055056 42.36124075 -13.421875 40.82275391 C-13.46746059 38.61327724 -13.5254634 36.40442552 -13.5859375 34.1953125 C-13.60326431 33.16085495 -13.60326431 33.16085495 -13.62094116 32.10549927 C-13.64951022 28.1079846 -13.64951022 28.1079846 -16 25 C-15.625 22.375 -15.625 22.375 -15 20 C-14.38125 19.95875 -13.7625 19.9175 -13.125 19.875 C-12.42375 19.58625 -11.7225 19.2975 -11 19 C-10.56494141 17.68322266 -10.56494141 17.68322266 -10.12109375 16.33984375 C-8.87495429 12.62747706 -7.14900966 9.9104442 -4.9375 6.6875 C-4.22464844 5.63949219 -3.51179688 4.59148437 -2.77734375 3.51171875 C-1 1 -1 1 0 0 Z " fill="#6D7284" transform="translate(45,103)"/>
<path d="M0 0 C6.36 0.36 6.36 0.36 9 3 C10.40752949 7.22258847 10.16670903 10.72473061 9 15 C7.3125 17.5 7.3125 17.5 5 19 C3.00761857 19.37620121 1.00737366 19.71440922 -1 20 C-1.02696009 17.2291017 -1.04681952 14.4584655 -1.0625 11.6875 C-1.07087891 10.90181641 -1.07925781 10.11613281 -1.08789062 9.30664062 C-1.09111328 8.54931641 -1.09433594 7.79199219 -1.09765625 7.01171875 C-1.10289307 6.31522217 -1.10812988 5.61872559 -1.11352539 4.90112305 C-1 3 -1 3 0 0 Z " fill="#20D1B7" transform="translate(181,104)"/>
<path d="M0 0 C1.39456867 0.00574201 2.78910972 0.01875397 4.18359375 0.03515625 C6.63796875 0.05578125 9.09234375 0.07640625 11.62109375 0.09765625 C11.62109375 6.03765625 11.62109375 11.97765625 11.62109375 18.09765625 C10.96109375 17.76765625 10.30109375 17.43765625 9.62109375 17.09765625 C9.62109375 16.43765625 9.62109375 15.77765625 9.62109375 15.09765625 C8.76257813 14.76121094 8.76257813 14.76121094 7.88671875 14.41796875 C4.97242742 12.71964035 3.4220163 10.63885556 1.37109375 7.97265625 C0.31148438 6.60753906 0.31148438 6.60753906 -0.76953125 5.21484375 C-1.300625 4.51617187 -1.83171875 3.8175 -2.37890625 3.09765625 C-2.50265625 3.73703125 -2.62640625 4.37640625 -2.75390625 5.03515625 C-2.96015625 5.71578125 -3.16640625 6.39640625 -3.37890625 7.09765625 C-4.36890625 7.59265625 -4.36890625 7.59265625 -5.37890625 8.09765625 C-4.36434929 0.12613726 -4.36434929 0.12613726 0 0 Z " fill="#AD5C9E" transform="translate(87.37890625,140.90234375)"/>
<path d="M0 0 C3.11464988 0.30164402 3.99542731 0.99495168 6.140625 3.36328125 C6.83671875 4.33652344 7.5328125 5.30976563 8.25 6.3125 C8.95640625 7.27800781 9.6628125 8.24351562 10.390625 9.23828125 C12 12 12 12 12 16 C7.38 16 2.76 16 -2 16 C-2.18059336 10.13071596 -1.89091945 5.55457588 0 0 Z " fill="#EBECF2" transform="translate(153,211)"/>
<path d="M0 0 C0.66 0.33 1.32 0.66 2 1 C2.625 3.0625 2.625 3.0625 3 5 C4.65 5 6.3 5 8 5 C8 5.66 8 6.32 8 7 C7.34 7 6.68 7 6 7 C5.87625 7.825 5.7525 8.65 5.625 9.5 C4.45226921 16.0672924 2.78256829 21.9289419 0 28 C-1.32 27.67 -2.64 27.34 -4 27 C-4.33705372 22.50595044 -3.43732774 19.55441807 -1.734375 15.43359375 C-0.23120457 10.45234279 -0.2286215 5.17157594 0 0 Z " fill="#CCDBF9" transform="translate(200,272)"/>
<path d="M0 0 C1.32 0 2.64 0 4 0 C4.30987257 4.76076949 3.56783421 7.59625751 1.25 11.75 C0.73953125 12.69359375 0.2290625 13.6371875 -0.296875 14.609375 C-2.08318516 17.11676449 -3.11767134 18.02409345 -6 19 C-6.99 19 -7.98 19 -9 19 C-8.84123736 11.85568114 -5.04843024 5.04843024 0 0 Z " fill="#6376FC" transform="translate(53,85)"/>
<path d="M0 0 C0.99 0 1.98 0 3 0 C3 10.56 3 21.12 3 32 C2.01 32 1.02 32 0 32 C0 21.44 0 10.88 0 0 Z " fill="#60667A" transform="translate(32,130)"/>
<path d="M0 0 C0.33 0 0.66 0 1 0 C1 2.64 1 5.28 1 8 C4.3 8 7.6 8 11 8 C11 10.64 11 13.28 11 16 C7.04 16 3.08 16 -1 16 C-0.67 10.72 -0.34 5.44 0 0 Z " fill="#E6D7D3" transform="translate(120,274)"/>
<path d="M0 0 C6.6 0 13.2 0 20 0 C19.67 1.65 19.34 3.3 19 5 C16.39576408 5.02697137 13.79180756 5.04682489 11.1875 5.0625 C10.44951172 5.07087891 9.71152344 5.07925781 8.95117188 5.08789062 C5.70077932 5.10259828 3.10595105 5.03531702 0 4 C0 2.68 0 1.36 0 0 Z " fill="#84A0FC" transform="translate(41,179)"/>
<path d="M0 0 C0 3.51716303 -0.82445585 4.37121748 -3 7 C-2.01 7.33 -1.02 7.66 0 8 C-1.15173355 10.46800047 -2.04783565 12.04783565 -4 14 C-6.68839385 14.26991906 -9.29141936 14.08737357 -12 14 C-9.917077 7.56187438 -5.99912817 3.08526592 0 0 Z " fill="#1CD1A8" transform="translate(280,240)"/>
<path d="M0 0 C0.33 1.98 0.66 3.96 1 6 C-0.423125 6.928125 -0.423125 6.928125 -1.875 7.875 C-4.94445109 9.81970969 -4.94445109 9.81970969 -7 12 C-7.226875 11.236875 -7.45375 10.47375 -7.6875 9.6875 C-9.26731682 6.45263699 -10.83282717 5.58358642 -14 4 C-13.67 3.34 -13.34 2.68 -13 2 C-12.443125 2.226875 -11.88625 2.45375 -11.3125 2.6875 C-7.10611708 3.25593012 -4.55362113 0 0 0 Z " fill="#E7D7D3" transform="translate(204,256)"/>
<path d="M0 0 C2.14809171 3.22213757 2.29386153 4.27775401 2 8 C1 9 1 9 -2.4375 9.1875 C-6 9 -6 9 -8 7 C-8.125 3.875 -8.125 3.875 -8 1 C-5.21136993 -0.39431504 -3.07921132 -0.25660094 0 0 Z " fill="#94ADFD" transform="translate(143,142)"/>
<path d="M0 0 C3.19384754 -0.21776233 5.40422845 -0.28983481 8.3125 1.125 C10 3 10 3 11 9 C1.76 9 -7.48 9 -17 9 C-16.67 8.01 -16.34 7.02 -16 6 C-16 6.66 -16 7.32 -16 8 C-13.24915453 7.88588196 -10.49988053 7.75914051 -7.75 7.625 C-6.97269531 7.5940625 -6.19539063 7.563125 -5.39453125 7.53125 C0.10549619 7.3231434 0.10549619 7.3231434 5 5 C5.33 4.34 5.66 3.68 6 3 C4.02 2.34 2.04 1.68 0 1 C0 0.67 0 0.34 0 0 Z " fill="#7983FA" transform="translate(35,162)"/>
<path d="M0 0 C0.33 0 0.66 0 1 0 C0.67 7.92 0.34 15.84 0 24 C-0.66 24 -1.32 24 -2 24 C-5.21278848 17.57442304 -2.86966522 7.632535 -1 1 C-0.67 0.67 -0.34 0.34 0 0 Z " fill="#2ED1AA" transform="translate(263,230)"/>
<path d="M0 0 C0.99 0 1.98 0 3 0 C3 4.95 3 9.9 3 15 C1.68 15 0.36 15 -1 15 C-1.02685412 12.68756208 -1.04632841 10.3750373 -1.0625 8.0625 C-1.07410156 6.77472656 -1.08570312 5.48695312 -1.09765625 4.16015625 C-1 1 -1 1 0 0 Z " fill="#CF8FC2" transform="translate(103,118)"/>
<path d="M0 0 C0.33 0.66 0.66 1.32 1 2 C1.66 2 2.32 2 3 2 C3 2.66 3 3.32 3 4 C3.99 3.67 4.98 3.34 6 3 C6 3.99 6 4.98 6 6 C4.3203125 7.5703125 4.3203125 7.5703125 2.125 9.125 C1.40570313 9.64320313 0.68640625 10.16140625 -0.0546875 10.6953125 C-2 12 -2 12 -4 13 C-3.55966813 7.80408388 -3.11696661 4.33664919 0 0 Z " fill="#D5ECF3" transform="translate(273,225)"/>
<path d="M0 0 C0.94875 0.04125 1.8975 0.0825 2.875 0.125 C3 3 3 3 2.875 6.125 C2.215 6.785 1.555 7.445 0.875 8.125 C-1.75 7.75 -1.75 7.75 -4.125 7.125 C-4.75 4.75 -4.75 4.75 -5.125 2.125 C-3.125 0.125 -3.125 0.125 0 0 Z " fill="#6466F6" transform="translate(34.125,121.875)"/>
<path d="M0 0 C6.27 0 12.54 0 19 0 C19 0.66 19 1.32 19 2 C16.04200997 3.47899501 13.3516424 3.13178874 10.0625 3.125 C8.81597656 3.12757813 7.56945312 3.13015625 6.28515625 3.1328125 C3 3 3 3 0 2 C0 1.34 0 0.68 0 0 Z " fill="#7C99FE" transform="translate(220,181)"/>
<path d="M0 0 C0 2.97 0 5.94 0 9 C-0.99 9.33 -1.98 9.66 -3 10 C-2.01 10.66 -1.02 11.32 0 12 C-1.65 11.67 -3.3 11.34 -5 11 C-5 7.7 -5 4.4 -5 1 C-3 0 -3 0 0 0 Z " fill="#9CB2FC" transform="translate(169,150)"/>
<path d="M0 0 C1.32 0 2.64 0 4 0 C4 3.96 4 7.92 4 12 C2.68 12 1.36 12 0 12 C0 8.04 0 4.08 0 0 Z " fill="#CF92C4" transform="translate(96,121)"/>
<path d="M0 0 C1.32 0 2.64 0 4 0 C4 3.3 4 6.6 4 10 C2.68 10 1.36 10 0 10 C0 6.7 0 3.4 0 0 Z " fill="#D298C8" transform="translate(90,123)"/>
<path d="M0 0 C1.98 1.65 3.96 3.3 6 5 C5.67 6.32 5.34 7.64 5 9 C3.35 9 1.7 9 0 9 C0 6.03 0 3.06 0 0 Z " fill="#16B8A1" transform="translate(181,114)"/>
<path d="M0 0 C1.65 1.65 3.3 3.3 5 5 C-3.0704358 4.38541771 -11.01385781 3.30774665 -19 2 C-19 1.67 -19 1.34 -19 1 C-12.60371021 0.87931529 -6.36150605 1.34513908 0 2 C0 1.34 0 0.68 0 0 Z " fill="#A2AEBE" transform="translate(145,303)"/>
<path d="M0 0 C0.66 0 1.32 0 2 0 C2 0.99 2 1.98 2 3 C6.62 3 11.24 3 16 3 C15.67 3.66 15.34 4.32 15 5 C10.05 5 5.1 5 0 5 C0 3.35 0 1.7 0 0 Z " fill="#CAD0FB" transform="translate(58,87)"/>
<path d="M0 0 C0.66 0 1.32 0 2 0 C2.33 4.29 2.66 8.58 3 13 C2.34 13 1.68 13 1 13 C-0.32229189 10.35541621 -0.09677194 8.32238699 -0.0625 5.375 C-0.05347656 4.37210938 -0.04445313 3.36921875 -0.03515625 2.3359375 C-0.02355469 1.56507813 -0.01195312 0.79421875 0 0 Z " fill="#34D6B2" transform="translate(260,241)"/>
<path d="M0 0 C0.33 0.99 0.66 1.98 1 3 C-0.9375 6.1875 -0.9375 6.1875 -3 9 C-3.66 8.67 -4.32 8.34 -5 8 C-5.3125 5.6875 -5.3125 5.6875 -5 3 C-2.5 1.1875 -2.5 1.1875 0 0 Z " fill="#6568FA" transform="translate(62,105)"/>
<path d="M0 0 C2.96175123 0.61277612 4.38058783 1.25372522 7 3 C6.01 3.66 5.02 4.32 4 5 C3.01 6.485 3.01 6.485 2 8 C2 7.01 2 6.02 2 5 C1.01 4.67 0.02 4.34 -1 4 C-0.67 2.68 -0.34 1.36 0 0 Z " fill="#D3C5C1" transform="translate(114,55)"/>
<path d="M0 0 C0.66 0 1.32 0 2 0 C1.38531118 3.99547736 -0.65459376 6.77506642 -3 10 C-3.33 10 -3.66 10 -4 10 C-4.4025937 6.47730515 -4.13372795 5.20059192 -2.125 2.1875 C-1.42375 1.465625 -0.7225 0.74375 0 0 Z " fill="#5B6079" transform="translate(45,103)"/>
<path d="M0 0 C0.66 1.65 1.32 3.3 2 5 C-4.75 4.25 -4.75 4.25 -7 2 C-4 0 -4 0 0 0 Z " fill="#9E438C" transform="translate(97,156)"/>
<path d="M0 0 C0.66 0.33 1.32 0.66 2 1 C1.67 1.66 1.34 2.32 1 3 C4.3 3 7.6 3 11 3 C10.67 3.66 10.34 4.32 10 5 C9.15695313 4.98839844 8.31390625 4.97679688 7.4453125 4.96484375 C6.34960938 4.95582031 5.25390625 4.94679688 4.125 4.9375 C2.48917969 4.92009766 2.48917969 4.92009766 0.8203125 4.90234375 C-1.95177546 4.80255697 -1.95177546 4.80255697 -4 6 C-2.84826645 3.53199953 -1.95216435 1.95216435 0 0 Z " fill="#BA71AD" transform="translate(85,93)"/>
<path d="M0 0 C3.49873271 1.39655297 4.70891831 2.71260484 6.25 6.125 C6.58515625 6.84945312 6.9203125 7.57390625 7.265625 8.3203125 C7.62914062 9.15175781 7.62914062 9.15175781 8 10 C7.01 10 6.02 10 5 10 C4.34 8.02 3.68 6.04 3 4 C2.34 4 1.68 4 1 4 C0.67 2.68 0.34 1.36 0 0 Z " fill="#2DD5B0" transform="translate(246,244)"/>
<path d="M0 0 C0.99 0.33 1.98 0.66 3 1 C-1.625 5.875 -1.625 5.875 -5 7 C-5 7.66 -5 8.32 -5 9 C-5.66 8.67 -6.32 8.34 -7 8 C-4.69 5.36 -2.38 2.72 0 0 Z " fill="#41D2AE" transform="translate(266,209)"/>
<path d="M0 0 C-0.8125 2.4375 -0.8125 2.4375 -2 5 C-2.99 5.33 -3.98 5.66 -5 6 C-5 6.66 -5 7.32 -5 8 C-5.66 8 -6.32 8 -7 8 C-4.18918919 0 -4.18918919 0 0 0 Z " fill="#37D8B6" transform="translate(275,246)"/>
<path d="M0 0 C0.66 0 1.32 0 2 0 C2 2.31 2 4.62 2 7 C1.01 7 0.02 7 -1 7 C-1.04254356 5.00045254 -1.04080783 2.99958364 -1 1 C-0.67 0.67 -0.34 0.34 0 0 Z " fill="#CCDAFC" transform="translate(167,152)"/>
<path d="M0 0 C0 0.99 0 1.98 0 3 C-2.5 5.1875 -2.5 5.1875 -5 7 C-5 5.68 -5 4.36 -5 3 C-2.5 1.25 -2.5 1.25 0 0 Z " fill="#2AD3AE" transform="translate(280,240)"/>
<path d="M0 0 C2.0625 0.4375 2.0625 0.4375 4 1 C3.34 1 2.68 1 2 1 C2 1.66 2 2.32 2 3 C0.625 4.625 0.625 4.625 -1 6 C-1.66 6 -2.32 6 -3 6 C-1.125 1.125 -1.125 1.125 0 0 Z " fill="#7A8AFB" transform="translate(53,85)"/>
</svg>
