<?xml version="1.0" encoding="UTF-8"?>
<svg version="1.1" viewBox="0 0 1708 1804" width="427" height="451" xmlns="http://www.w3.org/2000/svg">
<path transform="translate(0)" d="m0 0h1708v1804h-1708z" fill="#F1F9FC"/>
<path transform="translate(668,573)" d="m0 0h30l9 3 8 5 6 9v12l-4 12 5-2h20l16 4 16 8 11 7 11 10 7 10 7 14 2 12-3 7-4 5-7 4-7 1h-42l-4 4h-2l-2 4-15 6-13 1-9-1h-9l-4 2-6 10-2 8-1 35h-3l-2-4-3-2v-2l-8-1-2 4h-2l-2 7v8l6 16 3 9v8h2v30l2 15v22l-3 5-30 3-9 1-1 1-21 2-20 4-4 3-6 16-5 23-2 20-1 21v16l1 26 4 42 5 37 9 50 2 12 3 12 10 44 3 13 2 4 7 2h13l24-5 8-3 19-7 26-11 11-5 7-3 18-13 17-12 10-7 18-12 11-8 9-5 1-2-25 3-20 2h-7l4-7 4-5 14-20h2l2-4 12-17 12-16 10-14 3-5 6-24 13-63 4-24 4-20v-7l-3-5-5-5-7-8-8-7-1-2-7-4-3-2v-2l-4-1-4-2-27-3-12-1h-21l-4-6-2-5v-16l2-7 2-1 15-1 8-3 11-6 8-7 8-11 5-11 3-7 3-16h2v-2l5-5 3-5 1-8-2 5-5 6h-3l-1-32 6 2 4 4 5 3 7 7 9 11 7 7 9 11 5 6 1 3 5 5 12 15 9 12 8 11 1 4h2l1 4h2l13 19 7 10 15 22 25-2 63-7 118-13h6l-1 11-14 67-11 54-5 20-4 8-6 7-1 3-4 4-2 4-2 1-1 3-4 4-1 3-2 1-1 3-2 1-1 3-4 4-2 4h-2v3l-2 1-1 3-5 5-4 7-5 5-6 10-4 2-6 1 3 11 3 15 3 9 2 14 2 7 2 20 1 1 1 15v26l-1 13-6 24v11l3 7 5 17 16 47 3 7 1 8-12 5-13 5-20 5-14 2h-16l-3-3-5-20v-2l-7 4-10 7-10 6-3 2 1 21 2 21 1 18 2 7v5l6-1v-33l4-4 13-2 4-1 19-2h8l3 3 2 9 1 14 4 6 10 14 9 11 11 11 4 5 8 7 10 9 16 11 11 6 13 4h7l7-3 4-5v-10l-9-14-12-15-4-6-1-7-4-5-7-10-13-23-8-20-1-6 18-4 27-7 37-12 29-11 26-11 31-15 20-11 25-15 20-13 20-14 19-14 14-11 16-13 22-18 11-10 11-9 3-3h2v-2l11-9 11-10 11-9 11-10 11-9 13-11 14-11 18-14 14-10 17-11 20-12 21-11 25-11 34-12 24-7 11-3 4 1v766h-1708v-991l3 1v2l4 2 16 12 10 9 11 9 13 11 13 12 16 15 24 24v2l3 1 7 8 1 3 4 2 14 16v2h2l7 8 10 10 8 10 9 10 5 6 5 5 9 10 2 8 5-2 10-14 11-12 10-10 12-9 13-8 10-4 9-2h6l-6-17-8-24-2-11v-20l3-10 6-8 10-9 22-15h2v-2l6-4 5-5 7-11 5-13 2-11v-25l-3-23v-19l3-12 4-6 6-5 6-2h16l15 4 18 10 20 14 15 13 15 15 9 11 11 15 11 18 8 15 5 16 3 14 1 10v15h-2l-1 9-6 16-8 19-5 13-2 7-5 16-4 18-1 16v20l5 12 12 19 2 3v3h2v2h3l1-13 1-9h2l1-18 4-21 1-1 4-23 2-4 3-16 7-28h2v-7l4-11 2-10 2-4 3-12 2-7 6-19h2l1-9 1-3h2l1-9 17-46 4-10 13-32 8-16 9-11 11-11 3-7 3-9 4-13 3-6h2l2-5 3-6-9 1-5-1v-2l-5-2-3-4v-2h-2l-3-10v-7l2-6 5-9 9-9 15-9 17-6 16-4 7-1z" fill="#E1EFFC"/>
<path transform="translate(668,573)" d="m0 0h30l9 3 8 5 6 9v12l-4 12 5-2h20l16 4 16 8 11 7 11 10 7 10 7 14 2 12-3 7-4 5-7 4-7 1h-42l-4 4h-2l-2 4-15 6-13 1-9-1h-9l-4 2-6 10-2 8-1 35h-3l-2-4-3-2v-2l-8-1-2 4h-2l-2 7v8l6 16 3 9v8h2v30l2 15v22l-3 5-30 3-9 1-1 1-21 2-20 4-4 3-6 16-5 23-2 20-1 21v16l1 26 4 42 5 37 9 50 2 12 3 12 10 44 3 13 2 4 7 2h13l24-5 8-3 19-7 26-11 11-5 7-3 18-13 17-12 10-7 18-12 11-8 9-5 1-2-25 3-20 2h-7l4-7 4-5 14-20h2l2-4 12-17 12-16 10-14 3-5 6-24 13-63 4-24 4-20v-7l-3-5-5-5-7-8-8-7-1-2-7-4-3-2v-2l-4-1-4-2-27-3-12-1h-21l-4-6-2-5v-16l2-7 2-1 15-1 8-3 11-6 8-7 8-11 5-11 3-7 3-16h2v-2l5-5 3-5 1-8-2 5-5 6h-3l-1-32 6 2 4 4 5 3 7 7 9 11 7 7 9 11 5 6 1 3 5 5 12 15 9 12 8 11 1 4h2l1 4h2l13 19 7 10 15 22 25-2 63-7 118-13h6l-1 11-14 67-11 54-5 20-4 8-6 7-1 3-4 4-2 4-2 1-1 3-4 4-1 3-2 1-1 3-2 1-1 3-4 4-2 4h-2v3l-2 1-1 3-5 5-4 7-5 5-6 10-4 2-6 1 3 11 3 15 3 9 2 14 2 7 2 20 1 1 1 15v26l-1 13-6 24v11l3 7 5 17 16 47 3 7 1 8-12 5-13 5-20 5-14 2h-16l-3-3-5-20v-2l-7 4-10 7-10 6-3 2 1 21 2 21 1 18 1 5v12l-19 2-1 1h-41l-15-2-2-1v-11l2-25 1-15-35 6-35 4-53 3h-21l-42-3-30-5-10-2v-2l-12-1-10-3-2-4-12-1-6-1-5 12-6 12h-2l-2 8-11 24h-2l-3 11-2 5h-2l-1 7-1 2h-2l-1 6-7 16h-2l-3 9-12 25-3 1-1 4-4 1-5-5-1-3v-8l4-19 1-3h2l1-7 4-12 2-8 5-12 3-11 3-9h2l1-10 3-9h2l2-13 7-29-1-4-16-11-10-8-5-5-8-7-8-10-5-5-7-9-9-14-3-5v-2h-2l-10-21-4-8-8-22-7-31-2-4-4 1-9 6-6 2v2l-16 6-21 6-28 5h-5l3-22 3-18 3-25v-22l-5-27-10-28-5-10-7-23-6-15-4-16-6-33-1-14v-19l-1-4 9-14 5-6 5-5 7-10 7-7 7-10v-2l-8 4-9 10-8 8-12 16-3-4-1-5 1-3v-13l-1-2 5-13 1-4-3-1 3-9-3 3-3 12-2 13-1 2 3 1-3 2-3 9-1 6v10l1 11v18l2 9 4 33 3 16h2l2 10 6 20 1 9 5 10v2h2l3 6v5l-5-2-3-5-3-1-5-5-7-3v-2l-6-1-4-2-7-1 2 4 20 12 11 8 2 1v2l4 2 6 8 3 7 4 19 1 3 2 1v33l-3 26-7 33-2 3-25-1v13l-4 14-6 13 46-1h46l48 1 4 2-1 9-22 109-9 45h-2v9l-4 9-86 1h-58l-2 13-1 2h-104l-4-16-20-99-1-10 3-1 101-1-2-13-4-14-21 1-3-2-5-21-3-19v-21l3-10 5-15 7-8 6-4 8-4 11-7 10-3 1-3-12 3-15 8-8 5-3-1 5-14 6-23 3-11 1-14 2-10 1-4v-12l-1-8 2-2v-10l-2-2v12l-4-2-8-9-7-8-7-7-2-1 1 5 7 7 10 13 6 7 4 7-1 9-7 38-5 16-9 26-8 20-2 11v7l-2 1v12l6 39v9h-8l-25-6-16-7-11-7-7-6-9-13-5-13-2-11 1-16 5-21 5-13 11-23 14-24 2-5v-18l-5-23-10-29-7-18-1-3v-17l4-15 7-17 10-16 13-16 15-15 12-9 13-8 10-4 9-2h6l-6-17-8-24-2-11v-20l3-10 6-8 10-9 22-15h2v-2l6-4 5-5 7-11 5-13 2-11v-25l-3-23v-19l3-12 4-6 6-5 6-2h16l15 4 18 10 20 14 15 13 15 15 9 11 11 15 11 18 8 15 5 16 3 14 1 10v15h-2l-1 9-6 16-8 19-5 13-2 7-5 16-4 18-1 16v20l5 12 12 19 2 3v3h2v2h3l1-13 1-9h2l1-18 4-21 1-1 4-23 2-4 3-16 7-28h2v-7l4-11 2-10 2-4 3-12 2-7 6-19h2l1-9 1-3h2l1-9 17-46 4-10 13-32 8-16 9-11 11-11 3-7 3-9 4-13 3-6h2l2-5 3-6-9 1-5-1v-2l-5-2-3-4v-2h-2l-3-10v-7l2-6 5-9 9-9 15-9 17-6 16-4 7-1z" fill="#0267A5"/>
<path transform="translate(804,736)" d="m0 0 6 2 4 4 5 3 7 7 9 11 7 7 9 11 5 6 1 3 5 5 12 15 9 12 8 11 1 4h2l1 4h2l13 19 7 10 15 22 25-2 63-7 118-13h6l-1 11-14 67-11 54-5 20-4 8-6 7-1 3-4 4-2 4-2 1-1 3-4 4-1 3-2 1-1 3-2 1-1 3-4 4-2 4h-2v3l-2 1-1 3-5 5-4 7-5 5-6 10-4 2-6 1 3 11 3 15 3 9 2 14 2 7 2 20 1 1 1 15v26l-1 13-6 24v11l3 7 5 17 16 47 3 7 1 8-12 5-13 5-20 5-14 2h-16l-3-3-5-20v-2l-7 4-10 7-10 6-3 2 1 21 2 21 1 18 1 5v12l-19 2-1 1h-41l-15-2-2-1 3-31v-31l-5-45-1-10-16 14-12 8-16 7-14 4-25 4-13 1h-38l-15-2-15-4-13-5-17-10-10-8-11-11-7-11-5-12-3-14v-19l3-14 3-8 6-11 10-13 13-13 17-13 3-1v-2l7-4 14-10 34-24 18-12 11-8 9-5 1-2-25 3-20 2h-7l4-7 4-5 14-20h2l2-4 12-17 12-16 10-14 3-5 6-24 13-63 4-24 4-20v-7l-3-5-5-5-7-8-8-7-1-2-7-4-3-2v-2l-4-1-4-2-27-3-12-1h-21l-4-6-2-5v-16l2-7 2-1 15-1 8-3 11-6 8-7 8-11 5-11 3-7 3-16h2v-2l5-5 3-5 1-8-2 5-5 6h-3z" fill="#053271"/>
<path transform="translate(281,944)" d="m0 0 3 4 2 5 5 1 5 8 2 8-1 17h-2v26l2 7 3 10 8 11 5 4v2l5 1 6 4 4 2 5 5 6 7 6 9 3 3h-3l2 4 20 12 11 8 2 1v2l4 2 6 8 3 7 4 19 1 3 2 1v33l-3 26-7 33-2 3-25-1v13l-4 14-6 13 46-1h46l48 1 4 2-1 9-22 109-9 45h-2v9l-4 9-86 1h-58l-2 13-1 2h-104l-4-16-20-99-1-10 3-1 101-1-2-13-4-14-21 1-3-2-5-21-3-19v-21l3-10 5-15 7-8 6-4 8-4 11-7 10-3 1-3-12 3-15 8-8 5-3-1 5-14 6-23 3-11 1-14 2-10 1-4v-12l-1-8 2-2v-10l-2-2v12l-4-2-8-9-7-8-7-7-2-1 1 5 7 7 10 13 6 7 4 7-1 9-7 38-5 16-9 26-8 20-2 11v7l-2 1v12l6 39v9h-8l-25-6-16-7-11-7-7-6-9-13-5-13-2-11 1-16 5-21 5-13 11-23 14-24 2-5v-18l-5-23-10-29-7-18-1-3v-17l4-15 7-17 10-16 13-16 15-15 12-9 13-8 10-4 9-2h6z" fill="#36B9F7"/>
<path transform="translate(804,736)" d="m0 0 6 2 4 4 5 3 7 7 9 11 7 7 9 11 5 6 1 3 5 5 12 15 9 12 8 11 1 4h2l1 4h2l13 19 7 10 15 22 25-2 63-7 118-13h6l-1 11-14 67-11 54-5 20-4 8-6 7-1 3-4 4-2 4-2 1-1 3-4 4-1 3-2 1-1 3-2 1-1 3-4 4-2 4h-2v3l-2 1-1 3-5 5-4 7-5 5-6 10-4 2-6 1 3 11 3 15 3 9 2 14 2 7 2 20 1 1 1 15v26l-1 13-6 24-1 8h-1l-11-33-9-30-11-35-10-38-9-36-5-13-6-10-8-7-10-5-4-1h-19l-17 6-25 11-30 15-27 16-22 13-15 10-16 1-31 3h-7l4-7 4-5 14-20h2l2-4 12-17 12-16 10-14 3-5 6-24 13-63 4-24 4-20v-7l-3-5-5-5-7-8-8-7-1-2-7-4-3-2v-2l-4-1-4-2-27-3-12-1h-21l-4-6-2-5v-16l2-7 2-1 15-1 8-3 11-6 8-7 8-11 5-11 3-7 3-16h2v-2l5-5 3-5 1-8-2 5-5 6h-3z" fill="#308DC1"/>
<path transform="translate(350,698)" d="m0 0h16l15 4 18 10 20 14 15 13 15 15 9 11 11 15 11 18 8 15 5 16 3 14 1 10v15h-2l-1 9-6 16-8 19-5 13-2 7-5 16-4 18-1 16v20l5 12 12 19 2 3v3h2l2 6v9l-2 18-2 32v48l2 26 3 24v7l-8 6-9 5h-2v2l-16 6-21 6-28 5h-5l3-22 3-18 3-25v-22l-5-27-10-28-5-10-7-23-6-15-4-16-6-33-1-14v-19l-1-4 9-14 5-6 5-5 7-10 7-7 7-10v-2l-8 4-9 10-8 8-12 16-3-4-1-5 1-3v-13l-1-2 5-13 1-4-3-1 3-9-3 3-3 12-2 13-1 2 3 1-3 2-3 9-1 6v10l1 11v18l2 9 4 33 3 16h2l2 10 6 20 1 9 5 10v2h2l3 6v5l-5-2-3-5-3-1-5-5-7-3v-2l-6-1-9-4-5-5-7-10-7-6-1-2-14-7-5-5-9-12-4-16-1-1v-17l1-9h2v-17l-3-10-3-5-5-2-4-7v-2h-2l-9-25-4-15-1-6v-20l3-10 6-8 10-9 22-15h2v-2l6-4 5-5 7-11 5-13 2-11v-25l-3-23v-19l3-12 4-6 6-5z" fill="#053271"/>
<path transform="translate(748,873)" d="m0 0h18l30 3 12 2 5 3v2l5 2 6 4 5 5 7 8 5 5 5 6 2 3v7l-6 30-2 14-11 54-8 33-6 9-8 11-14 19-12 17-4 4-11 16-8 11 15-1 30-3h6l-1 3-15 9-12 9-14 9-18 13-17 12-10 7-10 4-31 13-22 8-8 3-21 4h-13l-7-2-3-5-6-26-9-41-2-10-8-42-5-33-5-46-1-12-1-26v-16l2-32 3-20 5-19 3-5 2-5 4-3 20-4 21-2 1-1 26-3 13-1 2-1 6 16 9 15 11 12 8 7 14 9 12 5 6 2 6-1 4-5 5-13 2-10v-20l-5-12-4-7z" fill="#84B5D9"/>
<path transform="translate(982,570)" d="m0 0h348l13 4 9 5 9 8 7 10 5 12 1 5v44l-4 12-7 10-5 6-10 7-11 5-6 1h-392v-83l2-12 5-10 8-10 11-8 12-5z" fill="#6CA5FD"/>
<path transform="translate(352,1281)" d="m0 0h138l4 4v8l-4 20-2 17-20 100-3 14h-2v9l-4 9-86 1h-58l-2 13-1 2h-104l-4-16-20-99-1-10 3-1 101-1-2-13-3-16 8-3 12-3 9-4 13-6h2v-2l7-4 11-10 6-8z" fill="#015E92"/>
<path transform="translate(587,889)" d="m0 0 7 1 11 9 8 10 7 15 8 28 6 31 4 31 4 46 7 87v5l25-10 36-12 50-15 14-5 6-2-2 5-12 17-8 11 15-1 30-3h6l-1 3-15 9-12 9-14 9-18 13-17 12-10 7-10 4-31 13-22 8-8 3-21 4h-13l-7-2-3-5-6-26-9-41-2-10-8-42-5-33-5-46-1-12-1-26v-16l2-32 3-20 5-19 3-5 2-5z" fill="#F1F9FC"/>
<path transform="translate(668,573)" d="m0 0h30l9 3 8 5 6 9v12l-4 12 5-2h20l16 4 16 8 11 7 11 10 7 10 7 14 2 12-3 7-4 5-7 4-7 1h-42l-4 4h-2l-2 4-15 6-13 1-9-1h-9l-4 2-6 10-2 8-1 35h-3l-2-4-3-2v-2l-8-1-2 4h-2l-2 7v8l6 16 3 9 1 8v16l-2 10-3 5-9-3-7-7-5-11-5-17-3-18-2-13-9-12-7-10-7-14-3-9-2-13v-14l1-17 3-7 3-10 3-6h2l2-5 3-6-9 1-5-1v-2l-5-2-3-4v-2h-2l-3-10v-7l2-6 5-9 9-9 15-9 17-6 16-4 7-1z" fill="#053271"/>
<path transform="translate(1094,1026)" d="m0 0 7 1 1 5 2 4-2 4-4 4-2 4-2 1-1 3-4 4-1 3-2 1-1 3-2 1-1 3-4 4-2 4h-2v3l-2 1-1 3-5 5-4 7-5 5-6 10-4 2-6 1 3 11 3 15 3 9 2 14 2 7 2 20 1 1 1 15v26l-1 13-6 24-1 8h-1l-11-33-9-30-11-35-10-38-9-36-5-13-6-10-8-7-10-5-4-1h-19l-17 6-25 11-30 15-27 16-22 13-15 10-16 1-31 3h-7l4-7 4-5 14-20h2l2-4 12-17 12-16 8-11 7-6 34-4 65-7 84-9 51-6z" fill="#0478B3"/>
<path transform="translate(568,923)" d="m0 0h3l2 4-3 25v48l3 40 4 24 5 35 8 44 2 12 3 12 10 44 3 13 2 4 7 2h13l24-5 8-3 19-7 26-11 11-5 2 1-2 2h-3v2l-17 13-10 9-7 7-10 14-4 8-4 12-2 10v19l4 17 8 16 11 12 9 8 16 10 14 6 13 4 10 2 10 1h49v1l-10 1h-49l-10-1-16 2-19-1-25-4-13-4-10-6-10-9-9-12-8-14-15-24-9-15-12-22-7-17-8-30-8-39-9-44-4-21-5-38-3-32v-47l3-29 4-19 4-10 5-8z" fill="#025E92"/>
<path transform="translate(286,1338)" d="m0 0h1l2 9v7h46l-1 7-12 66-7 33h145l-1 2-86 1h-58l-2 13-1 2h-104l-4-16-20-99-1-10 3-1 101-1z" fill="#328EC1"/>
<path transform="translate(666,753)" d="m0 0 6 1 7 6 1 6h4v-11l7 1 9 2 11 1 9 15 9 7 6 2h8l9-4 4-2 2-4 7-13 4 2 7 9 10 6 4 2 13-1v10l-3 9-5 12-6 9-7 8-10 7-7 4-7 2-17 1-1 7v16l5 10 5 6 4 8 2 6v20l-4 16-5 10-5 4-7-1-13-5-13-8-10-8-10-10-9-14-6-12-2-5v-29l-2-15v-13l1-17h-2l-2-12-7-17-1-4v-8l3-7h2l1-4z" fill="#F1F9FC"/>
<path transform="translate(804,736)" d="m0 0 6 2 4 4 5 3 7 7 9 11 7 7 9 11 5 6 1 3 5 5 12 15 9 12 8 11 1 4h2l1 4h2l13 19 7 10 13 19 1 5-51 6-27 3-3 12-5-2-6-7-7-8-8-7-1-2-7-4-3-2v-2l-4-1-4-2-27-3-12-1h-21l-4-6-2-5v-16l2-7 2-1 15-1 8-3 11-6 8-7 8-11 5-11 3-7 3-16h2v-2l5-5 3-5 1-8-2 5-5 6h-3z" fill="#0268A5"/>
<path transform="translate(365,893)" d="m0 0h2l-1 8-1 1 2 1-1 8-4 9 1 2v13l-1 6 3 5 13-17 18-18 7-3v3l-9 12-7 7-7 11-6 5-11 17 1 10v13l1 14 5 29 4 16 6 16 5 16 5 15 5 10 8 23 5 27v22l-3 25-5 31-2 9 33-6 21-6 12-5h4v-2l14-8 2-2 4 1 3 9 7 29 10 26 9 17 1 5h2l3 6 8 11 3 5 8 11 5 5 11 12 7 5 5 5 13 10 9 6 1 4-7 29-2 10-1 3h-2l-1 7-3 12h-2l-1 4-2 1-4-3 1-8 4-13 6-26v-14l-2-5-4-2-11-9-13-13-5-4v-2l-4-2-4-4v-2l-4-2-7-6v-2l-4-2-5-5-4-5-4-1-6 5-7 20-9 43-6 27-5 25-3 3-5-1 1-10 26-131 2-9v-4l-3-1-48-1h-92l2-6 6-16 2-18h25l3-13 5-22 3-26v-30l1-3-3-1-3-12-3-13-6-10-5-4v-2l-5-2-13-9-15-9-3-3 1-3 9 2 8 3v2l9 3 3 3v2l4 1 3 5 4 2-3-11h-2l-6-12-2-13-6-19v-7h-2l-2-5-4-26-2-18-2-9v-23l-1-6v-10l3-12 2-4v-1-3l2-13 4-14z" fill="#EFF8FC"/>
<path transform="translate(951,1454)" d="m0 0h16v22l6 36 5 15 6 11 9 12 2 7 2 2v3h2l9 13 9 10 7 10 1 2v7l-5 4-6 3h-11l-13-5-12-8-13-10-10-9-12-11-16-17-10-12-10-15 1-6v-56l-1-4 1-2 32-1z" fill="#F0F9FC"/>
<path transform="translate(344,1083)" d="m0 0 6 1 14 8 14 10 2 1v2l4 2 6 8 3 7 4 19 1 3 2 1v33l-3 26-7 33-2 3-19-1-6-2-3-24-5-20-7-20-14-29-7-12 3-9 7-16 4-13h2z" fill="#043371"/>
<path transform="translate(1031,1434)" d="m0 0 4 1 12 16 8 10 11 11 4 5 8 7 10 9 16 11 11 6 13 4h7l7-3 4-5v-10l-9-14-12-15-3-6 5 2 8 8 7 8 13 16 8 8 6 5 14 14v2h2l1 2v6l-6 7-13 8-16 6-4 1h-12l-9-2-14-8-16-12-5-5-3-2v-2l-4-2-11-10-11-9-5-4v-2l-4-2-11-11v-2l-3-1-9-14-3-8 1-13z" fill="#053371"/>
<path transform="translate(323,171)" d="m0 0h12l7 3 5 2 1-4h17v56l-2 16-4 8-7 7-8 4-5 2h-16l-9-4-8-6-3-3v-2h-2l-2-4 1-5 8-4h6l7 9 5 2h9l8-5 2-3 3-12-9 5-4 1h-13l-10-4-5-5-5-6-3-6v-17l4-10 4-6 7-6z" fill="#063472"/>
<path transform="translate(222,348)" d="m0 0h9l14 4 13 6 8 2 10-1 18-8 12-3h8l13 4 14 7 8 1 11-4 14-6 9-1 2 4v10l-3 4-9 4-12 6-7 2h-15l-11-4-12-7-9-1-11 4-13 6-6 2h-18l-10-3-16-8-10-1-11 4-12 6-7 2h-17l-15-5-17-8-1-1v-15l1-1h7l19 7 7 3 9 1 12-3 12-6z" fill="#9BA5C8"/>
<path transform="translate(1e3 1106)" d="m0 0 2 3 1 4 18-1 12-2h5l5 13 3 15 3 9 2 14 2 7 2 20 1 1 1 15v26l-1 13-6 24-1 8h-1l-11-33-9-30-11-35-10-38-7-29z" fill="#0368A5"/>
<path transform="translate(904,1522)" d="m0 0 4 2 8 12 8 10 22 24 16 15 13 10 15 10 13 5h11l9-5 1-1v-7l-6-9-12-14-7-10v-2h-2l-3-5v-3l4 2 9 10 33 33 4 8v14l-4 10-9 12-3 1h-8l-4-1v-2l-6-1-13-7-18-12-17-13-16-13-12-9v-2l-6-3v-2l-4-2-12-9v-2l-4-2-6-4-4-7-3-6v-8l3-8z" fill="#053372"/>
<path transform="translate(642,1032)" d="m0 0 3 4 9 25 10 21 9 10 12 6 4 1h33l14 2 12 5 6 4 3 5v2l-47 14-36 12-20 8h-4l-2-19-4-51v-15l-3-27v-6z" fill="#5E9BD8"/>
<path transform="translate(690,143)" d="m0 0h37l13 2 8 6 6 7 3 11-1 13-5 9-8 7-3 2-9 2h-22v36h-19z" fill="#073574"/>
<path transform="translate(789,728)" d="m0 0h9l10 5 8 9h-3l-5-4-4-2 1 5v27l4-2 4-5 2-5 1 4-3 9-5 6h-2v2h-2v5l-1-4-8 2-7-1-9-5-6-5-6-8h-2l-6 12-5 5-5 4-6 2h-8l-7-3-9-7-6-10-2-4-15-2-12-3v11h-4l-1-3h3v-15l1 2h11l9 3 8 2 5-10 6-7 7-4 4-1h12l10 5 5 6 4 10 3 1 2-11 7-10 10-5z" fill="#4AB6F3"/>
<path transform="translate(248,170)" d="m0 0h11l10 3 9 6 7 10 3 10v15l-5 10-8 9-6 4-8 2h-15l-10-4-7-5-8-12-1-6v-14l2-9 7-9 7-6 7-3z" fill="#053372"/>
<path transform="translate(600,170)" d="m0 0h12l10 2 8 5 7 7 5 11 1 7v8l-3 10-6 9-8 6-10 4h-16l-12-6-8-8-4-8-1-4v-17l2-6 6-10 8-6z" fill="#053371"/>
<path transform="translate(365,893)" d="m0 0h2l-1 8-1 1 2 1-1 8-4 9 1 2v13l-1 6 3 5 13-17 18-18 7-3v3l-9 12-7 7-7 11-6 5-11 17 1 10v13l1 14 5 29 4 16 6 16 5 16 5 15 5 10 8 23 5 27v22l-3 25-5 31-2 9 33-6 12-3 3 1-17 5-24 4h-8l1-13 4-28 2-8h-4l-2 14-2 3 2-18 1-14v-28l1-3-3-1-3-12-3-13-6-10-5-4v-2l-5-2-13-9-15-9-3-3 1-3 9 2 8 3v2l9 3 3 3v2l4 1 3 5 4 2-3-11h-2l-6-12-2-13-6-19v-7h-2l-2-5-4-26-2-18-2-9v-23l-1-6v-10l3-12 2-4v-1-3l2-13 4-14z" fill="#DAE8F3"/>
<path transform="translate(790,170)" d="m0 0h16l9 5 6 6 1 6h2v51h-13l-3-4v-2l-5 2-6 4-3 1h-11l-10-5-4-5-2-4v-13l8-9 13-4 16-3 2-1-1-6-4-3h-11l-8 8-8-1-6-1 1-7 4-6 8-6 3-2z" fill="#063372"/>
<path transform="translate(962,172)" d="m0 0h18l1 38 2 8 3 3 9 1 6-4h2l1-46h18v65l-15 1-1-4-5 1-5 3-4 1h-10l-10-4-6-7-4-9z" fill="#063473"/>
<path transform="translate(833,172)" d="m0 0h19l2 2 4 10 9 20 3 5 6-16 4-9 5-12h18l-2 9-7 15-3 7-4 9-5 12-3 5-3 7-4 9-8 17-1 1h-18l1-6h2l1-5 4-8 3-7 2-5v-6l-9-19-16-32z" fill="#063372"/>
<path transform="translate(450,170)" d="m0 0h12l10 6 6 9 1 3v49h-17l-1-38-2-8-7-4h-6l-7 6-1 3-1 41h-18v-64l1-1h15l2 6 11-7z" fill="#063573"/>
<path transform="translate(1105,172)" d="m0 0h20l5 12 4 9 6 14v2h2l2-6 4-10 8-19 2-2h17l-3 10-10 22-3 7-15 33-8 18-1 1h-18l2-7 4-8 3-7 4-9v-6l-16-32-8-17z" fill="#053271"/>
<path transform="translate(155,143)" d="m0 0h16l1 76 41 1v17h-60v-93z" fill="#063473"/>
<path transform="translate(936,140)" d="m0 0h10l5 1v15l-9 1-4 1-1 14h14v15l-14 1-1 49h-17l-1-49-10-1v-15l10-1 2-16 6-9 7-4z" fill="#053271"/>
<path transform="translate(250,1097)" d="m0 0 5 3 12 12 8 10 4 3-1-15 4 5v10l-2 2 1 8v12l-3 11v9l-3 16-6 22-4 13-2 5 5-2 16-9 10-4h6l-1 4-10 3-16 10-6 3-7 6-4 8-5 18-1 2v21l5 29 3 11 3 1 20-1 3 7 4 18v3l-23-1-13-2-1-4 4-3 11-2 1-3-6-2-9-2v-2l-4-2-1-2h4l-7-49v-12l3-1-1-9 4-15 9-22 6-18 5-16 7-38 1-9-7-11-9-10-7-9-5-5z" fill="#EDF7FD"/>
<path transform="translate(535,153)" d="m0 0h16l1 18 12 1v15l-1 1-11 1v32l12 1 1 1-1 14-1 1h-16l-9-6-3-5-1-4-1-34-11-1v-15l10-4h2z" fill="#063372"/>
<path transform="translate(979,939)" d="m0 0h9l9 3 8 7 4 8v11l-5 10-7 7-5 2h-7l-6 1-8-3-8-8-3-8v-11l3-8 7-7z" fill="#F0F8FC"/>
<path transform="translate(1040,141)" d="m0 0h18v97h-18z" fill="#093876"/>
<path transform="translate(629,1392)" d="m0 0 9 3 19 6 21 5v2l13 2 1 1 30 3 2 2h37l23 2-1 3-5 1-27 1-21-1-4-1-26-1-14-3-11-2-8-2-12-2-14-4-9 1-3 9-11 18-7 14-4 5-7 2v-8h2l3-9 8-17 2-6h2l2-6 7-15h2z" fill="#F0F9FC"/>
<path transform="translate(1078,141)" d="m0 0h17v96h-17l-1-49v-46z" fill="#053271"/>
<path transform="translate(557,1449)" d="m0 0 2 2v8l-6 21-3 5-6 15-2 7-1 1-1 11-3 9-1 4-6 2-1 2-5 1-3-8-5 2h-3v-3l-2-1 2-5-2-1-2 7h-1v-6l4-6 4-9 5 1 4-1h1 2l1-5v-7l-1-6 1-6-4 1-1 5-4-2-1-3 2-1 1-4 10-7 5-1 2 2 3-1 2-6 10-5 1-9z" fill="#DBE5F5"/>
<path transform="translate(365,893)" d="m0 0h2l-1 8-1 1 2 1-1 8-4 9 1 2v13l-1 6 3 5 13-17 18-18 7-3v3l-9 12-7 7-7 11-6 5-11 17 1 10v13l1 14 5 29 4 16 6 16 2 5-1 4-8-18-2-10-3 1-2 2v-7h-2l-2-5-4-26-2-18-2-9v-23l-1-6v-10l3-12 2-4v-1-3l2-13 4-14z" fill="#A3B2D2"/>
<path transform="translate(443,1481)" d="m0 0 4 1 3 1 3 5-1 4h-2v6l6-1h2l-1 4-3 3h-8l-2 5-4 2h-7l-9 4-2 1v2h5l2-2 13 1v-2l12-2 5-2 10 3-1 7-4 4-4 2-1 2-4 1-4-2h-2v2l-16 1-6-1h-5l-2-2-7-2v-8l-2-2 5-7 1-3 4 2 4-1-1-6h2v-2l5-2 1-3h2l2-4h1v7l5 1 2-8-2-5z" fill="#DBE5F5"/>
<path transform="translate(733,738)" d="m0 0h10l7 3 7 7 1 3v12l-3 6-7 7-4 2h-11l-9-6-6-9-1-8 5-10 8-6z" fill="#F0F9FC"/>
<path transform="translate(975,1308)" d="m0 0h2l12 26 6 18v4l-16 11-10 6-3 2 1 21 2 21v9h-1l-2-11-2-9-1-40 6-31 5-25z" fill="#0167A4"/>
<path transform="translate(1024,619)" d="m0 0h8l3 2 1 13 8-1 1-4 4-1 1 28-7 1h-35l-1-1v-27l4 1v2h3v2h6l2-5v-9z" fill="#66A2F4"/>
<path transform="translate(382,172)" d="m0 0h18v66h-18z" fill="#063372"/>
<path transform="translate(478,1579)" d="m0 0 6 2 16 8h5l3-5 3-2h4l2 6v4h2l1-3 3 1-2 5 9 3 10 5 27 8 14 4 65 14 6 1-2 1v2l3 1h-10l-40-7-34-8-26-7-23-8-20-8-2-2-7-3-5-3-1-3-5-1z" fill="#DBE5F5"/>
<path transform="translate(1290,1561)" d="m0 0 1 2-7 8-9 8-15 10-10 5-23 10-8 2h-1l-9 4-9 2 2-1-1-3 5-5-5-1-3 3-2-3 4-5h4l5-1v-3l8-4h2v-2l10-4 5-1 3-3 5 1v3l10-3 10-4 5 2 1 2 4-3h2l-1-2-3 1v-2l10-5h2v-2z" fill="#DBE5F5"/>
<path transform="translate(805,879)" d="m0 0 8 2v2l5 2 6 4 5 5 7 8 5 5 5 6 2 3v7l-7 34-2-1-9-26-9-20-11-21-5-7z" fill="#EFF8FC"/>
<path transform="translate(789,733)" d="m0 0h11l4 4 1 4v23l-3 7-3 2h-12l-9-6-1-3h-2l-3-10 3-10 7-8z" fill="#F0F9FC"/>
<path transform="translate(892,1401)" d="m0 0h4v15l-2 25-2 5h-5l-2-5v-10l-1-11-3-3h-13l-7 1-38 1-7-1 2-4 11-3 16-2h8v-2z" fill="#EDF6FB"/>
<path transform="translate(603,187)" d="m0 0h12l8 7 2 5v12l-6 9-5 3h-11l-7-5-4-9v-9l4-8z" fill="#EBF4FA"/>
<path transform="translate(248,187)" d="m0 0h12l7 5 3 6v13l-3 6-8 6h-11l-8-7-3-8v-7l5-10h2v-2z" fill="#EBF5FA"/>
<path transform="translate(718,1199)" d="m0 0 2 1-2 2h-3v2l-17 13-10 9-7 7-10 14-6 12h-1l-5-34-4-1 24-8 28-12z" fill="#5E9BD6"/>
<path transform="translate(326,187)" d="m0 0h12l7 6 2 4v12l-3 5h-2v2l-5 3h-11l-7-6-2-4v-12l6-8z" fill="#EBF5FA"/>
<path transform="translate(670,806)" d="m0 0h1v30l2 15v22l-3 5h-18l1-10 4-21v-11l-1-2 7 2 2 1 2-5 2-10z" fill="#015E93"/>
<path transform="translate(251,1313)" d="m0 0 6 12 5 3 1-2 6-2 12-1 3 7 4 18v3l-23-1-13-2-1-4 4-3 11-2 1-3-6-2-9-2v-2l-4-2-1-2h4z" fill="#F1F9FD"/>
<path transform="translate(710,159)" d="m0 0h15l8 3 4 4 1 2v9l-6 7-4 2h-18l-1-1v-25z" fill="#EAF4FA"/>
<path transform="translate(400,1247)" d="m0 0 16 2 6 2 5 5 6 7-1 3-9 3-19 1-7-2-3-3v-10l2-5z" fill="#E2F0FD"/>
<path transform="translate(789,728)" d="m0 0h9l10 5 8 9h-3l-5-4-6-2-2-2h-11l-8 4-5 6-3 10 2 10h2l5 5 5 3h12l4-4 2-4v4l4-2 4-5 2-5 1 4-3 9-5 6h-2v2h-2v5l-1-4-8 2-7-1-9-5-6-5-6-8h-2l-3 4 1-7 1-4 3 1 2-11 7-10 10-5z" fill="#4BB5F1"/>
<path transform="translate(1209,615)" d="m0 0h5l1 3v13l3-3h10l4 2 3 8v7l-3 5-4 3h-16l-1-1-1-8z" fill="#053271"/>
<path transform="translate(401,1122)" d="m0 0 2 3 5 27v22l-3 25-5 31-2 9 33-6 12-3 3 1-17 5-24 4h-8l1-13 4-28 2-8h-4l-2 14-2 3 2-18 1-14v-28l1-3-3-1 1-2 7 3-3-13z" fill="#6FA2CD"/>
<path transform="translate(358,968)" d="m0 0h3l1 9 2 9 1 14 5 29 4 16 6 16 2 5-1 4-8-18-2-10-3 1-2 2v-7h-2l-2-5-4-26-2-18-2-9v-9l3-1 1-1z" fill="#7FA2C9"/>
<path transform="translate(568,1495)" d="m0 0 4 1v5l3 3-2 6-9 19-3 1-1 4-4 1-5-5-1-3v-8l4-19 2-3v7l3 1 1-3h4l2-6z" fill="#137FB8"/>
<path transform="translate(478,1440)" d="m0 0 4 1 2 13 2 2v7l-1 7 4 5v7l-5 2v3h-7l-1-6v-3l-5-3-3-3v-7l3-6 2-1 2-12z" fill="#DBE5F5"/>
<path transform="translate(184,1368)" d="m0 0 1 4h2l15 75v9l-5-1-3-8-4-20v-7l-1-6h-2l-2-20h-1v-7l-1-2-2-14 3-1z" fill="#F0F8FD"/>
<path transform="translate(1250,627)" d="m0 0h9l5 4 2 7v7l-3 7-3 2h-10l-5-5-1-2v-13l3-5z" fill="#67A2F4"/>
<path transform="translate(1135,627)" d="m0 0h8l5 3 2 5v12l-2 5-4 2h-9l-5-5-1-2v-13l3-5z" fill="#579AE4"/>
<path transform="translate(989,953)" d="m0 0h6l3 3v8l-5 5-4 1-2 5-1 9-5-2-8-6-4-5-1-5 6-3 9 1v-6z" fill="#84B5DB"/>
<path transform="translate(402,908)" d="m0 0 2 2-7 9-7 8-4 5-8 11-5 5-7 10-5 5-5 3-1-2 4-8 7-9 2-5 10-13 18-18z" fill="#D2E3F1"/>
<path transform="translate(1108,627)" d="m0 0 6 1 3 3 2 18v5h-5l-1-22-8 1-3 1v19l-5 1-1-2v-19l-10-1h-2v22h-4l-1-12v-13l1-1h16l5 5 4-5z" fill="#053271"/>
<path transform="translate(363,1239)" d="m0 0h1v11h2v2l6-1 10-3 6 1v9l-2 7-5 3h-8l-3-1-4-5-5-2z" fill="#E2F0FD"/>
<path transform="translate(387,140)" d="m0 0h8l5 5 2 4-1 6-5 5-8 1-5-3-3-4v-6l4-6z" fill="#063372"/>
<path transform="translate(628,1391)" d="m0 0 18 2 2 2v3l10 2 12 2v2l10 1 30 5 42 3h21l53-3 18-2h9v1l-24 3-40 3h-48l-34-3-24-4-26-6-24-8-4-1-2 2z" fill="#79AEDA"/>
<path transform="translate(501,1472)" d="m0 0 5 1 3 4-1 5-5 1-2 5-3 2-9 2-1 7-4 3-6-1-1-1 1-7 6-4v-2l6-1 1-6 5-5 4-2z" fill="#DBE5F5"/>
<path transform="translate(250,1097)" d="m0 0 5 3 12 12 8 10 4 3-1-15 4 5v10l-2 2 1 8v12l-3 11v9l-1-4h-2v-7l3-13v-6l-7-11-9-10-7-9-5-5z" fill="#E2EFFC"/>
<path transform="translate(804,736)" d="m0 0 6 2 4 4 5 3 7 7-1 2-6-5-2 12-2 2v-6l-2 5-5 6h-3z" fill="#3C92C5"/>
<path transform="translate(1047,628)" d="m0 0h2l1 28-7 1h-35l-1-1v-27l4 1 2 5h-1l-2 19 2-1h33v-24z" fill="#053271"/>
<path transform="translate(795,209)" d="m0 0h11l1 1-1 8-4 5-5 3h-8l-5-5v-6l5-4z" fill="#E1EDF6"/>
<path transform="translate(249,1260)" d="m0 0 1 2v21l5 29 3 11 3 1 6 1-4 1-1 3-1-2-5-2-4-8-2-1-4-27-2-12v-12l3-1v-3z" fill="#E4F1FD"/>
<path transform="translate(1010,644)" d="m0 0 2 2 1-1h21l8 1-3 2-6-1 1 2 11-1v5l2 1h-37z" fill="#308DC1"/>
<path transform="translate(1221,631)" d="m0 0 7 1 3 4v8l-3 5-2 1h-9l-2-1-1-8 1-7z" fill="#69A4F9"/>
<path transform="translate(1024,619)" d="m0 0h8l3 2 1 13 8-1-2 4-1 4-4 1-2-1-2-9h-7l-5 7h-5l-2-4 4-1h2l2-5v-9z" fill="#053271"/>
<path transform="translate(824,887)" d="m0 0 10 3 7 6 6 5 2 3h3l-2 11-5-2-6-7-7-8-8-7-1-3z" fill="#0A7AB4"/>
<path transform="translate(1162,628)" d="m0 0h14l4 4 2 3 1 18-5 1-1-2v-14l-1-5-2-1-9-1 1 22h-5v-24z" fill="#053271"/>
<path transform="translate(1250,627)" d="m0 0h9l5 4 2 7v7l-3 7-3 2h-10l-5-5-1-2v-13l3-5zm2 3-4 4-1 3v7l3 5 2 2h6l5-5v-5l-1-1v-6l-5-4z" fill="#053271"/>
<path transform="translate(273,1086)" d="m0 0 5 5 2 15 3 8v29l-3 13-1 11h-1l-1-9 3-11v-12l-1-8 2-2v-10l-2-2v12l-4-2 2-1-3-21-2-12z" fill="#7CB0E6"/>
<path transform="translate(1135,627)" d="m0 0h8l5 3 2 5v12l-2 5-4 2h-9l-5-5-1-2v-13l3-5zm2 3-4 4-1 7 1 7 5 3 7-1 3-4-1-11-4-4z" fill="#053271"/>
<path transform="translate(352,1280)" d="m0 0h144l1 5-7 34h-1l1-11 3-15v-8l-3-3-138-1z" fill="#3B91C4"/>
<path transform="translate(362,932)" d="m0 0 1 3-1 6 3 5 2-1-2 4-7 10-2 6 5-3 2-1v5l1 1-1 13-2-3v-9l-2 1-1 3-3-1-1-2v-12l-1-6v-10l1-4h3l1 5h-3v7l5 2 3-6-3-1v-8l-1-2z" fill="#8BA7CC"/>
<path transform="translate(682,748)" d="m0 0 1 2h11l9 3 8 2 2-2v8l-2-1-15-2-12-3v11h-4l-1-3h3z" fill="#73AAF4"/>
<path transform="translate(773,1118)" d="m0 0 1 3-2 4h-2l-2 5-3 7 3-1v3l1-2h2v2l8-1 5-1 9-1 4-1h13l1 3-16 1-31 3h-7l4-7 4-5z" fill="#4B99CB"/>
<path transform="translate(640,1035)" d="m0 0 2 4 3 27v15l5 63 1 8h-2l-1-5-8-99z" fill="#86B5D8"/>
<path transform="translate(468,1479)" d="m0 0 3 2v6l3 5-5 4-1 5-5 2-3-3 5-5h-4l-6 1v-5l3-3v2l5-2 4-5h2z" fill="#DBE5F5"/>
<path transform="translate(1276,628)" d="m0 0h12l3 2-2 4-9-1 1 20h-6z" fill="#0B3876"/>
<path transform="translate(401,1148)" d="m0 0 5 2 1 4v18l-4 4-2-1-1-26z" fill="#EAF3FA"/>
<path transform="translate(1189,627)" d="m0 0 6 1 4 6 1 7v12l-5 1-1-3 1-6-1-13-7 1-5 2 3-6z" fill="#053271"/>
<path transform="translate(1234,1499)" d="m0 0 10 4 17 8 4 4v3l2 2-4-1-22-12v-2l-5-1v-2l-3-1z" fill="#DBE5F5"/>
<path transform="translate(358,968)" d="m0 0h3l1 9 1 4-1 12-3-1-2-3-2-4-1-5v-9l3-1 1-1z" fill="#8EA2C8"/>
<path transform="translate(670,806)" d="m0 0h1v30l2 15v22h-1v-18h-2l-3-5-1-7 3-21z" fill="#468BBD"/>
<path transform="translate(678,1407)" d="m0 0 10 1 19 3 34 3 19 1v1l-36 1-2-2-30-3-1-1-10-2z" fill="#E2F0FD"/>
<path transform="translate(365 1e3)" d="m0 0h1l4 24 4 16 6 16 2 5-1 4-8-18-2-10-3 1-2 2v-7h-2l1-2 5 1-4-13-1-6z" fill="#76A1CA"/>
<path transform="translate(360 1e3)" d="m0 0h2l8 32v3l-3 1-4-2v-12l-2-10z" fill="#D9E4F4"/>
<path transform="translate(365,893)" d="m0 0h2l-1 8-1 1 2 1-1 8-4 9 1 5-6-1 3-16 4-14z" fill="#7AA2CA"/>
<path transform="translate(354,1275)" d="m0 0 3 2h93l6 1v1h-103z" fill="#E1EFFC"/>
<path transform="translate(250,1296)" d="m0 0h2l4 20 3 8 8 1-4 1-1 3-1-2-5-2-4-8-2-1-2-11 1-6z" fill="#E2F0FC"/>
<path transform="translate(1122,1461)" d="m0 0 5 2 8 8 7 8 5 6-1 2-13-10-10-13z" fill="#2376A9"/>
<path transform="translate(806,740)" d="m0 0 5 5 1 10-2 8-4 3z" fill="#066EAB"/>
<path transform="translate(403,1177)" d="m0 0 3 1v6l-1 3v9h-1v-5h-4l-2 14-2 3 2-18 1-10z" fill="#8DA6CB"/>
<path transform="translate(274,1163)" d="m0 0h3v12l-5 19-2-3-2 2 2-9z" fill="#EBF6FD"/>
<path transform="translate(744,757)" d="m0 0 5 2 1 5-5 5-6-1-1-1v-7z" fill="#55B3F0"/>
<path transform="translate(1145,640)" d="m0 0 3 3-1 4-2 3-7 1-5-3 1-5 7-1z" fill="#62A5F6"/>
<path transform="translate(1024,619)" d="m0 0h8l3 2v7h-12l-1-2v-6z" fill="#4E97D8"/>
<path transform="translate(791,753)" d="m0 0h6l2 2v7l-2 2h-7l-2-2 1-8z" fill="#4CB4F0"/>
<path transform="translate(531,1507)" d="m0 0 4 5 1 2-3 6-1 1h-6l-1-1v-6z" fill="#E2F0FD"/>
<path transform="translate(294,1208)" d="m0 0h6l-1 4-10 3-5 2-5 1-4 2-3-1 10-6z" fill="#E2F0FC"/>
<path transform="translate(305,1471)" d="m0 0 6 1-1 4h-41v-1l6-1 27-1z" fill="#0479B4"/>
<path transform="translate(964,1376)" d="m0 0h1l3 32 1 9v9h-1l-2-11-2-9z" fill="#3684B6"/>
<path transform="translate(400,1191)" d="m0 0h4l-1 8-3 19h-1l-1-8-3 2v-4h2l2-14z" fill="#D8E3F4"/>
<path transform="translate(743,839)" d="m0 0h7v1h-6l-1 8-1 16 4 8-1 2-4-6-2-5v-16l2-7z" fill="#3C91C6"/>
<path transform="translate(628,1391)" d="m0 0 18 2 2 2v3l10 2 12 2v1h-9l-20-6-10-4h-2l-2 2z" fill="#6DA8D6"/>
<path transform="translate(368,1041)" d="m0 0 3 1 2 5v9l2 10-1 7-1-3-4-16-2-6z" fill="#B9D2E7"/>
<path transform="translate(297,977)" d="m0 0h1v11l-1 8v24h-1l-2-7v-17l1-9h2z" fill="#1073AB"/>
<path transform="translate(1254,631)" d="m0 0 5 2 3 1v6l1 2-7-1 1 3h-4v-7l4-2v-1l-5-1z" fill="#5D9BDA"/>
<path transform="translate(397,1142)" d="m0 0 8 3 1 5-5-1v26l-2-3v-24l1-3-3-1z" fill="#7FA0C7"/>
<path transform="translate(273,1086)" d="m0 0 5 5v13l-2 1-3-7-1-11z" fill="#A1C7ED"/>
<path transform="translate(624,1397)" d="m0 0 2 1-9 18-2-4 1-6 6-7h2z" fill="#2A8AC2"/>
<path transform="translate(718,1199)" d="m0 0 2 1-2 2h-3v2l-9 4h-3v2l-2 1h-8l4-3 19-8z" fill="#7FAED5"/>
<path transform="translate(378,1086)" d="m0 0 2 1v2h2l3 6v5l-5-2-3-5-3-2h3z" fill="#084D85"/>
<path transform="translate(792,694)" d="m0 0 3 1-12 3-9 1-9-1-6-2v-1h27z" fill="#E1EEFB"/>
<path transform="translate(682,748)" d="m0 0 1 2h11v1l-7 1-1 3h-2v11h-4l-1-3h3z" fill="#B0CFEA"/>
<path transform="translate(355,942)" d="m0 0 5 1 3 2-3 6-5-1-1-1z" fill="#E4EEF9"/>
<path transform="translate(1058,1500)" d="m0 0 4 1 12 10v1h-7l-1-4-5-3z" fill="#D1E5F3"/>
<path transform="translate(489,1019)" d="m0 0h1v22l-2 3h-3l-1-3h3l1-13z" fill="#4998CA"/>
<path transform="translate(1164,1500)" d="m0 0 5 1v2h2v2l4 2 6 8v2l-3-1-6-7-8-8z" fill="#F1F9FD"/>
<path transform="translate(403,1177)" d="m0 0 3 1v6l-3 4h-3v-8z" fill="#EAF4FB"/>
<path transform="translate(768,773)" d="m0 0h2l1 3 2 18h-4z" fill="#E1EFFC"/>
<path transform="translate(246,1283)" d="m0 0h2l1 7h2l-1 9-2 2-2-12z" fill="#EDF7FC"/>
<path transform="translate(357,980)" d="m0 0 4 1 1 1v11l-3-1-2-9z" fill="#E5EFF9"/>
<path transform="translate(372,1052)" d="m0 0h2l3 6 1 8-3 2-2-5z" fill="#E5EFFA"/>
<path transform="translate(616,883)" d="m0 0h6l-3 2-20 3-1 1h-9v-1l20-4z" fill="#4693CC"/>
<path transform="translate(1024,619)" d="m0 0h8l2 1v5h-2l-3-3-6 3-1-5z" fill="#053271"/>
<path transform="translate(354,1275)" d="m0 0 3 2 35 1v1h-39z" fill="#E2F0FD"/>
<path transform="translate(361,965)" d="m0 0 3 2-1 13-2-3v-9h-3v-2zm-7 2 5 2-1 3-3-1z" fill="#5899C9"/>
<path transform="translate(862,1581)" d="m0 0 4 1-1 7h-6l-1-4z" fill="#DBE5F5"/>
<path transform="translate(668,1245)" d="m0 0h2l-1 6-4 8h-1v-8l1-5z" fill="#7EA1CB"/>
<path transform="translate(988,956)" d="m0 0 4 2 2 3-1 5-5-2-1-5z" fill="#E8F4FD"/>
<path transform="translate(561,1525)" d="m0 0h2l-2 6-2 2-5-1 1-5z" fill="#036AA7"/>
<path transform="translate(1027,1441)" d="m0 0 1 3-1 8-5-2-1-4 2-3h4z" fill="#F0F9FD"/>
<path transform="translate(360,1006)" d="m0 0h1l2 16 1 6-1 5h-1l-2-11z" fill="#8AA7CC"/>
<path transform="translate(1286,628)" d="m0 0 5 2-2 4h-6l-2-2 1-3z" fill="#053271"/>
<path transform="translate(591,1381)" d="m0 0h1v10l-3 8-1 7h-2l1-8z" fill="#579ECE"/>
<path transform="translate(628,1391)" d="m0 0 18 2 2 4-9-2-10-2-2 2z" fill="#338EC3"/>
<path transform="translate(400,1191)" d="m0 0h4l-1 8-2 7h-1l-1-12z" fill="#E8F1FA"/>
<path transform="translate(364,1029)" d="m0 0 4 1 2 4v3l-3 1-3-2z" fill="#EDF6FB"/>
<path transform="translate(773,1118)" d="m0 0 1 3-2 4h-2l-2 5-2 4-4 4-2-1 10-14z" fill="#4E9BCE"/>
<path transform="translate(1122,1461)" d="m0 0 5 2 8 8 1 3-3-1-5-5-3-1z" fill="#599DCC"/>
<path transform="translate(274,1163)" d="m0 0h3v12l-2 4v-9l-2 4z" fill="#E7F3FD"/>
<path transform="translate(1043,633)" d="m0 0v3l-2 5-4 1-2-2h2v-6z" fill="#2573AB"/>
<path transform="translate(283,1321)" d="m0 0h2l1 3v14l-2-4-2-12z" fill="#2A83BA"/>
<path transform="translate(746,776)" d="m0 0 7 2-4 4-3-1 1-2h-14v-1l11-1z" fill="#79AEEB"/>
<path transform="translate(687,751)" d="m0 0h8l8 2v1l-14-1 1 3-5-2z" fill="#85B6DA"/>
<path transform="translate(680,743)" d="m0 0 2 4v16l-2-4-1-15z" fill="#015F95"/>
<path transform="translate(402,908)" d="m0 0 2 2-4 3v-2l-8 7-4 2 6-8z" fill="#A7BFDB"/>
<path transform="translate(365,893)" d="m0 0h2l-1 8-2 2-2 5-1-4 3-10z" fill="#5893C1"/>
<path transform="translate(994,1554)" d="m0 0 4 2 8 9-3 1-3-4h-3l-3-5z" fill="#2173A5"/>
<path transform="translate(660,1227)" d="m0 0 2 3 2 10 1 4-1 9h-1l-3-21z" fill="#308DC1"/>
<path transform="translate(457,1478)" d="m0 0 4 1 3-1v3l-4 1-1 5-1-4h-2l-1-3z" fill="#DBE5F5"/>
<path transform="translate(1019,647)" d="m0 0 7 1 1 2-11 2-3-2z" fill="#5E9BD9"/>
<path transform="translate(513,1462)" d="m0 0h6l-1 5h-6z" fill="#DBE5F5"/>
<path transform="translate(743,760)" d="m0 0 1 2h4v5h-5l-2-5z" fill="#3290C5"/>
<path transform="translate(1168,1506)" d="m0 0 4 2 7 7-2 2-8-7z" fill="#C1DCF0"/>
<path transform="translate(355,974)" d="m0 0 3 1v2l4 1 1 3h-3l-3-1-1 2z" fill="#8AB7DA"/>
<path transform="translate(1019,1645)" d="m0 0h12l-2 3h-8l-2-1z" fill="#F2FAFD"/>
<path transform="translate(281,944)" d="m0 0 3 4-1 4h-12v-1l11-1z" fill="#79ADE5"/>
<path transform="translate(381,1089)" d="m0 0 3 4 1 7-5-2z" fill="#669BC6"/>
<path transform="translate(976,968)" d="m0 0h5v5h-6z" fill="#E2F0FD"/>
<path transform="translate(606,684)" d="m0 0h1v8l-5 3-3 3-2-1 8-9z" fill="#2F84BB"/>
<path transform="translate(1127,1467)" d="m0 0 5 3 4 4v2l-5-1-4-6z" fill="#086099"/>
<path transform="translate(612,1419)" d="m0 0 2 1-2 6-4 9-1-4 1-4h2l1-7z" fill="#4897CC"/>
<path transform="translate(354,937)" d="m0 0h3l1 5h-3l-1 9h-1v-10z" fill="#83A9CF"/>
<path transform="translate(513,1535)" d="m0 0 2 1v7l-4-1v-6z" fill="#DBE5F5"/>
<path transform="translate(648,1395)" d="m0 0h4v2h5l1 3-10-2z" fill="#127FB8"/>
<path transform="translate(397,1142)" d="m0 0 8 3 1 5-6-1v-4l-3-1z" fill="#94AACD"/>
<path transform="translate(1254,638)" d="m0 0 9 3-3 1-4-1 1 3h-4v-5z" fill="#2B80B6"/>
<path transform="translate(1016,1641)" d="m0 0h6v2l10-2-1 2-3 1h-8l-4-1z" fill="#5599C7"/>
<path transform="translate(362,932)" d="m0 0 1 3-1 6 2 5-4-2v-8l-1-2z" fill="#62A0D1"/>
<path transform="translate(1042,646)" d="m0 0h3l-1 3-11 1v-3h7z" fill="#5E9BD9"/>
</svg>
