<?xml version="1.0" encoding="UTF-8"?>
<svg version="1.1" viewBox="0 0 1600 1513" width="446" height="422" xmlns="http://www.w3.org/2000/svg">
<path transform="translate(0)" d="m0 0h1600v1513h-1600z" fill="#FDFDFC"/>
<path transform="translate(298,303)" d="m0 0h18l14 4 21 10 26 16 16 9 13 6 14 5 4 6-1 7-8 11-9 9-14 9-3 1h-16l-12-4h-4l-2 4-2 9 4 8 3 3-1 6-8 9-7 11-2 11 2 9 8 16 9 19 6 16 15 10 11 6 8 6 6 10 8 18 10 27 13 38 5 17 15 44 7 17 2 2 6 1 86 1 2 4h2l4 6 1 3 3 1 3 5 3 2-1 4-39 12-46 13-25 6-20 4h-9l-10-4-8-6-4-5-4-4-8-10-9-16-8-16-9-20-8-21-4-12-3-5 2 11v11l-3 27-6 21-1 2h-2l-2 6-5 7-1 3h-2l-2 7-6 12-4 20-2 16v49l1 12h32l1-8 14-66 2-4h45l-1 9-14 53-2 7-2 8 2 1 154 3 14 2 11 4-6-19-6-24-5-17-5-20v-7h45l4 15 4 20 7 33 5 25 5 24 2 9 5 21 3 18 4 16 3 17 2 7 2 12 2 9 2 7 2 12 4 20 2 7 5 26 4 16 3 14 2 12 3 12 3 17 2 9 3 12 2 12 3 11 2 12 3 12 3 17 2 9 3 15 2 6 10 49v8l-3 3-3 1h-9l-4-6-19-72-5-21-4-14-11-42-8-31-21-80-11-42-7-28-5-18-11-42-1-3-13 57-19 87-18 81-15 69-6 27-40 1-2-5-9-39-1-7 4-47 12-125 3-35v-17h-2l-3 12-3 15-6 29-20 97-2-2-6-24-11-48-7-32-2-5v-3l27-1 7-2v-9l-7-2-67-1v-12l1-3-20 2h-4l-2 11-1 3h-35l-1-3 2-7-33 3h-11l-7-4-5-4-7-10-4-11-2-17-15-240-133-1 2-6 8-18 5-17 2-11v-69l3-16 5-15 8-15 7-9 9-10 11-9 16-10 12-7 10-5 9-7 4-5 3-9v-19l-1-10v-35l3-24 5-18 6-13 8-13 9-10 10-7 14-7z" fill="#743F7D"/>
<path transform="translate(1115,552)" d="m0 0h92l1 1 1 203h117l10 2 4 5v7l-4 5-6 2h-30l8 36 8 39 3 13 5 23 2 13 2 7 2 11 4 16 5 27 4 16 4 19 3 16 1 6 25 2 8 3v12l-4 26-5 17-6 14v9l5 24 3 18 4 16 12 60 3 11 2 13 2 10 4 16 4 21 2 6 2 13v8l-4 4-6 1-5-2-4-8-2-9-3-9-12-46-8-30-4-16-11-43-7-27v-4l-8 7-12 10-13 9-16 9-14 7v2l10 5 3 5v16l-9 66-7 51-3 10-5 3h-95l-5-5-3-14-13-98-2-15v-14l7-8 7-2h18l-4-6-1-4-4-2-12-13-13-9-10-5v-2l-10-2-17-5-37-9-16-5v-2l-5-1-12-6-9-7-7-7-6-11-1-7-1-1v-20l2-7 7-14 9-9 12-7 14-4h18l14 1v2l8 1 19 6 17 8 5 3v2l5 1v2h3v2l4 1 11 9 1 2 5 3 7 7 2 4 6 5 7 11 2 5 4 4 5 10 3 7 2 7 3 7 8 38 1 11v4l3 1-1-7v-11l-3-20-9-46-1-8v-18l3-16 6-16 7-15 4-13 1-13-5-17-8-19-4-16v-22l3-14 4-10 6-7 7-4 4-1h9l11 4 9 9 5 10v15l-4 12v14l5 15 12 23 3 11-1 9-7 12-9 10-8 10-7 12-2 6v8l4 10h3l12-13 8-8 12-9 15-9 4-2h3l-5-17-8-30-11-43-11-41-13-50-11-42-5-21-2-6-185-1-2-1-2 8-11 42-5 19-6 23-8 29-7 29-4 13-4 16-6 25-4 15-4 16-5 19-2 7-6 23-4 15-7 27-4 15-7 27-2 7-5 16-2 7-1 8-1 141-1 1-219-1-1-1v-152l1-4 51-1 8-16 7-8 11-7 11-4h20l13 5 8 6 8 9 7 14v2h55v-7l18-84 5-24 19-90 12-57 2-9 11-52 2-9 11-53 1-4h-23v-20h74v-204h36z" fill="#836DBF"/>
<path transform="translate(516,351)" d="m0 0h21l45 1h335l56 1 1 1 1 53v182l-1 34-1 1-118 1h-291l-48-1z" fill="#FDFDFC"/>
<path transform="translate(115,700)" d="m0 0 134 1v1h-17l9 119 5 63 4 52 3 24 5 16 6 10 9 10 10 6 10 4 10 2-1 44-4 93h2l1-9 19-91 6-29 2-8h35l-1 8-7 26-7 27-8 31-4 15-11 42-4 15-8 31-4 15-16 62-2 19-1 22h-9l-2 1h-10l-4-4v-9l5-26 8-38v-17l-2-42-2-62-1-27h-2l-8 69-6 49-8 64-5 39-1 3h-8l-2-1v-16l6-75 4-56 10-127 2-30v-7l-115-1-4 17-6 21-3 11-2 7-3 8-4 16-6 21-4 15-3 9-4 15-5 18-6 22-3 8-3 13-5 18-6 22-5 18-7 25-6 19-4 10-1 1h-6l-4-3v-9l13-57 16-70 4-17 19-83 13-57 4-17 1-2-15-2-16-8-11-9-8-10-7-14-4-13-1-10-1-27-2-113v-100h64l6 1z" fill="#BB9BEC"/>
<path transform="translate(298,303)" d="m0 0h18l14 4 21 10 26 16 16 9 13 6 14 5 4 6-1 7-8 11-9 9-14 9-3 1h-16l-12-4h-4l-2 4-2 9 4 8 3 3-1 6-8 9-7 11-2 11 2 9 8 16 9 19 5 14 2 7v21l-4 11-6 8-9 8-15 9-12 7-6 7-1 2v7l7 14 14 19 6 10 4 13v9l-4 13-6 9-9 10-13 10-15 9-5 5-1 9 4 24v20l-3 12-6 9-7 7-14 9-6 2h-4v5h-1l-6-100-1-14-133-1 2-6 8-18 5-17 2-11v-69l3-16 5-15 8-15 7-9 9-10 11-9 16-10 12-7 10-5 9-7 4-5 3-9v-19l-1-10v-35l3-24 5-18 6-13 8-13 9-10 10-7 14-7z" fill="#3B2B4B"/>
<path transform="translate(361,649)" d="m0 0 2 1 5 11 6 18 11 26 9 19 6 9 4 8 4 5v2l3 1 2 4 5 5 7 6 8 4 4 1h9l33-7 34-9 47-14 9-2v1l67 1h30l64-1 7-1 5-6 2-9 1-29 1-1 7-1h78l2 3 4 31v17l-4 7-9 7 60 1h44l-2-4-4-2-5-7 1-5-7-1-7-5-2-3v-11l3-5 5-5 8-1v-8l1-1h62l2 2 1 38-2 10h-2l-2 5-2 3h20v20h-387l-1 2v-2h-45l3 15 7 27 6 21 5 19 1 5-6-1-9-3-10-1-154-3-3-2 3-14 3-9 13-49 1-5h-45l-4 17-11 53-2 8h-32l-1-2-1-10v-49l4-28 4-13 7-14h2l1-4 5-7 2-5h2l3-12 3-11 3-27v-11z" fill="#BB9BEC"/>
<path transform="translate(366,513)" d="m0 0 12 7 5 4 6 3 10 6 6 8 8 17 11 29 14 41 5 17 15 44 7 17 2 2 6 1 86 1 2 4h2l4 6 1 3 3 1 3 5 3 2-1 4-39 12-46 13-25 6-20 4h-9l-10-4-8-6-4-5-4-4-8-10-9-16-8-16-9-20-8-21-4-12-3-5 2 11v11l-3 27-6 21-1 2h-2l-2 6-5 7-1 3h-2l-2 7-6 12-4 20-2 16v62l-7 3-29 6-31 4h-1l-2-22-1-15v-21l12-4 13-9 7-7 5-10 2-9v-20l-4-24 1-9 9-8 16-10 10-8 9-10 6-12 2-8v-9l-4-13-9-14-11-15-7-14v-7l4-6 7-6 18-10 12-9 7-8 4-9 1-4v-21z" fill="#A526E0"/>
<path transform="translate(595,271)" d="m0 0h21l10 5 11 10 6 13 1 5v10l-2 6-5 10-5 7h355l9 4 7 8 2 4 1 6v315l-3 7-5 5-6 5-8 2h-8v-3l8-5 4-7 1-40-13 1h-474l-1-1v-116l1-167 2-12 6-4 9-2h54l6 1-9-15-2-9-1-1v-10l3-9 4-8 6-7 10-6zm-79 80v273l50 1h289l118-1 1-1 1-34v-191l-1-44-1-1-65-1h-326l-45-1z" fill="#ECB9FD"/>
<path transform="translate(1209,1173)" d="m0 0h72l9 3 5 5 1 2v16l-9 66-7 51-3 10-5 3h-95l-5-5-3-14-13-98-2-15v-14l7-8 4-1z" fill="#743F7D"/>
<path transform="translate(1065,1008)" d="m0 0h18l14 1v2l8 1 19 6 17 8 5 3v2l5 1v2h3v2l4 1 11 9 1 2 5 3 7 7 2 4 6 5 7 11 2 5 4 4 5 10 3 7 2 7 3 7 8 38 1 11v6l-16 1h-41v-1h18l-4-6-1-4-4-2-12-13-13-9-10-5v-2l-10-2-17-5-37-9-16-5v-2l-5-1-12-6-9-7-7-7-6-11-1-7-1-1v-20l2-7 7-14 9-9 12-7z" fill="#FB6EAF"/>
<path transform="translate(393,1008)" d="m0 0h7l2 1 9 27 4 17 15 53 18 64 1 2v9l-12 56v4l9 4 11 8 5 6 3 1 3-10h3l7 24 10 37v2h-13l-7-2-16-3-14-3h-16l-9 4-5 3-4 1h-21l-9-2-5-6-3-8-2-10v-27l3-9 7-7 2-29 5-65 3-42 3-41 3-45 2-13z" fill="#733F7D"/>
<path transform="translate(827,1130)" d="m0 0h20l13 5 8 6 8 9 7 14v2h54v76h-199v-72l1-4 51-1 8-16 7-8 11-7z" fill="#84A9FC"/>
<path transform="translate(493,969)" d="m0 0 3 1v17l-7 76-11 116-1 16 7 33 4 16h40v-5l1 2 6 1 10 5 21 21 9 5 4 1 27 1 6 2 5 6 3 9-2 9-4 6-6 3-37 1-15-1-21-5h-14l-6 5-8 1-3 3h-2v5l-4 2h-7l-2-7-2-1-4-16-12-45-2-2-4 10-4-1-6-7-12-8-7-3 1-9 11-51v-9l-6-19-13-47-18-64-3-12-4-13-2-4v-4l-2-1h60v1h-27l4 12 12 54 10 43 1 3 7-32 16-78 5-22 3-17z" fill="#EBB8FD"/>
<path transform="translate(563,777)" d="m0 0h45l4 15 4 20 7 33 5 25 5 24 2 9 5 21 3 18 4 16 3 17 2 7 2 12 2 9 2 7 2 12 4 20 2 7 5 26 4 16 3 14 2 12 3 12 3 17 2 9 3 12 2 12 3 11 2 12 3 12 3 17 2 9 3 15 2 6 10 49v8l-3 3-3 1h-9l-4-6-19-72-5-21-4-14-11-42-8-31-21-80-11-42-7-28-5-18-12-46 3-16v-12l-4-13-6-10-5-5-4-2h2l-6-19-6-24-5-17-5-20z" fill="#836EC0"/>
<path transform="translate(1242,879)" d="m0 0h9l11 4 9 9 5 10v15l-4 12v14l5 15 12 23 3 11-1 9-7 12-9 10-8 10-7 12-2 6v8l6 15 4 2 10 9 11 9 7 8 3 7 2 6v10l-4 14-9 16-7 10-5 5-1 2 8-2v4l-58-1 3-1-1-7v-11l-3-20-9-46-1-8v-18l3-16 6-16 7-15 4-13 1-13-5-17-8-19-4-16v-22l3-14 4-10 6-7 7-4z" fill="#9E8FE8"/>
<path transform="translate(738,1245)" d="m0 0 199 1v77h-198l-1-1z" fill="#84A9FC"/>
<path transform="translate(1342,1020)" d="m0 0h26l12 2 4 2v12l-4 26-5 17-6 14v9l5 24 3 18 4 16 12 60 3 11 2 13 2 10 4 16 4 21 2 6 2 13v8l-4 4-6 1-5-2-4-8-2-9-3-9-12-46-8-30-4-16-11-43-7-27v-4l-8 7-12 10-13 9-16 9-13 6-5 2h-4l2-5 4-2 2-5 7-10 7-14 3-11v-10l-3-8-4-8-13-12-11-9-5-4-1-3 15-16 7-7 12-9 15-9 10-5z" fill="#481D92"/>
<path transform="translate(1144,552)" d="m0 0h63l1 1v203l-2 1h-64l-1-11-1-73v-120z" fill="#00BB5D"/>
<path transform="translate(423,776)" d="m0 0h74l65 1 5 18 6 24 6 21 5 19 1 5-6-1-9-3-10-1-154-3-3-2 3-14 3-9 13-49z" fill="#FDFCFC"/>
<path transform="translate(232,702)" d="m0 0h18l6 96 7 110 3 46 3 11 5 10 5 6 7 5 3 1h11l21-2h12l-1 9 35 1 2-11 1-3 4-1 20-1-1 15h67l7 2 1 1v9l-2 2-73 1-2 3v-3h-15l-8-1-4 1-36-1v6l-3 12-20 96-5 23h-2v-27l3-66 1-34 1-10-10-1-10-4-10-6-8-8-7-11-4-11-3-13-3-28-6-81-7-89-3-41z" fill="#F9F3FA"/>
<path transform="translate(753,691)" d="m0 0h78v1h-9l1 2 3 29v22l-7 8-8 4-206 1h-93l-14 1 1-2 51-15 16-5 3 1 67 1h30l64-1 7-1 5-6 2-9 1-29 1-1z" fill="#EDB9FD"/>
<path transform="translate(1032,553)" d="m0 0h38v204h-36l-1-2z" fill="#FBD858"/>
<path transform="translate(1115,552)" d="m0 0h17l8 1 1 2v118l1 84h-36l-1-1v-202l1-1z" fill="#97DF82"/>
<path transform="translate(110,1007)" d="m0 0 29 1 1 2-6 22-7 25-2 7-3 8-4 16-6 21-4 15-3 9-4 15-5 18-6 22-3 8-3 13-5 18-6 22-5 18-7 25-6 19-4 10-1 1h-6l-4-3v-9l13-57 16-70 4-17 19-83 13-57 4-17z" fill="#836DBF"/>
<path transform="translate(1094,553)" d="m0 0h11l1 67-1 135-1 2h-33v-200l1-3z" fill="#527DC9"/>
<path transform="translate(328,1008)" d="m0 0h35l-1 8-7 26-7 27-8 31-4 15-11 42-4 15-8 31-4 15-8 31-7 27-2 1v-14l2-36 2-51 2-21 4-24 23-110z" fill="#836EC0"/>
<path transform="translate(707,194)" d="m0 0 14 1 12 5 10 9 6 9 4 12 1 11-1 9-7 13-9 10-8 5-7 3-7 1h-14l-13-5-9-7-6-8-5-10-2-6v-16l4-13 7-10 8-6 11-5z" fill="#F8BAC8"/>
<path transform="translate(376,1242)" d="m0 0h57l2 2-4 1-53 1 3 5 9 8 12 6 13 2h12l11-2 5-4v-7l-5-7v-4l7 1 12 9 5 6 3 1 3-10h3l7 24 10 37v2h-13l-7-2-16-3-14-3h-16l-9 4-5 3-4 1h-21l-9-2-5-6-3-8-2-10v-27l3-9 5-5z" fill="#0F0C47"/>
<path transform="translate(473,969)" d="m0 0h19l-2 13-3 15-6 29-20 97-2-2-6-24-11-48-7-32-2-5v-3l27-1 7-2v-9l-7-2-67-1v-17l36-4z" fill="#733F7D"/>
<path transform="translate(978,337)" d="m0 0h9l9 4 7 8 2 4 1 6v315l-3 7-5 5-6 5-8 2h-8v-3l8-5 4-7 1-2 1-30 1-101v-156l-1-31-2-8-4-6-6-5z" fill="#8670C2"/>
<path transform="translate(531,1241)" d="m0 0 11 4 10 9 14 14 9 5 4 1 27 1 6 2 5 6 3 9-2 9-4 6-6 3-37 1-15-1-21-5h-14l-6 5-13 2-5-22-5-23v-3l9 2 8 1h15l9-2 5-4v-6l-8-12z" fill="#392D59"/>
<path transform="translate(1367,1095)" d="m0 0h1l6 31 3 18 4 16 12 60 3 11 2 13 2 10 4 16 4 21 2 6 2 13v8l-4 4-6 1-5-2-4-8-2-9-3-9-12-46-8-30-4-16-11-43-7-27v-4l-2-1 5-5 10-13 5-8h2z" fill="#836EC0"/>
<path transform="translate(595,271)" d="m0 0h21l10 5 11 10 6 13 1 5v10l-2 6-5 10-4 5-9 6-7 3-15 1-11-2-10-5-8-9-4-10-2-6v-10l3-9 4-8 6-7 10-6z" fill="#F77A65"/>
<path transform="translate(937,1166)" d="m0 0h23l-1 157-1 1h-21v-78h-195l-4-1v-3h199z" fill="#170F50"/>
<path transform="translate(919,699)" d="m0 0h62l2 2 1 38-2 10h-2l-2 4-6 3h-41l-8-4-6-8 1-5-7-1-7-5-2-3v-11l3-5 5-5 8-1v-8z" fill="#D22199"/>
<path transform="translate(398,390)" d="m0 0 2 1-3 3v15l-4 34-3 16-2 12-5 10-7 4-7 2-14-1-10-19-3-8-1-9 3-10 8-11 7-9-1-5-5-7-1-4 3-9 4-4 9 2 5 2h16l8-4z" fill="#F8B0A6"/>
<path transform="translate(378,777)" d="m0 0h45l-1 9-14 53-2 7-2 9h-38l-5-1 2-12 13-61z" fill="#836DC0"/>
<path transform="translate(332,769)" d="m0 0 6 6 39 1-1 9-13 62-2 8h-32l-1-2-1-10v-49l3-23z" fill="#FCFAFC"/>
<path transform="translate(361,649)" d="m0 0 2 1 5 11 6 18 11 26 9 19 6 9 4 8 4 5v2l3 1 2 4 3 2v3h-82l1-5 7-14h2l1-4 5-7 2-5h2l3-12 3-11 3-27v-11z" fill="#FBF8FC"/>
<path transform="translate(493,969)" d="m0 0 3 1v17l-7 76-11 116-2 9-2 1-4-15-10-47 3-19 20-97 5-22 3-17z" fill="#F9F5FB"/>
<path transform="translate(816,176)" d="m0 0h9l11 4 7 6 5 9 1 4v10l-4 10-6 7-8 5-10 2-8-2-8-4-8-9-4-11 1-10 6-12 8-6z" fill="#97DF82"/>
<path transform="translate(232,702)" d="m0 0h18l6 96 1 18v15h-1l-2-32-2 1v2h-2l-1 5-2 2-2 13v10l3 21 2 16v67h-1l-5-66-9-114-3-41z" fill="#F6EAFA"/>
<path transform="translate(874,264)" d="m0 0h10l9 3 10 9 5 10v13l-4 9-3 6h-3l-6-12-6-5-2-1h-11l-6 4-6 10-1 4-4-2-6-12v-13l3-8 9-10 8-4z" fill="#527FCC"/>
<path transform="translate(319,1008)" d="m0 0h8v8l-19 92-8 37h-2v-27l3-66 1-34 2-9z" fill="#FCF8FC"/>
<path transform="translate(742,398)" d="m0 0h8l11 4 8 7v3h2l3 7v14l-5 12-4 1-5-10-6-5v-2h-14l-8 6-7 11-4-4v-2h-2l-2-8v-8l3-11 7-9 10-5z" fill="#FB6DAF"/>
<path transform="translate(703,352)" d="m0 0h214l56 1 1 1v44h-1l-1-19-1-3-1-16-2-1 3-1-2-1v-2h-5l-1 2h-20l18 1 5 1-3 2h-2l-1 2-4-2-35-1-17-1 1-2h-7l-4 1-18-1h-25l-26 2-9 2v3h-11v2l-4 1-3-2v-3l-30-4-18-1-4 1-33 1-31-1-5-2-5-1h-8l-3-1v2l-8-2v-1z" fill="#FAF5FA"/>
<path transform="translate(694,219)" d="m0 0h31l-6 9v4l5-5h2l2-7 5 1 1 1v33l-1 1h-46l-2-3-1-9v-9l1-11 3-4z" fill="#FDFDFC"/>
<path transform="translate(830,1137)" d="m0 0h15l12 5 9 7 7 10 1 6-1 1h-73l-1-4 7-11 11-9z" fill="#FBFAFC"/>
<path transform="translate(1083,582)" d="m0 0h8l2 1v118l-2 1-9-1-1-66v-22l1-30z" fill="#FDFDFC"/>
<path transform="translate(450,1180)" d="m0 0 2 2 4 16 11 40 2 5v7l-4 10-4-1-6-7-12-8-7-3 1-9 11-51z" fill="#FBF9FC"/>
<path transform="translate(1047,583)" d="m0 0h8l1 1v117h-9l-1-1v-116z" fill="#FDF9F9"/>
<path transform="translate(1119,583)" d="m0 0h7l2 3v115h-9l-1-1v-116z" fill="#FDFCFC"/>
<path transform="translate(380,1245)" d="m0 0 58 1 6 8v7l-6 5-11 2h-12l-13-2-12-6-12-11v-3z" fill="#F8AEA3"/>
<path transform="translate(528,1239)" d="m0 0 1 2h2l1 4 6 8 1 2v6l-6 5-9 2h-15l-12-2-6-3-4-14v-4l2-1h39z" fill="#F8AFA5"/>
<path transform="translate(560,711)" d="m0 0h31l13 3 13 8 8 7 1 5h-8l-3-1h-13l-21 1-5 1v-4l-5-5-8-10v-2h-2z" fill="#F8B2A9"/>
<path transform="translate(469,1249)" d="m0 0 3 3 16 59v2h-13l-12-3v-40l1-10 4-10z" fill="#3E305E"/>
<path transform="translate(601,287)" d="m0 0h11l4 4 5 17v14l-1 3h-2v2h-2v2l-3 1h-14l-6-3-3-5v-15l3-4 12-2h9l-3-10-3-1h-8l-6 10-1-3 5-8z" fill="#FDFBFA"/>
<path transform="translate(827,1130)" d="m0 0h20l13 5 8 6 8 9 6 12v3h-7l-6-11-6-7-10-6-8-3h-15l-13 5-10 8-9 14h-6l1-6 6-12 10-9 14-7z" fill="#18114C"/>
<path transform="translate(278,1249)" d="m0 0 2 1 1 19 1 48-1 4-2 1h-10l-4-4v-9l5-26 7-33z" fill="#846FC1"/>
<path transform="translate(1249,911)" d="m0 0h1v12l-1 7v17l4 15 6 21 1 5v9l-8 16-8 14-4 14v20l2 9 4 9 6 11 10 14 5 11 1 5v14l-5 17-7 18-3 2 1-5 7-19 3-11v-18l-4-11-7-11-9-14-5-11-3-10v-22l5-14 13-23 2-6v-11l-9-30-2-11v-15l2-12z" fill="#816CBE"/>
<path transform="translate(413,995)" d="m0 0h53l2 2v9l-2 2h-30l3-2-14-3h-14l-6-2-7-1-2-4z" fill="#FBF9FC"/>
<path transform="translate(822,692)" d="m0 0h10l2 10 3 23v17l-4 7-6 5-13 3v-2l8-6 3-4v-22z" fill="#846EBF"/>
<path transform="translate(233,702)" d="m0 0h17l2 30v40l-2-4-2-1-1-15-2-6-4-8-1-14-4-8-2-1-1-5z" fill="#FAF6FC"/>
<path transform="translate(400,1008)" d="m0 0h60v1h-27l2 5-1 3-5 5-7 8-6 5h-2v2h-2v5h-1l-3-12-4-13-2-4v-4z" fill="#BB9BEC"/>
<path transform="translate(516,351)" d="m0 0h21l45 1 18 1v1h-51v1h-10l-11 5-3-2v9l-2 6h-3v11l-1 7-1 1h1v18l-2 69h-1z" fill="#FAF5FA"/>
<path transform="translate(694,219)" d="m0 0h31l-6 9v6l-3 6-1-2-12 3-8 3v-2l6-4v-3l-7-7-2-1v-3h-2l1-4z" fill="#F9F4FA"/>
<path transform="translate(814,1247)" d="m0 0h45l-1 5-7 7h-26l-6-3-6-7z" fill="#FDFDFC"/>
<path transform="translate(365,982)" d="m0 0h5l-3 13h-35l-1-3 2-7 2-1z" fill="#8771C3"/>
<path transform="translate(479,705)" d="m0 0h52l23 1 5 3v1h-86l-6-1 4-2z" fill="#F5E3FA"/>
<path transform="translate(1e3 432)" d="m0 0h1l1 6v81l-1 50h-1l-2-62v-52l1-21z" fill="#743F7D"/>
<path transform="translate(241,821)" d="m0 0h1v9h2l1-3 1 11 3 27 1 4v67h-1l-5-66-3-37z" fill="#F6E2FB"/>
<path transform="translate(473,969)" d="m0 0h19l-1 5h-3-21l-64 6-7 2-2 2-1-7 36-4z" fill="#3B2B4C"/>
<path transform="translate(390,1022)" d="m0 0h2l-1 47-2 13-2 29-2 28-1 20-2 13h-1v-22l3-42 3-41z" fill="#4E335E"/>
<path transform="translate(1062,1049)" d="m0 0 13 2 18 4 22 8 18 8 20 12 11 9 10 9 9 10-2 2-12-13-15-12-19-12-23-11-21-7-28-6-2-2z" fill="#F8BACC"/>
<path transform="translate(602,732)" d="m0 0h13l12 3v2l4 2h-64l2-1v-2l9-2 3-1z" fill="#F9F4FA"/>
<path transform="translate(829,363)" d="m0 0 8 2 1 3 5 2v3h-53l-2-2 5-3 4 2v1l5 1 1-4 4-2 12-1v2l-1 1 8-1-4-1v-2z" fill="#FAF5FA"/>
<path transform="translate(388,979)" d="m0 0h6l-2 13-8 1-6-1-8 1-2-1 1-8 1-3 4-1z" fill="#F8F4FB"/>
<path transform="translate(785,306)" d="m0 0h6l4 2 3 5-1 7-4 4-2 1h-6l-5-5-1-2v-6l5-5z" fill="#5582CF"/>
<path transform="translate(314,598)" d="m0 0 2 3 6 11 14 19 6 10 4 13v9l-3 11-2-2-1-4 2-6-1-9-4-9-8-16-2-5h-2v-2h-2l-8-14-2-6z" fill="#3D2A64"/>
<path transform="translate(258,847)" d="m0 0h1l3 44v16l-2-4-3-3-4-16v-11l2-2h3z" fill="#EFE0F8"/>
<path transform="translate(1246,1081)" d="m0 0 3 4 13 19 5 11 1 5v14l-5 17-7 18-3 2 1-5 7-19 3-11v-18l-4-11-7-11-8-12z" fill="#826DBF"/>
<path transform="translate(600,289)" d="m0 0h8l4 2 2 5v5l-21 3-2 2 1-9 2 1z" fill="#F78370"/>
<path transform="translate(832,193)" d="m0 0h4v5l-13 13-3 4-7-1-6-7-1-3 4-2 4 4 6 1 2-4z" fill="#FDFCFC"/>
<path transform="translate(1221,1120)" d="m0 0h1l5 25 1 9v18h-5l2-1-4-25-3-14 1-4 1-1z" fill="#F6DAF1"/>
<path transform="translate(743,407)" d="m0 0h6l4 4v8l-3 3-7 1-6-5 1-7z" fill="#F9E9FA"/>
<path transform="translate(262,908)" d="m0 0h1l3 50h-2v-2l-4-2-2-2 1-10v-28l2-3z" fill="#EDDEF7"/>
<path transform="translate(516,549)" d="m0 0h1l1 22 1 1 1 7v37l-1 7 2 1h-5z" fill="#FAF5FA"/>
<path transform="translate(292,728)" d="m0 0h1l4 24v20l-1 5-2-1-2-15-1-3-1-21v-6z" fill="#3B2867"/>
<path transform="translate(876,275)" d="m0 0h7l2 2v9l-5 3-5-1-3-3-1-4 3-5z" fill="#FDFDFC"/>
<path transform="translate(781,267)" d="m0 0h7l4 3v7l-4 4-6-1-4-5 1-6z" fill="#97DF82"/>
<path transform="translate(419,974)" d="m0 0h24v1h-9v2l-31 3-7 2-2 2-1-7z" fill="#2E234E"/>
<path transform="translate(1136,1074)" d="m0 0 6 2 12 8 10 8 10 9 9 10-2 2-12-13-15-12-19-12z" fill="#F9BBC8"/>
<path transform="translate(375,1238)" d="m0 0 1 3h61l3 2h-2v3h-54v-1l47-1 2-1h-58z" fill="#52335F"/>
<path transform="translate(1186,1119)" d="m0 0 4 2 7 11 2 7 8 16 5 16v2l-4-1-2-10-10-24-8-15z" fill="#F9BBC8"/>
<path transform="translate(346,558)" d="m0 0 7 1 1 3-13 9-5 3h-2l1-5 4-6h2v-2z" fill="#3B2A5F"/>
<path transform="translate(973,589)" d="m0 0h1v34l-1 1h-59v-1l57-1-1-10 2-7z" fill="#FAF5FA"/>
<path transform="translate(669,294)" d="m0 0h8l2 7-1 4h-9l-2-6v-4z" fill="#F78B7A"/>
<path transform="translate(976,753)" d="m0 0 2 1-2 3 4 1h-50l-4-4 5 1h41z" fill="#F79ACA"/>
<path transform="translate(254,768)" d="m0 0h1l3 17v4h2l-1 7-2 20h-1l-2-35z" fill="#4E3668"/>
<path transform="translate(1e3 862)" d="m0 0 1 4-3 12-3 14-4 18h-1v-8l6-31 1-4h2z" fill="#7D5196"/>
<path transform="translate(1031,757)" d="m0 0h13l26 1-3 3h-14l-19-1-7-1z" fill="#744281"/>
<path transform="translate(601,287)" d="m0 0h11l4 4 2 6v5h-13v-1h9l-3-10-3-1h-8l-6 10-1-3 5-8z" fill="#FCE1DF"/>
<path transform="translate(384,1121)" d="m0 0 2 1-2 37-2 13h-1v-22l1-18z" fill="#462E54"/>
<path transform="translate(913,717)" d="m0 0h5l1 1v10l-7 1-2-2v-7z" fill="#F594A2"/>
<path transform="translate(528,365)" d="m0 0 4 4-1 5-1 11 1 4-3 3-2-2v-7l-1-3 2-10z" fill="#FAF5FA"/>
<path transform="translate(919,699)" d="m0 0h62v1l-58 1-3 1-1 7-10 2 1-2 8-1v-8z" fill="#FA7DA7"/>
<path transform="translate(250,702)" d="m0 0 2 1 2 24-1 23h-1l-2-34z" fill="#553669"/>
<path transform="translate(450,971)" d="m0 0h8l-2 4-9 1h-13v-1l-5-1v-1z" fill="#39294A"/>
<path transform="translate(387,1089)" d="m0 0h1v11l-2 20-1 1-1 7h-1l1-20 2-18z" fill="#4C315B"/>
<path transform="translate(1011,824)" d="m0 0 1 2-1 8-2 6-3 15-3 3 1-10 3-14 3-9z" fill="#7C4F93"/>
<path transform="translate(500,604)" d="m0 0h1l1 34 15 1v1l-8 2-6 2-3-5z" fill="#FAF5FA"/>
<path transform="translate(994,463)" d="m0 0h1l1 5 1 22-1 12-2-4z" fill="#A526E0"/>
<path transform="translate(250,911)" d="m0 0 3 4v17l-3 4-1-12v-12z" fill="#FAF5FA"/>
<path transform="translate(850,622)" d="m0 0 3 1v2h-68v-1l64-1z" fill="#FAF5FA"/>
<path transform="translate(996,685)" d="m0 0 2 1-6 5-8 2h-8v-3l9-3 7 1z" fill="#7A509B"/>
<path transform="translate(366,518)" d="m0 0h2v21h-3l-2-3v-7l2-4z" fill="#3C2869"/>
<path transform="translate(603,309)" d="m0 0 5 1 1 1v7l-2 3-4-1-1-3v-7z" fill="#F78A78"/>
<path transform="translate(1111,1062)" d="m0 0 9 3 16 8v2l-5-1-21-10z" fill="#F7BACF"/>
<path transform="translate(419,974)" d="m0 0h24v1l-36 3 2-1v-2z" fill="#1A1449"/>
<path transform="translate(624,352)" d="m0 0h14v2h-5l-1 2-26-2v-1z" fill="#FAF6FA"/>
<path transform="translate(560,711)" d="m0 0h31v1l-25 1 1 4 4 5-1 2-5-5-2-5h-2z" fill="#F8B6C7"/>
<path transform="translate(725,219)" d="m0 0h5l-2 1-1 5-5 5-4 3v-5z" fill="#E7B6FB"/>
<path transform="translate(618,734)" d="m0 0h7l2 2 4 3h-13l-6-1v-2z" fill="#FBF8FB"/>
<path transform="translate(380,1182)" d="m0 0h1v15l-1 8-2 1v-18z" fill="#463057"/>
<path transform="translate(1084,718)" d="m0 0h7v7l-1 1h-6z" fill="#2B1E50"/>
<path transform="translate(983,953)" d="m0 0h1l-1 9-3 14-2 4v-9l3-14z" fill="#7E549A"/>
<path transform="translate(528,1239)" d="m0 0 1 2h2v4h-42v-1h39z" fill="#BD9CEB"/>
<path transform="translate(828,752)" d="m0 0h5l1 4h9v1h-21l5-4z" fill="#F5DEFC"/>
<path transform="translate(913,719)" d="m0 0h4v8l-4 1-2-2v-5z" fill="#FEFEFD"/>
<path transform="translate(1048,719)" d="m0 0h7l-1 6-4 1-2-1-1-5z" fill="#F77963"/>
<path transform="translate(938,356)" d="m0 0h21l2 2-4 1-16-1z" fill="#FEFEFD"/>
<path transform="translate(384,1121)" d="m0 0 2 1-1 18-3 3v-11z" fill="#483058"/>
<path transform="translate(1e3 862)" d="m0 0 1 4-4 14-2 1 1-10 1-4h2z" fill="#7F5499"/>
<path transform="translate(1119,719)" d="m0 0h7l1 2-2 4h-5l-1-1z" fill="#255856"/>
<path transform="translate(332,769)" d="m0 0 5 5-4 2-3 7h-1l1-12z" fill="#EED1FA"/>
<path transform="translate(1007,842)" d="m0 0 1 3-2 10-3 3 1-10 1-5z" fill="#7F5398"/>
<path transform="translate(398,390)" d="m0 0 2 1-3 3v15h-1l-1-9-1-4-3-1z" fill="#F2C0D4"/>
<path transform="translate(297,1135)" d="m0 0h1v10h2l-1 5-2 6h-1z" fill="#E6B6FB"/>
<path transform="translate(386,1107)" d="m0 0 1 4-1 9-1 1-1 7h-1l1-20z" fill="#573766"/>
<path transform="translate(388,1074)" d="m0 0h2l-2 15-2 1v-13z" fill="#4D325D"/>
<path transform="translate(1012,810)" d="m0 0h2l-1 11-3 7-1-4z" fill="#845EA7"/>
<path transform="translate(250,758)" d="m0 0 2 3v11l-2-4-2-1v-8z" fill="#FEFEFD"/>
<path transform="translate(547,597)" d="m0 0 4 2-1 3 1 3h-5l-2-2v-3z" fill="#FAF5FA"/>
<path transform="translate(737,314)" d="m0 0 4 1v5l-1 1h-5l1-6z" fill="#A85495"/>
<path transform="translate(838,252)" d="m0 0 4 2-1 6-4-1-1-5z" fill="#97DF82"/>
<path transform="translate(963,1047)" d="m0 0h1v8l-4 15-1-4 1-10h2z" fill="#784788"/>
<path transform="translate(792,368)" d="m0 0 5 2 4 3h-11l-2-2z" fill="#FAF5FA"/>
<path transform="translate(994,485)" d="m0 0h2l1 7-1 10-2-4z" fill="#A625E1"/>
<path transform="translate(813,365)" d="m0 0h6v2l-7 2-5-1 1-2z" fill="#FAF5FA"/>
</svg>
